G04 #@! TF.GenerationSoftware,KiCad,Pcbnew,5.0.1-33cea8e~68~ubuntu16.04.1*
G04 #@! TF.CreationDate,2018-10-23T13:55:12+02:00*
G04 #@! TF.ProjectId,MAX31865_x10_PCB,4D415833313836355F7831305F504342,rev?*
G04 #@! TF.SameCoordinates,Original*
G04 #@! TF.FileFunction,Copper,L2,Bot,Signal*
G04 #@! TF.FilePolarity,Positive*
%FSLAX46Y46*%
G04 Gerber Fmt 4.6, Leading zero omitted, Abs format (unit mm)*
G04 Created by KiCad (PCBNEW 5.0.1-33cea8e~68~ubuntu16.04.1) date Tue 23 Oct 2018 01:55:12 PM CEST*
%MOMM*%
%LPD*%
G01*
G04 APERTURE LIST*
%ADD10C,0.100000*%
%ADD11C,0.150000*%
%ADD12C,0.300000*%
%ADD13C,0.400000*%
G04 #@! TA.AperFunction,ComponentPad*
%ADD14R,1.700000X1.700000*%
G04 #@! TD*
G04 #@! TA.AperFunction,ComponentPad*
%ADD15O,1.700000X1.700000*%
G04 #@! TD*
G04 #@! TA.AperFunction,ComponentPad*
%ADD16R,2.400000X2.400000*%
G04 #@! TD*
G04 #@! TA.AperFunction,ComponentPad*
%ADD17C,2.400000*%
G04 #@! TD*
G04 #@! TA.AperFunction,ViaPad*
%ADD18C,0.800000*%
G04 #@! TD*
G04 #@! TA.AperFunction,Conductor*
%ADD19C,0.250000*%
G04 #@! TD*
G04 #@! TA.AperFunction,Conductor*
%ADD20C,0.254000*%
G04 #@! TD*
G04 APERTURE END LIST*
D10*
D11*
X177002200Y-166007200D02*
X177002200Y-198007200D01*
X285002200Y-198007200D01*
X285002200Y-166007200D01*
X177002200Y-166007200D01*
D10*
D11*
X10000000Y-10000000D02*
X10000000Y-200007200D01*
X287002200Y-200007200D01*
X287002200Y-10000000D01*
X10000000Y-10000000D01*
D10*
D11*
X12000000Y-12000000D02*
X12000000Y-198007200D01*
X285002200Y-198007200D01*
X285002200Y-12000000D01*
X12000000Y-12000000D01*
D10*
D11*
X60000000Y-12000000D02*
X60000000Y-10000000D01*
D10*
D11*
X110000000Y-12000000D02*
X110000000Y-10000000D01*
D10*
D11*
X160000000Y-12000000D02*
X160000000Y-10000000D01*
D10*
D11*
X210000000Y-12000000D02*
X210000000Y-10000000D01*
D10*
D11*
X260000000Y-12000000D02*
X260000000Y-10000000D01*
D10*
D11*
X36065476Y-11588095D02*
X35322619Y-11588095D01*
X35694047Y-11588095D02*
X35694047Y-10288095D01*
X35570238Y-10473809D01*
X35446428Y-10597619D01*
X35322619Y-10659523D01*
D10*
D11*
X85322619Y-10411904D02*
X85384523Y-10350000D01*
X85508333Y-10288095D01*
X85817857Y-10288095D01*
X85941666Y-10350000D01*
X86003571Y-10411904D01*
X86065476Y-10535714D01*
X86065476Y-10659523D01*
X86003571Y-10845238D01*
X85260714Y-11588095D01*
X86065476Y-11588095D01*
D10*
D11*
X135260714Y-10288095D02*
X136065476Y-10288095D01*
X135632142Y-10783333D01*
X135817857Y-10783333D01*
X135941666Y-10845238D01*
X136003571Y-10907142D01*
X136065476Y-11030952D01*
X136065476Y-11340476D01*
X136003571Y-11464285D01*
X135941666Y-11526190D01*
X135817857Y-11588095D01*
X135446428Y-11588095D01*
X135322619Y-11526190D01*
X135260714Y-11464285D01*
D10*
D11*
X185941666Y-10721428D02*
X185941666Y-11588095D01*
X185632142Y-10226190D02*
X185322619Y-11154761D01*
X186127380Y-11154761D01*
D10*
D11*
X236003571Y-10288095D02*
X235384523Y-10288095D01*
X235322619Y-10907142D01*
X235384523Y-10845238D01*
X235508333Y-10783333D01*
X235817857Y-10783333D01*
X235941666Y-10845238D01*
X236003571Y-10907142D01*
X236065476Y-11030952D01*
X236065476Y-11340476D01*
X236003571Y-11464285D01*
X235941666Y-11526190D01*
X235817857Y-11588095D01*
X235508333Y-11588095D01*
X235384523Y-11526190D01*
X235322619Y-11464285D01*
D10*
D11*
X285941666Y-10288095D02*
X285694047Y-10288095D01*
X285570238Y-10350000D01*
X285508333Y-10411904D01*
X285384523Y-10597619D01*
X285322619Y-10845238D01*
X285322619Y-11340476D01*
X285384523Y-11464285D01*
X285446428Y-11526190D01*
X285570238Y-11588095D01*
X285817857Y-11588095D01*
X285941666Y-11526190D01*
X286003571Y-11464285D01*
X286065476Y-11340476D01*
X286065476Y-11030952D01*
X286003571Y-10907142D01*
X285941666Y-10845238D01*
X285817857Y-10783333D01*
X285570238Y-10783333D01*
X285446428Y-10845238D01*
X285384523Y-10907142D01*
X285322619Y-11030952D01*
D10*
D11*
X60000000Y-198007200D02*
X60000000Y-200007200D01*
D10*
D11*
X110000000Y-198007200D02*
X110000000Y-200007200D01*
D10*
D11*
X160000000Y-198007200D02*
X160000000Y-200007200D01*
D10*
D11*
X210000000Y-198007200D02*
X210000000Y-200007200D01*
D10*
D11*
X260000000Y-198007200D02*
X260000000Y-200007200D01*
D10*
D11*
X36065476Y-199595295D02*
X35322619Y-199595295D01*
X35694047Y-199595295D02*
X35694047Y-198295295D01*
X35570238Y-198481009D01*
X35446428Y-198604819D01*
X35322619Y-198666723D01*
D10*
D11*
X85322619Y-198419104D02*
X85384523Y-198357200D01*
X85508333Y-198295295D01*
X85817857Y-198295295D01*
X85941666Y-198357200D01*
X86003571Y-198419104D01*
X86065476Y-198542914D01*
X86065476Y-198666723D01*
X86003571Y-198852438D01*
X85260714Y-199595295D01*
X86065476Y-199595295D01*
D10*
D11*
X135260714Y-198295295D02*
X136065476Y-198295295D01*
X135632142Y-198790533D01*
X135817857Y-198790533D01*
X135941666Y-198852438D01*
X136003571Y-198914342D01*
X136065476Y-199038152D01*
X136065476Y-199347676D01*
X136003571Y-199471485D01*
X135941666Y-199533390D01*
X135817857Y-199595295D01*
X135446428Y-199595295D01*
X135322619Y-199533390D01*
X135260714Y-199471485D01*
D10*
D11*
X185941666Y-198728628D02*
X185941666Y-199595295D01*
X185632142Y-198233390D02*
X185322619Y-199161961D01*
X186127380Y-199161961D01*
D10*
D11*
X236003571Y-198295295D02*
X235384523Y-198295295D01*
X235322619Y-198914342D01*
X235384523Y-198852438D01*
X235508333Y-198790533D01*
X235817857Y-198790533D01*
X235941666Y-198852438D01*
X236003571Y-198914342D01*
X236065476Y-199038152D01*
X236065476Y-199347676D01*
X236003571Y-199471485D01*
X235941666Y-199533390D01*
X235817857Y-199595295D01*
X235508333Y-199595295D01*
X235384523Y-199533390D01*
X235322619Y-199471485D01*
D10*
D11*
X285941666Y-198295295D02*
X285694047Y-198295295D01*
X285570238Y-198357200D01*
X285508333Y-198419104D01*
X285384523Y-198604819D01*
X285322619Y-198852438D01*
X285322619Y-199347676D01*
X285384523Y-199471485D01*
X285446428Y-199533390D01*
X285570238Y-199595295D01*
X285817857Y-199595295D01*
X285941666Y-199533390D01*
X286003571Y-199471485D01*
X286065476Y-199347676D01*
X286065476Y-199038152D01*
X286003571Y-198914342D01*
X285941666Y-198852438D01*
X285817857Y-198790533D01*
X285570238Y-198790533D01*
X285446428Y-198852438D01*
X285384523Y-198914342D01*
X285322619Y-199038152D01*
D10*
D11*
X10000000Y-60000000D02*
X12000000Y-60000000D01*
D10*
D11*
X10000000Y-110000000D02*
X12000000Y-110000000D01*
D10*
D11*
X10000000Y-160000000D02*
X12000000Y-160000000D01*
D10*
D11*
X10690476Y-35216666D02*
X11309523Y-35216666D01*
X10566666Y-35588095D02*
X11000000Y-34288095D01*
X11433333Y-35588095D01*
D10*
D11*
X11092857Y-84907142D02*
X11278571Y-84969047D01*
X11340476Y-85030952D01*
X11402380Y-85154761D01*
X11402380Y-85340476D01*
X11340476Y-85464285D01*
X11278571Y-85526190D01*
X11154761Y-85588095D01*
X10659523Y-85588095D01*
X10659523Y-84288095D01*
X11092857Y-84288095D01*
X11216666Y-84350000D01*
X11278571Y-84411904D01*
X11340476Y-84535714D01*
X11340476Y-84659523D01*
X11278571Y-84783333D01*
X11216666Y-84845238D01*
X11092857Y-84907142D01*
X10659523Y-84907142D01*
D10*
D11*
X11402380Y-135464285D02*
X11340476Y-135526190D01*
X11154761Y-135588095D01*
X11030952Y-135588095D01*
X10845238Y-135526190D01*
X10721428Y-135402380D01*
X10659523Y-135278571D01*
X10597619Y-135030952D01*
X10597619Y-134845238D01*
X10659523Y-134597619D01*
X10721428Y-134473809D01*
X10845238Y-134350000D01*
X11030952Y-134288095D01*
X11154761Y-134288095D01*
X11340476Y-134350000D01*
X11402380Y-134411904D01*
D10*
D11*
X10659523Y-185588095D02*
X10659523Y-184288095D01*
X10969047Y-184288095D01*
X11154761Y-184350000D01*
X11278571Y-184473809D01*
X11340476Y-184597619D01*
X11402380Y-184845238D01*
X11402380Y-185030952D01*
X11340476Y-185278571D01*
X11278571Y-185402380D01*
X11154761Y-185526190D01*
X10969047Y-185588095D01*
X10659523Y-185588095D01*
D10*
D11*
X287002200Y-60000000D02*
X285002200Y-60000000D01*
D10*
D11*
X287002200Y-110000000D02*
X285002200Y-110000000D01*
D10*
D11*
X287002200Y-160000000D02*
X285002200Y-160000000D01*
D10*
D11*
X285692676Y-35216666D02*
X286311723Y-35216666D01*
X285568866Y-35588095D02*
X286002200Y-34288095D01*
X286435533Y-35588095D01*
D10*
D11*
X286095057Y-84907142D02*
X286280771Y-84969047D01*
X286342676Y-85030952D01*
X286404580Y-85154761D01*
X286404580Y-85340476D01*
X286342676Y-85464285D01*
X286280771Y-85526190D01*
X286156961Y-85588095D01*
X285661723Y-85588095D01*
X285661723Y-84288095D01*
X286095057Y-84288095D01*
X286218866Y-84350000D01*
X286280771Y-84411904D01*
X286342676Y-84535714D01*
X286342676Y-84659523D01*
X286280771Y-84783333D01*
X286218866Y-84845238D01*
X286095057Y-84907142D01*
X285661723Y-84907142D01*
D10*
D11*
X286404580Y-135464285D02*
X286342676Y-135526190D01*
X286156961Y-135588095D01*
X286033152Y-135588095D01*
X285847438Y-135526190D01*
X285723628Y-135402380D01*
X285661723Y-135278571D01*
X285599819Y-135030952D01*
X285599819Y-134845238D01*
X285661723Y-134597619D01*
X285723628Y-134473809D01*
X285847438Y-134350000D01*
X286033152Y-134288095D01*
X286156961Y-134288095D01*
X286342676Y-134350000D01*
X286404580Y-134411904D01*
D10*
D11*
X285661723Y-185588095D02*
X285661723Y-184288095D01*
X285971247Y-184288095D01*
X286156961Y-184350000D01*
X286280771Y-184473809D01*
X286342676Y-184597619D01*
X286404580Y-184845238D01*
X286404580Y-185030952D01*
X286342676Y-185278571D01*
X286280771Y-185402380D01*
X286156961Y-185526190D01*
X285971247Y-185588095D01*
X285661723Y-185588095D01*
D10*
D11*
X200434342Y-193785771D02*
X200434342Y-192285771D01*
X200791485Y-192285771D01*
X201005771Y-192357200D01*
X201148628Y-192500057D01*
X201220057Y-192642914D01*
X201291485Y-192928628D01*
X201291485Y-193142914D01*
X201220057Y-193428628D01*
X201148628Y-193571485D01*
X201005771Y-193714342D01*
X200791485Y-193785771D01*
X200434342Y-193785771D01*
X202577200Y-193785771D02*
X202577200Y-193000057D01*
X202505771Y-192857200D01*
X202362914Y-192785771D01*
X202077200Y-192785771D01*
X201934342Y-192857200D01*
X202577200Y-193714342D02*
X202434342Y-193785771D01*
X202077200Y-193785771D01*
X201934342Y-193714342D01*
X201862914Y-193571485D01*
X201862914Y-193428628D01*
X201934342Y-193285771D01*
X202077200Y-193214342D01*
X202434342Y-193214342D01*
X202577200Y-193142914D01*
X203077200Y-192785771D02*
X203648628Y-192785771D01*
X203291485Y-192285771D02*
X203291485Y-193571485D01*
X203362914Y-193714342D01*
X203505771Y-193785771D01*
X203648628Y-193785771D01*
X204720057Y-193714342D02*
X204577200Y-193785771D01*
X204291485Y-193785771D01*
X204148628Y-193714342D01*
X204077200Y-193571485D01*
X204077200Y-193000057D01*
X204148628Y-192857200D01*
X204291485Y-192785771D01*
X204577200Y-192785771D01*
X204720057Y-192857200D01*
X204791485Y-193000057D01*
X204791485Y-193142914D01*
X204077200Y-193285771D01*
X205434342Y-193642914D02*
X205505771Y-193714342D01*
X205434342Y-193785771D01*
X205362914Y-193714342D01*
X205434342Y-193642914D01*
X205434342Y-193785771D01*
X205434342Y-192857200D02*
X205505771Y-192928628D01*
X205434342Y-193000057D01*
X205362914Y-192928628D01*
X205434342Y-192857200D01*
X205434342Y-193000057D01*
D10*
D11*
X177002200Y-194507200D02*
X285002200Y-194507200D01*
D10*
D11*
X178434342Y-196585771D02*
X178434342Y-195085771D01*
X179291485Y-196585771D02*
X178648628Y-195728628D01*
X179291485Y-195085771D02*
X178434342Y-195942914D01*
X179934342Y-196585771D02*
X179934342Y-195585771D01*
X179934342Y-195085771D02*
X179862914Y-195157200D01*
X179934342Y-195228628D01*
X180005771Y-195157200D01*
X179934342Y-195085771D01*
X179934342Y-195228628D01*
X181505771Y-196442914D02*
X181434342Y-196514342D01*
X181220057Y-196585771D01*
X181077200Y-196585771D01*
X180862914Y-196514342D01*
X180720057Y-196371485D01*
X180648628Y-196228628D01*
X180577200Y-195942914D01*
X180577200Y-195728628D01*
X180648628Y-195442914D01*
X180720057Y-195300057D01*
X180862914Y-195157200D01*
X181077200Y-195085771D01*
X181220057Y-195085771D01*
X181434342Y-195157200D01*
X181505771Y-195228628D01*
X182791485Y-196585771D02*
X182791485Y-195800057D01*
X182720057Y-195657200D01*
X182577200Y-195585771D01*
X182291485Y-195585771D01*
X182148628Y-195657200D01*
X182791485Y-196514342D02*
X182648628Y-196585771D01*
X182291485Y-196585771D01*
X182148628Y-196514342D01*
X182077200Y-196371485D01*
X182077200Y-196228628D01*
X182148628Y-196085771D01*
X182291485Y-196014342D01*
X182648628Y-196014342D01*
X182791485Y-195942914D01*
X184148628Y-196585771D02*
X184148628Y-195085771D01*
X184148628Y-196514342D02*
X184005771Y-196585771D01*
X183720057Y-196585771D01*
X183577200Y-196514342D01*
X183505771Y-196442914D01*
X183434342Y-196300057D01*
X183434342Y-195871485D01*
X183505771Y-195728628D01*
X183577200Y-195657200D01*
X183720057Y-195585771D01*
X184005771Y-195585771D01*
X184148628Y-195657200D01*
X186005771Y-195800057D02*
X186505771Y-195800057D01*
X186720057Y-196585771D02*
X186005771Y-196585771D01*
X186005771Y-195085771D01*
X186720057Y-195085771D01*
X187362914Y-196442914D02*
X187434342Y-196514342D01*
X187362914Y-196585771D01*
X187291485Y-196514342D01*
X187362914Y-196442914D01*
X187362914Y-196585771D01*
X188077200Y-196585771D02*
X188077200Y-195085771D01*
X188434342Y-195085771D01*
X188648628Y-195157200D01*
X188791485Y-195300057D01*
X188862914Y-195442914D01*
X188934342Y-195728628D01*
X188934342Y-195942914D01*
X188862914Y-196228628D01*
X188791485Y-196371485D01*
X188648628Y-196514342D01*
X188434342Y-196585771D01*
X188077200Y-196585771D01*
X189577200Y-196442914D02*
X189648628Y-196514342D01*
X189577200Y-196585771D01*
X189505771Y-196514342D01*
X189577200Y-196442914D01*
X189577200Y-196585771D01*
X190220057Y-196157200D02*
X190934342Y-196157200D01*
X190077200Y-196585771D02*
X190577200Y-195085771D01*
X191077200Y-196585771D01*
X191577200Y-196442914D02*
X191648628Y-196514342D01*
X191577200Y-196585771D01*
X191505771Y-196514342D01*
X191577200Y-196442914D01*
X191577200Y-196585771D01*
X194577200Y-196585771D02*
X194577200Y-195085771D01*
X194720057Y-196014342D02*
X195148628Y-196585771D01*
X195148628Y-195585771D02*
X194577200Y-196157200D01*
X195791485Y-196585771D02*
X195791485Y-195585771D01*
X195791485Y-195085771D02*
X195720057Y-195157200D01*
X195791485Y-195228628D01*
X195862914Y-195157200D01*
X195791485Y-195085771D01*
X195791485Y-195228628D01*
X197148628Y-196514342D02*
X197005771Y-196585771D01*
X196720057Y-196585771D01*
X196577200Y-196514342D01*
X196505771Y-196442914D01*
X196434342Y-196300057D01*
X196434342Y-195871485D01*
X196505771Y-195728628D01*
X196577200Y-195657200D01*
X196720057Y-195585771D01*
X197005771Y-195585771D01*
X197148628Y-195657200D01*
X198434342Y-196585771D02*
X198434342Y-195800057D01*
X198362914Y-195657200D01*
X198220057Y-195585771D01*
X197934342Y-195585771D01*
X197791485Y-195657200D01*
X198434342Y-196514342D02*
X198291485Y-196585771D01*
X197934342Y-196585771D01*
X197791485Y-196514342D01*
X197720057Y-196371485D01*
X197720057Y-196228628D01*
X197791485Y-196085771D01*
X197934342Y-196014342D01*
X198291485Y-196014342D01*
X198434342Y-195942914D01*
X199791485Y-196585771D02*
X199791485Y-195085771D01*
X199791485Y-196514342D02*
X199648628Y-196585771D01*
X199362914Y-196585771D01*
X199220057Y-196514342D01*
X199148628Y-196442914D01*
X199077200Y-196300057D01*
X199077200Y-195871485D01*
X199148628Y-195728628D01*
X199220057Y-195657200D01*
X199362914Y-195585771D01*
X199648628Y-195585771D01*
X199791485Y-195657200D01*
X202362914Y-195085771D02*
X201648628Y-195085771D01*
X201577200Y-195800057D01*
X201648628Y-195728628D01*
X201791485Y-195657200D01*
X202148628Y-195657200D01*
X202291485Y-195728628D01*
X202362914Y-195800057D01*
X202434342Y-195942914D01*
X202434342Y-196300057D01*
X202362914Y-196442914D01*
X202291485Y-196514342D01*
X202148628Y-196585771D01*
X201791485Y-196585771D01*
X201648628Y-196514342D01*
X201577200Y-196442914D01*
X203077200Y-196442914D02*
X203148628Y-196514342D01*
X203077200Y-196585771D01*
X203005771Y-196514342D01*
X203077200Y-196442914D01*
X203077200Y-196585771D01*
X204077200Y-195085771D02*
X204220057Y-195085771D01*
X204362914Y-195157200D01*
X204434342Y-195228628D01*
X204505771Y-195371485D01*
X204577200Y-195657200D01*
X204577200Y-196014342D01*
X204505771Y-196300057D01*
X204434342Y-196442914D01*
X204362914Y-196514342D01*
X204220057Y-196585771D01*
X204077200Y-196585771D01*
X203934342Y-196514342D01*
X203862914Y-196442914D01*
X203791485Y-196300057D01*
X203720057Y-196014342D01*
X203720057Y-195657200D01*
X203791485Y-195371485D01*
X203862914Y-195228628D01*
X203934342Y-195157200D01*
X204077200Y-195085771D01*
X205220057Y-196442914D02*
X205291485Y-196514342D01*
X205220057Y-196585771D01*
X205148628Y-196514342D01*
X205220057Y-196442914D01*
X205220057Y-196585771D01*
X206720057Y-196585771D02*
X205862914Y-196585771D01*
X206291485Y-196585771D02*
X206291485Y-195085771D01*
X206148628Y-195300057D01*
X206005771Y-195442914D01*
X205862914Y-195514342D01*
X207362914Y-196014342D02*
X208505771Y-196014342D01*
X209077200Y-195085771D02*
X210005771Y-195085771D01*
X209505771Y-195657200D01*
X209720057Y-195657200D01*
X209862914Y-195728628D01*
X209934342Y-195800057D01*
X210005771Y-195942914D01*
X210005771Y-196300057D01*
X209934342Y-196442914D01*
X209862914Y-196514342D01*
X209720057Y-196585771D01*
X209291485Y-196585771D01*
X209148628Y-196514342D01*
X209077200Y-196442914D01*
X210505771Y-195085771D02*
X211434342Y-195085771D01*
X210934342Y-195657200D01*
X211148628Y-195657200D01*
X211291485Y-195728628D01*
X211362914Y-195800057D01*
X211434342Y-195942914D01*
X211434342Y-196300057D01*
X211362914Y-196442914D01*
X211291485Y-196514342D01*
X211148628Y-196585771D01*
X210720057Y-196585771D01*
X210577200Y-196514342D01*
X210505771Y-196442914D01*
X212720057Y-196514342D02*
X212577200Y-196585771D01*
X212291485Y-196585771D01*
X212148628Y-196514342D01*
X212077200Y-196442914D01*
X212005771Y-196300057D01*
X212005771Y-195871485D01*
X212077200Y-195728628D01*
X212148628Y-195657200D01*
X212291485Y-195585771D01*
X212577200Y-195585771D01*
X212720057Y-195657200D01*
X213934342Y-196514342D02*
X213791485Y-196585771D01*
X213505771Y-196585771D01*
X213362914Y-196514342D01*
X213291485Y-196371485D01*
X213291485Y-195800057D01*
X213362914Y-195657200D01*
X213505771Y-195585771D01*
X213791485Y-195585771D01*
X213934342Y-195657200D01*
X214005771Y-195800057D01*
X214005771Y-195942914D01*
X213291485Y-196085771D01*
X215291485Y-196585771D02*
X215291485Y-195800057D01*
X215220057Y-195657200D01*
X215077200Y-195585771D01*
X214791485Y-195585771D01*
X214648628Y-195657200D01*
X215291485Y-196514342D02*
X215148628Y-196585771D01*
X214791485Y-196585771D01*
X214648628Y-196514342D01*
X214577200Y-196371485D01*
X214577200Y-196228628D01*
X214648628Y-196085771D01*
X214791485Y-196014342D01*
X215148628Y-196014342D01*
X215291485Y-195942914D01*
X216220057Y-195728628D02*
X216077200Y-195657200D01*
X216005771Y-195585771D01*
X215934342Y-195442914D01*
X215934342Y-195371485D01*
X216005771Y-195228628D01*
X216077200Y-195157200D01*
X216220057Y-195085771D01*
X216505771Y-195085771D01*
X216648628Y-195157200D01*
X216720057Y-195228628D01*
X216791485Y-195371485D01*
X216791485Y-195442914D01*
X216720057Y-195585771D01*
X216648628Y-195657200D01*
X216505771Y-195728628D01*
X216220057Y-195728628D01*
X216077200Y-195800057D01*
X216005771Y-195871485D01*
X215934342Y-196014342D01*
X215934342Y-196300057D01*
X216005771Y-196442914D01*
X216077200Y-196514342D01*
X216220057Y-196585771D01*
X216505771Y-196585771D01*
X216648628Y-196514342D01*
X216720057Y-196442914D01*
X216791485Y-196300057D01*
X216791485Y-196014342D01*
X216720057Y-195871485D01*
X216648628Y-195800057D01*
X216505771Y-195728628D01*
X218005771Y-196514342D02*
X217862914Y-196585771D01*
X217577200Y-196585771D01*
X217434342Y-196514342D01*
X217362914Y-196371485D01*
X217362914Y-195800057D01*
X217434342Y-195657200D01*
X217577200Y-195585771D01*
X217862914Y-195585771D01*
X218005771Y-195657200D01*
X218077200Y-195800057D01*
X218077200Y-195942914D01*
X217362914Y-196085771D01*
X218362914Y-194677200D02*
X219791485Y-194677200D01*
X219362914Y-195085771D02*
X219077200Y-195085771D01*
X218934342Y-195157200D01*
X218862914Y-195228628D01*
X218720057Y-195442914D01*
X218648628Y-195728628D01*
X218648628Y-196300057D01*
X218720057Y-196442914D01*
X218791485Y-196514342D01*
X218934342Y-196585771D01*
X219220057Y-196585771D01*
X219362914Y-196514342D01*
X219434342Y-196442914D01*
X219505771Y-196300057D01*
X219505771Y-195942914D01*
X219434342Y-195800057D01*
X219362914Y-195728628D01*
X219220057Y-195657200D01*
X218934342Y-195657200D01*
X218791485Y-195728628D01*
X218720057Y-195800057D01*
X218648628Y-195942914D01*
X219791485Y-194677200D02*
X221220057Y-194677200D01*
X220362914Y-195728628D02*
X220220057Y-195657200D01*
X220148628Y-195585771D01*
X220077200Y-195442914D01*
X220077200Y-195371485D01*
X220148628Y-195228628D01*
X220220057Y-195157200D01*
X220362914Y-195085771D01*
X220648628Y-195085771D01*
X220791485Y-195157200D01*
X220862914Y-195228628D01*
X220934342Y-195371485D01*
X220934342Y-195442914D01*
X220862914Y-195585771D01*
X220791485Y-195657200D01*
X220648628Y-195728628D01*
X220362914Y-195728628D01*
X220220057Y-195800057D01*
X220148628Y-195871485D01*
X220077200Y-196014342D01*
X220077200Y-196300057D01*
X220148628Y-196442914D01*
X220220057Y-196514342D01*
X220362914Y-196585771D01*
X220648628Y-196585771D01*
X220791485Y-196514342D01*
X220862914Y-196442914D01*
X220934342Y-196300057D01*
X220934342Y-196014342D01*
X220862914Y-195871485D01*
X220791485Y-195800057D01*
X220648628Y-195728628D01*
X222220057Y-195585771D02*
X222220057Y-196585771D01*
X221577200Y-195585771D02*
X221577200Y-196371485D01*
X221648628Y-196514342D01*
X221791485Y-196585771D01*
X222005771Y-196585771D01*
X222148628Y-196514342D01*
X222220057Y-196442914D01*
X222934342Y-196585771D02*
X222934342Y-195085771D01*
X222934342Y-195657200D02*
X223077200Y-195585771D01*
X223362914Y-195585771D01*
X223505771Y-195657200D01*
X223577200Y-195728628D01*
X223648628Y-195871485D01*
X223648628Y-196300057D01*
X223577200Y-196442914D01*
X223505771Y-196514342D01*
X223362914Y-196585771D01*
X223077200Y-196585771D01*
X222934342Y-196514342D01*
X224934342Y-195585771D02*
X224934342Y-196585771D01*
X224291485Y-195585771D02*
X224291485Y-196371485D01*
X224362914Y-196514342D01*
X224505771Y-196585771D01*
X224720057Y-196585771D01*
X224862914Y-196514342D01*
X224934342Y-196442914D01*
X225648628Y-195585771D02*
X225648628Y-196585771D01*
X225648628Y-195728628D02*
X225720057Y-195657200D01*
X225862914Y-195585771D01*
X226077200Y-195585771D01*
X226220057Y-195657200D01*
X226291485Y-195800057D01*
X226291485Y-196585771D01*
X226791485Y-195585771D02*
X227362914Y-195585771D01*
X227005771Y-195085771D02*
X227005771Y-196371485D01*
X227077200Y-196514342D01*
X227220057Y-196585771D01*
X227362914Y-196585771D01*
X228505771Y-195585771D02*
X228505771Y-196585771D01*
X227862914Y-195585771D02*
X227862914Y-196371485D01*
X227934342Y-196514342D01*
X228077200Y-196585771D01*
X228291485Y-196585771D01*
X228434342Y-196514342D01*
X228505771Y-196442914D01*
X230005771Y-196585771D02*
X229148628Y-196585771D01*
X229577200Y-196585771D02*
X229577200Y-195085771D01*
X229434342Y-195300057D01*
X229291485Y-195442914D01*
X229148628Y-195514342D01*
X231291485Y-195085771D02*
X231005771Y-195085771D01*
X230862914Y-195157200D01*
X230791485Y-195228628D01*
X230648628Y-195442914D01*
X230577200Y-195728628D01*
X230577200Y-196300057D01*
X230648628Y-196442914D01*
X230720057Y-196514342D01*
X230862914Y-196585771D01*
X231148628Y-196585771D01*
X231291485Y-196514342D01*
X231362914Y-196442914D01*
X231434342Y-196300057D01*
X231434342Y-195942914D01*
X231362914Y-195800057D01*
X231291485Y-195728628D01*
X231148628Y-195657200D01*
X230862914Y-195657200D01*
X230720057Y-195728628D01*
X230648628Y-195800057D01*
X230577200Y-195942914D01*
X232077200Y-196442914D02*
X232148628Y-196514342D01*
X232077200Y-196585771D01*
X232005771Y-196514342D01*
X232077200Y-196442914D01*
X232077200Y-196585771D01*
X233077200Y-195085771D02*
X233220057Y-195085771D01*
X233362914Y-195157200D01*
X233434342Y-195228628D01*
X233505771Y-195371485D01*
X233577200Y-195657200D01*
X233577200Y-196014342D01*
X233505771Y-196300057D01*
X233434342Y-196442914D01*
X233362914Y-196514342D01*
X233220057Y-196585771D01*
X233077200Y-196585771D01*
X232934342Y-196514342D01*
X232862914Y-196442914D01*
X232791485Y-196300057D01*
X232720057Y-196014342D01*
X232720057Y-195657200D01*
X232791485Y-195371485D01*
X232862914Y-195228628D01*
X232934342Y-195157200D01*
X233077200Y-195085771D01*
X234862914Y-195585771D02*
X234862914Y-196585771D01*
X234505771Y-195014342D02*
X234148628Y-196085771D01*
X235077200Y-196085771D01*
X235648628Y-196442914D02*
X235720057Y-196514342D01*
X235648628Y-196585771D01*
X235577199Y-196514342D01*
X235648628Y-196442914D01*
X235648628Y-196585771D01*
X237148628Y-196585771D02*
X236291485Y-196585771D01*
X236720057Y-196585771D02*
X236720057Y-195085771D01*
X236577200Y-195300057D01*
X236434342Y-195442914D01*
X236291485Y-195514342D01*
D10*
D11*
X177002200Y-191507200D02*
X285002200Y-191507200D01*
D10*
D12*
X264411485Y-193785771D02*
X263911485Y-193071485D01*
X263554342Y-193785771D02*
X263554342Y-192285771D01*
X264125771Y-192285771D01*
X264268628Y-192357200D01*
X264340057Y-192428628D01*
X264411485Y-192571485D01*
X264411485Y-192785771D01*
X264340057Y-192928628D01*
X264268628Y-193000057D01*
X264125771Y-193071485D01*
X263554342Y-193071485D01*
X265625771Y-193714342D02*
X265482914Y-193785771D01*
X265197200Y-193785771D01*
X265054342Y-193714342D01*
X264982914Y-193571485D01*
X264982914Y-193000057D01*
X265054342Y-192857200D01*
X265197200Y-192785771D01*
X265482914Y-192785771D01*
X265625771Y-192857200D01*
X265697200Y-193000057D01*
X265697200Y-193142914D01*
X264982914Y-193285771D01*
X266197200Y-192785771D02*
X266554342Y-193785771D01*
X266911485Y-192785771D01*
X267482914Y-193642914D02*
X267554342Y-193714342D01*
X267482914Y-193785771D01*
X267411485Y-193714342D01*
X267482914Y-193642914D01*
X267482914Y-193785771D01*
X267482914Y-192857200D02*
X267554342Y-192928628D01*
X267482914Y-193000057D01*
X267411485Y-192928628D01*
X267482914Y-192857200D01*
X267482914Y-193000057D01*
D10*
D11*
X178362914Y-193714342D02*
X178577200Y-193785771D01*
X178934342Y-193785771D01*
X179077200Y-193714342D01*
X179148628Y-193642914D01*
X179220057Y-193500057D01*
X179220057Y-193357200D01*
X179148628Y-193214342D01*
X179077200Y-193142914D01*
X178934342Y-193071485D01*
X178648628Y-193000057D01*
X178505771Y-192928628D01*
X178434342Y-192857200D01*
X178362914Y-192714342D01*
X178362914Y-192571485D01*
X178434342Y-192428628D01*
X178505771Y-192357200D01*
X178648628Y-192285771D01*
X179005771Y-192285771D01*
X179220057Y-192357200D01*
X179862914Y-193785771D02*
X179862914Y-192785771D01*
X179862914Y-192285771D02*
X179791485Y-192357200D01*
X179862914Y-192428628D01*
X179934342Y-192357200D01*
X179862914Y-192285771D01*
X179862914Y-192428628D01*
X180434342Y-192785771D02*
X181220057Y-192785771D01*
X180434342Y-193785771D01*
X181220057Y-193785771D01*
X182362914Y-193714342D02*
X182220057Y-193785771D01*
X181934342Y-193785771D01*
X181791485Y-193714342D01*
X181720057Y-193571485D01*
X181720057Y-193000057D01*
X181791485Y-192857200D01*
X181934342Y-192785771D01*
X182220057Y-192785771D01*
X182362914Y-192857200D01*
X182434342Y-193000057D01*
X182434342Y-193142914D01*
X181720057Y-193285771D01*
X183077200Y-193642914D02*
X183148628Y-193714342D01*
X183077200Y-193785771D01*
X183005771Y-193714342D01*
X183077200Y-193642914D01*
X183077200Y-193785771D01*
X183077200Y-192857200D02*
X183148628Y-192928628D01*
X183077200Y-193000057D01*
X183005771Y-192928628D01*
X183077200Y-192857200D01*
X183077200Y-193000057D01*
X184862914Y-193357200D02*
X185577200Y-193357200D01*
X184720057Y-193785771D02*
X185220057Y-192285771D01*
X185720057Y-193785771D01*
X186862914Y-192785771D02*
X186862914Y-193785771D01*
X186505771Y-192214342D02*
X186148628Y-193285771D01*
X187077200Y-193285771D01*
D10*
D11*
X263434342Y-196585771D02*
X263434342Y-195085771D01*
X264791485Y-196585771D02*
X264791485Y-195085771D01*
X264791485Y-196514342D02*
X264648628Y-196585771D01*
X264362914Y-196585771D01*
X264220057Y-196514342D01*
X264148628Y-196442914D01*
X264077200Y-196300057D01*
X264077200Y-195871485D01*
X264148628Y-195728628D01*
X264220057Y-195657200D01*
X264362914Y-195585771D01*
X264648628Y-195585771D01*
X264791485Y-195657200D01*
X265505771Y-196442914D02*
X265577200Y-196514342D01*
X265505771Y-196585771D01*
X265434342Y-196514342D01*
X265505771Y-196442914D01*
X265505771Y-196585771D01*
X265505771Y-195657200D02*
X265577200Y-195728628D01*
X265505771Y-195800057D01*
X265434342Y-195728628D01*
X265505771Y-195657200D01*
X265505771Y-195800057D01*
X268148628Y-196585771D02*
X267291485Y-196585771D01*
X267720057Y-196585771D02*
X267720057Y-195085771D01*
X267577200Y-195300057D01*
X267434342Y-195442914D01*
X267291485Y-195514342D01*
X269862914Y-195014342D02*
X268577200Y-196942914D01*
X271148628Y-196585771D02*
X270291485Y-196585771D01*
X270720057Y-196585771D02*
X270720057Y-195085771D01*
X270577200Y-195300057D01*
X270434342Y-195442914D01*
X270291485Y-195514342D01*
D10*
D11*
X177002200Y-187507200D02*
X285002200Y-187507200D01*
D10*
D13*
X178714580Y-188211961D02*
X179857438Y-188211961D01*
X179036009Y-190211961D02*
X179286009Y-188211961D01*
X180274104Y-190211961D02*
X180440771Y-188878628D01*
X180524104Y-188211961D02*
X180416961Y-188307200D01*
X180500295Y-188402438D01*
X180607438Y-188307200D01*
X180524104Y-188211961D01*
X180500295Y-188402438D01*
X181107438Y-188878628D02*
X181869342Y-188878628D01*
X181476485Y-188211961D02*
X181262200Y-189926247D01*
X181333628Y-190116723D01*
X181512200Y-190211961D01*
X181702676Y-190211961D01*
X182655057Y-190211961D02*
X182476485Y-190116723D01*
X182405057Y-189926247D01*
X182619342Y-188211961D01*
X184190771Y-190116723D02*
X183988390Y-190211961D01*
X183607438Y-190211961D01*
X183428866Y-190116723D01*
X183357438Y-189926247D01*
X183452676Y-189164342D01*
X183571723Y-188973866D01*
X183774104Y-188878628D01*
X184155057Y-188878628D01*
X184333628Y-188973866D01*
X184405057Y-189164342D01*
X184381247Y-189354819D01*
X183405057Y-189545295D01*
X185155057Y-190021485D02*
X185238390Y-190116723D01*
X185131247Y-190211961D01*
X185047914Y-190116723D01*
X185155057Y-190021485D01*
X185131247Y-190211961D01*
X185286009Y-188973866D02*
X185369342Y-189069104D01*
X185262200Y-189164342D01*
X185178866Y-189069104D01*
X185286009Y-188973866D01*
X185262200Y-189164342D01*
D10*
D11*
X178934342Y-185600057D02*
X178434342Y-185600057D01*
X178434342Y-186385771D02*
X178434342Y-184885771D01*
X179148628Y-184885771D01*
X179720057Y-186385771D02*
X179720057Y-185385771D01*
X179720057Y-184885771D02*
X179648628Y-184957200D01*
X179720057Y-185028628D01*
X179791485Y-184957200D01*
X179720057Y-184885771D01*
X179720057Y-185028628D01*
X180648628Y-186385771D02*
X180505771Y-186314342D01*
X180434342Y-186171485D01*
X180434342Y-184885771D01*
X181791485Y-186314342D02*
X181648628Y-186385771D01*
X181362914Y-186385771D01*
X181220057Y-186314342D01*
X181148628Y-186171485D01*
X181148628Y-185600057D01*
X181220057Y-185457200D01*
X181362914Y-185385771D01*
X181648628Y-185385771D01*
X181791485Y-185457200D01*
X181862914Y-185600057D01*
X181862914Y-185742914D01*
X181148628Y-185885771D01*
X182505771Y-186242914D02*
X182577200Y-186314342D01*
X182505771Y-186385771D01*
X182434342Y-186314342D01*
X182505771Y-186242914D01*
X182505771Y-186385771D01*
X182505771Y-185457200D02*
X182577200Y-185528628D01*
X182505771Y-185600057D01*
X182434342Y-185528628D01*
X182505771Y-185457200D01*
X182505771Y-185600057D01*
X184362914Y-186385771D02*
X184362914Y-184885771D01*
X184862914Y-185957200D01*
X185362914Y-184885771D01*
X185362914Y-186385771D01*
X186005771Y-185957200D02*
X186720057Y-185957200D01*
X185862914Y-186385771D02*
X186362914Y-184885771D01*
X186862914Y-186385771D01*
X187220057Y-184885771D02*
X188220057Y-186385771D01*
X188220057Y-184885771D02*
X187220057Y-186385771D01*
X188648628Y-184885771D02*
X189577200Y-184885771D01*
X189077200Y-185457200D01*
X189291485Y-185457200D01*
X189434342Y-185528628D01*
X189505771Y-185600057D01*
X189577200Y-185742914D01*
X189577200Y-186100057D01*
X189505771Y-186242914D01*
X189434342Y-186314342D01*
X189291485Y-186385771D01*
X188862914Y-186385771D01*
X188720057Y-186314342D01*
X188648628Y-186242914D01*
X191005771Y-186385771D02*
X190148628Y-186385771D01*
X190577200Y-186385771D02*
X190577200Y-184885771D01*
X190434342Y-185100057D01*
X190291485Y-185242914D01*
X190148628Y-185314342D01*
X191862914Y-185528628D02*
X191720057Y-185457200D01*
X191648628Y-185385771D01*
X191577200Y-185242914D01*
X191577200Y-185171485D01*
X191648628Y-185028628D01*
X191720057Y-184957200D01*
X191862914Y-184885771D01*
X192148628Y-184885771D01*
X192291485Y-184957200D01*
X192362914Y-185028628D01*
X192434342Y-185171485D01*
X192434342Y-185242914D01*
X192362914Y-185385771D01*
X192291485Y-185457200D01*
X192148628Y-185528628D01*
X191862914Y-185528628D01*
X191720057Y-185600057D01*
X191648628Y-185671485D01*
X191577200Y-185814342D01*
X191577200Y-186100057D01*
X191648628Y-186242914D01*
X191720057Y-186314342D01*
X191862914Y-186385771D01*
X192148628Y-186385771D01*
X192291485Y-186314342D01*
X192362914Y-186242914D01*
X192434342Y-186100057D01*
X192434342Y-185814342D01*
X192362914Y-185671485D01*
X192291485Y-185600057D01*
X192148628Y-185528628D01*
X193720057Y-184885771D02*
X193434342Y-184885771D01*
X193291485Y-184957200D01*
X193220057Y-185028628D01*
X193077200Y-185242914D01*
X193005771Y-185528628D01*
X193005771Y-186100057D01*
X193077200Y-186242914D01*
X193148628Y-186314342D01*
X193291485Y-186385771D01*
X193577200Y-186385771D01*
X193720057Y-186314342D01*
X193791485Y-186242914D01*
X193862914Y-186100057D01*
X193862914Y-185742914D01*
X193791485Y-185600057D01*
X193720057Y-185528628D01*
X193577200Y-185457200D01*
X193291485Y-185457200D01*
X193148628Y-185528628D01*
X193077200Y-185600057D01*
X193005771Y-185742914D01*
X195220057Y-184885771D02*
X194505771Y-184885771D01*
X194434342Y-185600057D01*
X194505771Y-185528628D01*
X194648628Y-185457200D01*
X195005771Y-185457200D01*
X195148628Y-185528628D01*
X195220057Y-185600057D01*
X195291485Y-185742914D01*
X195291485Y-186100057D01*
X195220057Y-186242914D01*
X195148628Y-186314342D01*
X195005771Y-186385771D01*
X194648628Y-186385771D01*
X194505771Y-186314342D01*
X194434342Y-186242914D01*
X195577200Y-186528628D02*
X196720057Y-186528628D01*
X196934342Y-186385771D02*
X197720057Y-185385771D01*
X196934342Y-185385771D02*
X197720057Y-186385771D01*
X199077200Y-186385771D02*
X198220057Y-186385771D01*
X198648628Y-186385771D02*
X198648628Y-184885771D01*
X198505771Y-185100057D01*
X198362914Y-185242914D01*
X198220057Y-185314342D01*
X200005771Y-184885771D02*
X200148628Y-184885771D01*
X200291485Y-184957200D01*
X200362914Y-185028628D01*
X200434342Y-185171485D01*
X200505771Y-185457200D01*
X200505771Y-185814342D01*
X200434342Y-186100057D01*
X200362914Y-186242914D01*
X200291485Y-186314342D01*
X200148628Y-186385771D01*
X200005771Y-186385771D01*
X199862914Y-186314342D01*
X199791485Y-186242914D01*
X199720057Y-186100057D01*
X199648628Y-185814342D01*
X199648628Y-185457200D01*
X199720057Y-185171485D01*
X199791485Y-185028628D01*
X199862914Y-184957200D01*
X200005771Y-184885771D01*
X200791485Y-186528628D02*
X201934342Y-186528628D01*
X202291485Y-186385771D02*
X202291485Y-184885771D01*
X202862914Y-184885771D01*
X203005771Y-184957200D01*
X203077200Y-185028628D01*
X203148628Y-185171485D01*
X203148628Y-185385771D01*
X203077200Y-185528628D01*
X203005771Y-185600057D01*
X202862914Y-185671485D01*
X202291485Y-185671485D01*
X204648628Y-186242914D02*
X204577200Y-186314342D01*
X204362914Y-186385771D01*
X204220057Y-186385771D01*
X204005771Y-186314342D01*
X203862914Y-186171485D01*
X203791485Y-186028628D01*
X203720057Y-185742914D01*
X203720057Y-185528628D01*
X203791485Y-185242914D01*
X203862914Y-185100057D01*
X204005771Y-184957200D01*
X204220057Y-184885771D01*
X204362914Y-184885771D01*
X204577200Y-184957200D01*
X204648628Y-185028628D01*
X205791485Y-185600057D02*
X206005771Y-185671485D01*
X206077200Y-185742914D01*
X206148628Y-185885771D01*
X206148628Y-186100057D01*
X206077200Y-186242914D01*
X206005771Y-186314342D01*
X205862914Y-186385771D01*
X205291485Y-186385771D01*
X205291485Y-184885771D01*
X205791485Y-184885771D01*
X205934342Y-184957200D01*
X206005771Y-185028628D01*
X206077200Y-185171485D01*
X206077200Y-185314342D01*
X206005771Y-185457200D01*
X205934342Y-185528628D01*
X205791485Y-185600057D01*
X205291485Y-185600057D01*
X206791485Y-186242914D02*
X206862914Y-186314342D01*
X206791485Y-186385771D01*
X206720057Y-186314342D01*
X206791485Y-186242914D01*
X206791485Y-186385771D01*
X207505771Y-186385771D02*
X207505771Y-184885771D01*
X207648628Y-185814342D02*
X208077200Y-186385771D01*
X208077200Y-185385771D02*
X207505771Y-185957200D01*
X208720057Y-186385771D02*
X208720057Y-185385771D01*
X208720057Y-184885771D02*
X208648628Y-184957200D01*
X208720057Y-185028628D01*
X208791485Y-184957200D01*
X208720057Y-184885771D01*
X208720057Y-185028628D01*
X210077200Y-186314342D02*
X209934342Y-186385771D01*
X209648628Y-186385771D01*
X209505771Y-186314342D01*
X209434342Y-186242914D01*
X209362914Y-186100057D01*
X209362914Y-185671485D01*
X209434342Y-185528628D01*
X209505771Y-185457200D01*
X209648628Y-185385771D01*
X209934342Y-185385771D01*
X210077200Y-185457200D01*
X211362914Y-186385771D02*
X211362914Y-185600057D01*
X211291485Y-185457200D01*
X211148628Y-185385771D01*
X210862914Y-185385771D01*
X210720057Y-185457200D01*
X211362914Y-186314342D02*
X211220057Y-186385771D01*
X210862914Y-186385771D01*
X210720057Y-186314342D01*
X210648628Y-186171485D01*
X210648628Y-186028628D01*
X210720057Y-185885771D01*
X210862914Y-185814342D01*
X211220057Y-185814342D01*
X211362914Y-185742914D01*
X212720057Y-186385771D02*
X212720057Y-184885771D01*
X212720057Y-186314342D02*
X212577200Y-186385771D01*
X212291485Y-186385771D01*
X212148628Y-186314342D01*
X212077200Y-186242914D01*
X212005771Y-186100057D01*
X212005771Y-185671485D01*
X212077200Y-185528628D01*
X212148628Y-185457200D01*
X212291485Y-185385771D01*
X212577200Y-185385771D01*
X212720057Y-185457200D01*
X213077200Y-186528628D02*
X214220057Y-186528628D01*
X214577200Y-185385771D02*
X214577200Y-186885771D01*
X214577200Y-185457200D02*
X214720057Y-185385771D01*
X215005771Y-185385771D01*
X215148628Y-185457200D01*
X215220057Y-185528628D01*
X215291485Y-185671485D01*
X215291485Y-186100057D01*
X215220057Y-186242914D01*
X215148628Y-186314342D01*
X215005771Y-186385771D01*
X214720057Y-186385771D01*
X214577200Y-186314342D01*
X216577200Y-186314342D02*
X216434342Y-186385771D01*
X216148628Y-186385771D01*
X216005771Y-186314342D01*
X215934342Y-186242914D01*
X215862914Y-186100057D01*
X215862914Y-185671485D01*
X215934342Y-185528628D01*
X216005771Y-185457200D01*
X216148628Y-185385771D01*
X216434342Y-185385771D01*
X216577200Y-185457200D01*
X217220057Y-186385771D02*
X217220057Y-184885771D01*
X217220057Y-185457200D02*
X217362914Y-185385771D01*
X217648628Y-185385771D01*
X217791485Y-185457200D01*
X217862914Y-185528628D01*
X217934342Y-185671485D01*
X217934342Y-186100057D01*
X217862914Y-186242914D01*
X217791485Y-186314342D01*
X217648628Y-186385771D01*
X217362914Y-186385771D01*
X217220057Y-186314342D01*
D10*
D11*
X177002200Y-181507200D02*
X285002200Y-181507200D01*
D10*
D11*
X178362914Y-183614342D02*
X178577200Y-183685771D01*
X178934342Y-183685771D01*
X179077200Y-183614342D01*
X179148628Y-183542914D01*
X179220057Y-183400057D01*
X179220057Y-183257200D01*
X179148628Y-183114342D01*
X179077200Y-183042914D01*
X178934342Y-182971485D01*
X178648628Y-182900057D01*
X178505771Y-182828628D01*
X178434342Y-182757200D01*
X178362914Y-182614342D01*
X178362914Y-182471485D01*
X178434342Y-182328628D01*
X178505771Y-182257200D01*
X178648628Y-182185771D01*
X179005771Y-182185771D01*
X179220057Y-182257200D01*
X179862914Y-183685771D02*
X179862914Y-182185771D01*
X180505771Y-183685771D02*
X180505771Y-182900057D01*
X180434342Y-182757200D01*
X180291485Y-182685771D01*
X180077200Y-182685771D01*
X179934342Y-182757200D01*
X179862914Y-182828628D01*
X181791485Y-183614342D02*
X181648628Y-183685771D01*
X181362914Y-183685771D01*
X181220057Y-183614342D01*
X181148628Y-183471485D01*
X181148628Y-182900057D01*
X181220057Y-182757200D01*
X181362914Y-182685771D01*
X181648628Y-182685771D01*
X181791485Y-182757200D01*
X181862914Y-182900057D01*
X181862914Y-183042914D01*
X181148628Y-183185771D01*
X183077200Y-183614342D02*
X182934342Y-183685771D01*
X182648628Y-183685771D01*
X182505771Y-183614342D01*
X182434342Y-183471485D01*
X182434342Y-182900057D01*
X182505771Y-182757200D01*
X182648628Y-182685771D01*
X182934342Y-182685771D01*
X183077200Y-182757200D01*
X183148628Y-182900057D01*
X183148628Y-183042914D01*
X182434342Y-183185771D01*
X183577200Y-182685771D02*
X184148628Y-182685771D01*
X183791485Y-182185771D02*
X183791485Y-183471485D01*
X183862914Y-183614342D01*
X184005771Y-183685771D01*
X184148628Y-183685771D01*
X184648628Y-183542914D02*
X184720057Y-183614342D01*
X184648628Y-183685771D01*
X184577200Y-183614342D01*
X184648628Y-183542914D01*
X184648628Y-183685771D01*
X184648628Y-182757200D02*
X184720057Y-182828628D01*
X184648628Y-182900057D01*
X184577200Y-182828628D01*
X184648628Y-182757200D01*
X184648628Y-182900057D01*
D10*
D11*
X197002200Y-191507200D02*
X197002200Y-194507200D01*
D10*
D11*
X261002200Y-191507200D02*
X261002200Y-198007200D01*
D14*
G04 #@! TO.P,J1,1*
G04 #@! TO.N,EXT_3V3*
X34925000Y-46228000D03*
D15*
G04 #@! TO.P,J1,2*
G04 #@! TO.N,EXT_5V*
X37465000Y-46228000D03*
G04 #@! TO.P,J1,3*
G04 #@! TO.N,Net-(J1-Pad3)*
X34925000Y-48768000D03*
G04 #@! TO.P,J1,4*
G04 #@! TO.N,Net-(J1-Pad4)*
X37465000Y-48768000D03*
G04 #@! TO.P,J1,5*
G04 #@! TO.N,Net-(J1-Pad5)*
X34925000Y-51308000D03*
G04 #@! TO.P,J1,6*
G04 #@! TO.N,GND*
X37465000Y-51308000D03*
G04 #@! TO.P,J1,7*
G04 #@! TO.N,Net-(J1-Pad7)*
X34925000Y-53848000D03*
G04 #@! TO.P,J1,8*
G04 #@! TO.N,Net-(J1-Pad8)*
X37465000Y-53848000D03*
G04 #@! TO.P,J1,9*
G04 #@! TO.N,Net-(J1-Pad9)*
X34925000Y-56388000D03*
G04 #@! TO.P,J1,10*
G04 #@! TO.N,Net-(J1-Pad10)*
X37465000Y-56388000D03*
G04 #@! TO.P,J1,11*
G04 #@! TO.N,Net-(J1-Pad11)*
X34925000Y-58928000D03*
G04 #@! TO.P,J1,12*
G04 #@! TO.N,CS9_5V*
X37465000Y-58928000D03*
G04 #@! TO.P,J1,13*
G04 #@! TO.N,Net-(J1-Pad13)*
X34925000Y-61468000D03*
G04 #@! TO.P,J1,14*
G04 #@! TO.N,Net-(J1-Pad14)*
X37465000Y-61468000D03*
G04 #@! TO.P,J1,15*
G04 #@! TO.N,RDY*
X34925000Y-64008000D03*
G04 #@! TO.P,J1,16*
G04 #@! TO.N,CS8_5V*
X37465000Y-64008000D03*
G04 #@! TO.P,J1,17*
G04 #@! TO.N,Net-(J1-Pad17)*
X34925000Y-66548000D03*
G04 #@! TO.P,J1,18*
G04 #@! TO.N,CS7_5V*
X37465000Y-66548000D03*
G04 #@! TO.P,J1,19*
G04 #@! TO.N,SDI_5V*
X34925000Y-69088000D03*
G04 #@! TO.P,J1,20*
G04 #@! TO.N,Net-(J1-Pad20)*
X37465000Y-69088000D03*
G04 #@! TO.P,J1,21*
G04 #@! TO.N,SDO*
X34925000Y-71628000D03*
G04 #@! TO.P,J1,22*
G04 #@! TO.N,CS6_5V*
X37465000Y-71628000D03*
G04 #@! TO.P,J1,23*
G04 #@! TO.N,CLK_5V*
X34925000Y-74168000D03*
G04 #@! TO.P,J1,24*
G04 #@! TO.N,CS5_5V*
X37465000Y-74168000D03*
G04 #@! TO.P,J1,25*
G04 #@! TO.N,Net-(J1-Pad25)*
X34925000Y-76708000D03*
G04 #@! TO.P,J1,26*
G04 #@! TO.N,CS4_5V*
X37465000Y-76708000D03*
G04 #@! TO.P,J1,27*
G04 #@! TO.N,Net-(J1-Pad27)*
X34925000Y-79248000D03*
G04 #@! TO.P,J1,28*
G04 #@! TO.N,Net-(J1-Pad28)*
X37465000Y-79248000D03*
G04 #@! TO.P,J1,29*
G04 #@! TO.N,Net-(J1-Pad29)*
X34925000Y-81788000D03*
G04 #@! TO.P,J1,30*
G04 #@! TO.N,Net-(J1-Pad30)*
X37465000Y-81788000D03*
G04 #@! TO.P,J1,31*
G04 #@! TO.N,Net-(J1-Pad31)*
X34925000Y-84328000D03*
G04 #@! TO.P,J1,32*
G04 #@! TO.N,CS3_5V*
X37465000Y-84328000D03*
G04 #@! TO.P,J1,33*
G04 #@! TO.N,Net-(J1-Pad33)*
X34925000Y-86868000D03*
G04 #@! TO.P,J1,34*
G04 #@! TO.N,Net-(J1-Pad34)*
X37465000Y-86868000D03*
G04 #@! TO.P,J1,35*
G04 #@! TO.N,Net-(J1-Pad35)*
X34925000Y-89408000D03*
G04 #@! TO.P,J1,36*
G04 #@! TO.N,CS2_5V*
X37465000Y-89408000D03*
G04 #@! TO.P,J1,37*
G04 #@! TO.N,Net-(J1-Pad37)*
X34925000Y-91948000D03*
G04 #@! TO.P,J1,38*
G04 #@! TO.N,CS1_5V*
X37465000Y-91948000D03*
G04 #@! TO.P,J1,39*
G04 #@! TO.N,Net-(J1-Pad39)*
X34925000Y-94488000D03*
G04 #@! TO.P,J1,40*
G04 #@! TO.N,CS0_5V*
X37465000Y-94488000D03*
G04 #@! TD*
D16*
G04 #@! TO.P,J2,1*
G04 #@! TO.N,Net-(J2-Pad1)*
X47737000Y-92075000D03*
D17*
G04 #@! TO.P,J2,2*
G04 #@! TO.N,Net-(C5-Pad1)*
X51237000Y-92075000D03*
G04 #@! TO.P,J2,3*
G04 #@! TO.N,Net-(C5-Pad2)*
X54737000Y-92075000D03*
G04 #@! TO.P,J2,4*
G04 #@! TO.N,Net-(J2-Pad4)*
X58237000Y-92075000D03*
G04 #@! TD*
G04 #@! TO.P,J3,4*
G04 #@! TO.N,Net-(J3-Pad4)*
X76017000Y-92075000D03*
G04 #@! TO.P,J3,3*
G04 #@! TO.N,Net-(C8-Pad2)*
X72517000Y-92075000D03*
G04 #@! TO.P,J3,2*
G04 #@! TO.N,Net-(C8-Pad1)*
X69017000Y-92075000D03*
D16*
G04 #@! TO.P,J3,1*
G04 #@! TO.N,Net-(J3-Pad1)*
X65517000Y-92075000D03*
G04 #@! TD*
G04 #@! TO.P,J4,1*
G04 #@! TO.N,Net-(J4-Pad1)*
X83297000Y-92075000D03*
D17*
G04 #@! TO.P,J4,2*
G04 #@! TO.N,Net-(C11-Pad1)*
X86797000Y-92075000D03*
G04 #@! TO.P,J4,3*
G04 #@! TO.N,Net-(C11-Pad2)*
X90297000Y-92075000D03*
G04 #@! TO.P,J4,4*
G04 #@! TO.N,Net-(J4-Pad4)*
X93797000Y-92075000D03*
G04 #@! TD*
G04 #@! TO.P,J5,4*
G04 #@! TO.N,Net-(J5-Pad4)*
X111577000Y-92075000D03*
G04 #@! TO.P,J5,3*
G04 #@! TO.N,Net-(C14-Pad2)*
X108077000Y-92075000D03*
G04 #@! TO.P,J5,2*
G04 #@! TO.N,Net-(C14-Pad1)*
X104577000Y-92075000D03*
D16*
G04 #@! TO.P,J5,1*
G04 #@! TO.N,Net-(J5-Pad1)*
X101077000Y-92075000D03*
G04 #@! TD*
G04 #@! TO.P,J6,1*
G04 #@! TO.N,Net-(J6-Pad1)*
X118857000Y-92075000D03*
D17*
G04 #@! TO.P,J6,2*
G04 #@! TO.N,Net-(C17-Pad1)*
X122357000Y-92075000D03*
G04 #@! TO.P,J6,3*
G04 #@! TO.N,Net-(C17-Pad2)*
X125857000Y-92075000D03*
G04 #@! TO.P,J6,4*
G04 #@! TO.N,Net-(J6-Pad4)*
X129357000Y-92075000D03*
G04 #@! TD*
G04 #@! TO.P,J7,4*
G04 #@! TO.N,Net-(J7-Pad4)*
X147137000Y-92075000D03*
G04 #@! TO.P,J7,3*
G04 #@! TO.N,Net-(C20-Pad2)*
X143637000Y-92075000D03*
G04 #@! TO.P,J7,2*
G04 #@! TO.N,Net-(C20-Pad1)*
X140137000Y-92075000D03*
D16*
G04 #@! TO.P,J7,1*
G04 #@! TO.N,Net-(J7-Pad1)*
X136637000Y-92075000D03*
G04 #@! TD*
D17*
G04 #@! TO.P,J8,4*
G04 #@! TO.N,Net-(J8-Pad4)*
X164917000Y-92075000D03*
G04 #@! TO.P,J8,3*
G04 #@! TO.N,Net-(C23-Pad2)*
X161417000Y-92075000D03*
G04 #@! TO.P,J8,2*
G04 #@! TO.N,Net-(C23-Pad1)*
X157917000Y-92075000D03*
D16*
G04 #@! TO.P,J8,1*
G04 #@! TO.N,Net-(J8-Pad1)*
X154417000Y-92075000D03*
G04 #@! TD*
G04 #@! TO.P,J9,1*
G04 #@! TO.N,Net-(J9-Pad1)*
X172197000Y-92075000D03*
D17*
G04 #@! TO.P,J9,2*
G04 #@! TO.N,Net-(C26-Pad1)*
X175697000Y-92075000D03*
G04 #@! TO.P,J9,3*
G04 #@! TO.N,Net-(C26-Pad2)*
X179197000Y-92075000D03*
G04 #@! TO.P,J9,4*
G04 #@! TO.N,Net-(J9-Pad4)*
X182697000Y-92075000D03*
G04 #@! TD*
D16*
G04 #@! TO.P,J10,1*
G04 #@! TO.N,Net-(J10-Pad1)*
X189977000Y-92075000D03*
D17*
G04 #@! TO.P,J10,2*
G04 #@! TO.N,Net-(C29-Pad1)*
X193477000Y-92075000D03*
G04 #@! TO.P,J10,3*
G04 #@! TO.N,Net-(C29-Pad2)*
X196977000Y-92075000D03*
G04 #@! TO.P,J10,4*
G04 #@! TO.N,Net-(J10-Pad4)*
X200477000Y-92075000D03*
G04 #@! TD*
G04 #@! TO.P,J11,4*
G04 #@! TO.N,Net-(J11-Pad4)*
X218257000Y-92075000D03*
G04 #@! TO.P,J11,3*
G04 #@! TO.N,Net-(C32-Pad2)*
X214757000Y-92075000D03*
G04 #@! TO.P,J11,2*
G04 #@! TO.N,Net-(C32-Pad1)*
X211257000Y-92075000D03*
D16*
G04 #@! TO.P,J11,1*
G04 #@! TO.N,Net-(J11-Pad1)*
X207757000Y-92075000D03*
G04 #@! TD*
D14*
G04 #@! TO.P,JP1,1*
G04 #@! TO.N,VDD*
X53340000Y-47752000D03*
D15*
G04 #@! TO.P,JP1,2*
X55880000Y-47752000D03*
G04 #@! TO.P,JP1,3*
G04 #@! TO.N,EXT_3V3*
X58420000Y-47752000D03*
G04 #@! TD*
D18*
G04 #@! TO.N,GND*
X82169000Y-74930000D03*
X90424000Y-69596000D03*
X99949000Y-74930000D03*
X108204000Y-69596000D03*
X117729000Y-74930000D03*
X125984000Y-69596000D03*
X135509000Y-74930000D03*
X143764000Y-69596000D03*
X153289000Y-74930000D03*
X161544000Y-69596000D03*
X171069000Y-74930000D03*
X179324000Y-69596000D03*
X188849000Y-74930000D03*
X197104000Y-69596000D03*
X206629000Y-74930000D03*
X214884000Y-69596000D03*
X218186000Y-71374000D03*
X216662000Y-72898000D03*
X218186000Y-72898000D03*
X216662000Y-71374000D03*
X200406000Y-71374000D03*
X198882000Y-72898000D03*
X200406000Y-72898000D03*
X198882000Y-71374000D03*
X182626000Y-71374000D03*
X181102000Y-72898000D03*
X182626000Y-72898000D03*
X181102000Y-71374000D03*
X164846000Y-71374000D03*
X163322000Y-72898000D03*
X164846000Y-72898000D03*
X163322000Y-71374000D03*
X147066000Y-71374000D03*
X145542000Y-72898000D03*
X147066000Y-72898000D03*
X145542000Y-71374000D03*
X129286000Y-71374000D03*
X127762000Y-72898000D03*
X129286000Y-72898000D03*
X127762000Y-71374000D03*
X111506000Y-71374000D03*
X109982000Y-72898000D03*
X111506000Y-72898000D03*
X109982000Y-71374000D03*
X93726000Y-71374000D03*
X92202000Y-72898000D03*
X93726000Y-72898000D03*
X92202000Y-71374000D03*
X74422000Y-72898000D03*
X75946000Y-72898000D03*
X74422000Y-71374000D03*
X75946000Y-71374000D03*
X56642000Y-72898000D03*
X58166000Y-72898000D03*
X64389000Y-74930000D03*
X72644000Y-69596000D03*
X46609000Y-74930000D03*
X54864000Y-69596000D03*
X48641000Y-69215000D03*
X56642000Y-71374000D03*
X58166000Y-71374000D03*
X190500000Y-68580000D03*
X154940000Y-68580000D03*
X119380000Y-68580000D03*
X83820000Y-68580000D03*
X73660000Y-59690000D03*
X109220000Y-59690000D03*
X144780000Y-59690000D03*
X180340000Y-59690000D03*
G04 #@! TO.N,VDD*
X95377000Y-63246000D03*
X88265000Y-63246000D03*
X91821000Y-63246000D03*
X82169000Y-63246000D03*
X113157000Y-63246000D03*
X106045000Y-63246000D03*
X109601000Y-63246000D03*
X99949000Y-63246000D03*
X130937000Y-63246000D03*
X123825000Y-63246000D03*
X127381000Y-63246000D03*
X117729000Y-63246000D03*
X148717000Y-63246000D03*
X141605000Y-63246000D03*
X145161000Y-63246000D03*
X135509000Y-63246000D03*
X166497000Y-63246000D03*
X159385000Y-63246000D03*
X162941000Y-63246000D03*
X153289000Y-63246000D03*
X184277000Y-63246000D03*
X177165000Y-63246000D03*
X180721000Y-63246000D03*
X171069000Y-63246000D03*
X202057000Y-63246000D03*
X194945000Y-63246000D03*
X198501000Y-63246000D03*
X188849000Y-63246000D03*
X219837000Y-63246000D03*
X212725000Y-63246000D03*
X216281000Y-63246000D03*
X206629000Y-63246000D03*
X77597000Y-63246000D03*
X70485000Y-63246000D03*
X74041000Y-63246000D03*
X64389000Y-63246000D03*
X59817000Y-63246000D03*
X52705000Y-63246000D03*
X56261000Y-63246000D03*
X46609000Y-63246000D03*
G04 #@! TO.N,SDI_5V*
X97155000Y-60833000D03*
X97155000Y-42926000D03*
X114935000Y-60833000D03*
X114935000Y-42926000D03*
X132715000Y-60833000D03*
X132715000Y-42926000D03*
X150495000Y-60833000D03*
X150495000Y-42926000D03*
X168275000Y-60833000D03*
X168275000Y-42926000D03*
X186055000Y-60833000D03*
X186055000Y-42926000D03*
X203835000Y-60833000D03*
X203835000Y-42926000D03*
X221615000Y-60833000D03*
X221615000Y-42926000D03*
X79375000Y-42926000D03*
X62484000Y-42926000D03*
X61595000Y-60833000D03*
X79375000Y-60833000D03*
G04 #@! TO.N,CLK_5V*
X95123000Y-60833000D03*
X112903000Y-60833000D03*
X130683000Y-60833000D03*
X148463000Y-60833000D03*
X166243000Y-60833000D03*
X184023000Y-60833000D03*
X201803000Y-60833000D03*
X219583000Y-60833000D03*
X60579000Y-41148000D03*
X59563000Y-60833000D03*
X77343000Y-60833000D03*
X77343000Y-41148000D03*
X95123000Y-41148000D03*
X112903000Y-41148000D03*
X130683000Y-41148000D03*
X166243000Y-41148000D03*
X184023004Y-41148000D03*
X201803000Y-41148000D03*
X219583000Y-41148000D03*
X148463000Y-41148000D03*
G04 #@! TO.N,RDY*
X83820000Y-43815000D03*
X83820000Y-60960000D03*
X101600000Y-43815000D03*
X101600000Y-60960000D03*
X119380000Y-43815000D03*
X119380000Y-60960000D03*
X137160000Y-43815000D03*
X137160000Y-60960000D03*
X154940000Y-43815000D03*
X154940000Y-60960000D03*
X172720000Y-43815000D03*
X172720000Y-60960000D03*
X190500000Y-43815000D03*
X190500000Y-60960000D03*
X208280000Y-43815000D03*
X208280000Y-60960000D03*
X66040000Y-43815000D03*
X66040000Y-60960000D03*
X48260000Y-60960000D03*
X48260000Y-43815000D03*
G04 #@! TO.N,SDO*
X85852000Y-60960000D03*
X85852000Y-42037000D03*
X103632000Y-60960000D03*
X103632000Y-42037000D03*
X121412000Y-60960000D03*
X121412000Y-42037000D03*
X139192000Y-60960000D03*
X139192000Y-42037000D03*
X156972000Y-60960000D03*
X156972000Y-42037000D03*
X174752000Y-60960000D03*
X174752000Y-42037000D03*
X192532000Y-60960000D03*
X192532000Y-42037000D03*
X210312000Y-60960000D03*
X210312000Y-42037000D03*
X68072000Y-60960000D03*
X68072000Y-42037000D03*
X50292000Y-60960000D03*
X50292000Y-42037000D03*
G04 #@! TD*
D19*
G04 #@! TO.N,VDD*
X77597000Y-63246000D02*
X77597000Y-63246000D01*
X70485000Y-63246000D02*
X70485000Y-63246000D01*
G04 #@! TO.N,SDI_5V*
X221615000Y-42926000D02*
X221615000Y-42926000D01*
X221615000Y-42926000D02*
X221615000Y-60833000D01*
X203835000Y-42926000D02*
X203835000Y-42926000D01*
X203835000Y-42926000D02*
X203835000Y-60833000D01*
X186055000Y-42926000D02*
X186055000Y-42926000D01*
X186055000Y-42926000D02*
X186055000Y-60833000D01*
X168275000Y-42926000D02*
X168275000Y-42926000D01*
X168275000Y-42926000D02*
X168275000Y-60833000D01*
X150495000Y-42926000D02*
X150495000Y-42926000D01*
X150495000Y-42926000D02*
X150495000Y-60833000D01*
X132715000Y-42926000D02*
X132715000Y-42926000D01*
X132715000Y-42926000D02*
X132715000Y-60833000D01*
X114935000Y-42926000D02*
X114935000Y-42926000D01*
X114935000Y-42926000D02*
X114935000Y-60833000D01*
X97155000Y-42926000D02*
X97155000Y-42926000D01*
X97155000Y-42926000D02*
X97155000Y-60833000D01*
X79375000Y-42926000D02*
X79375000Y-42926000D01*
X79375000Y-42926000D02*
X79375000Y-60833000D01*
X62484000Y-59944000D02*
X61595000Y-60833000D01*
X62484000Y-42926000D02*
X62484000Y-59944000D01*
G04 #@! TO.N,CLK_5V*
X60579000Y-59817000D02*
X59962999Y-60433001D01*
X60579000Y-41148000D02*
X60579000Y-59817000D01*
X59962999Y-60433001D02*
X59563000Y-60833000D01*
X77343000Y-60833000D02*
X77343000Y-41148000D01*
X95123000Y-60833000D02*
X95123000Y-41148000D01*
X112903000Y-60833000D02*
X112903000Y-41148000D01*
X130683000Y-60833000D02*
X130683000Y-41148000D01*
X166243000Y-60833000D02*
X166243000Y-41148000D01*
X184023000Y-41148004D02*
X184023004Y-41148000D01*
X184023000Y-60833000D02*
X184023000Y-41148004D01*
X201803000Y-60833000D02*
X201803000Y-41148000D01*
X219583000Y-60833000D02*
X219583000Y-41148000D01*
X148463000Y-60833000D02*
X148463000Y-41148000D01*
G04 #@! TO.N,RDY*
X208280000Y-60960000D02*
X208280000Y-43942000D01*
X190500000Y-60960000D02*
X190500000Y-43942000D01*
X172720000Y-60960000D02*
X172720000Y-43942000D01*
X154940000Y-60960000D02*
X154940000Y-43942000D01*
X137160000Y-60960000D02*
X137160000Y-43942000D01*
X119380000Y-60960000D02*
X119380000Y-43942000D01*
X101600000Y-60960000D02*
X101600000Y-43942000D01*
X83820000Y-60960000D02*
X83820000Y-43942000D01*
X66040000Y-60960000D02*
X66040000Y-43942000D01*
X48260000Y-60960000D02*
X48260000Y-43942000D01*
G04 #@! TO.N,SDO*
X210312000Y-60960000D02*
X210312000Y-42037000D01*
X192532000Y-60960000D02*
X192532000Y-42037000D01*
X174752000Y-60960000D02*
X174752000Y-42037000D01*
X156972000Y-60960000D02*
X156972000Y-42037000D01*
X139192000Y-60960000D02*
X139192000Y-42037000D01*
X121412000Y-60960000D02*
X121412000Y-42037000D01*
X103632000Y-60960000D02*
X103632000Y-42037000D01*
X85852000Y-60960000D02*
X85852000Y-42037000D01*
X68072000Y-60960000D02*
X68072000Y-42037000D01*
X50292000Y-60960000D02*
X50292000Y-42037000D01*
G04 #@! TD*
D20*
G04 #@! TO.N,VDD*
G36*
X57150000Y-47591040D02*
X57117983Y-47752000D01*
X57150000Y-47912960D01*
X57150000Y-61976000D01*
X57159667Y-62024601D01*
X57187197Y-62065803D01*
X57228399Y-62093333D01*
X57277000Y-62103000D01*
X223393000Y-62103000D01*
X223393000Y-64516000D01*
X45339000Y-64516000D01*
X45339000Y-62103000D01*
X54610000Y-62103000D01*
X54658601Y-62093333D01*
X54699803Y-62065803D01*
X54727333Y-62024601D01*
X54737000Y-61976000D01*
X54737000Y-46482000D01*
X57150000Y-46482000D01*
X57150000Y-47591040D01*
X57150000Y-47591040D01*
G37*
X57150000Y-47591040D02*
X57117983Y-47752000D01*
X57150000Y-47912960D01*
X57150000Y-61976000D01*
X57159667Y-62024601D01*
X57187197Y-62065803D01*
X57228399Y-62093333D01*
X57277000Y-62103000D01*
X223393000Y-62103000D01*
X223393000Y-64516000D01*
X45339000Y-64516000D01*
X45339000Y-62103000D01*
X54610000Y-62103000D01*
X54658601Y-62093333D01*
X54699803Y-62065803D01*
X54727333Y-62024601D01*
X54737000Y-61976000D01*
X54737000Y-46482000D01*
X57150000Y-46482000D01*
X57150000Y-47591040D01*
G04 #@! TO.N,GND*
G36*
X234823000Y-96393000D02*
X20447000Y-96393000D01*
X20447000Y-92076913D01*
X22873000Y-92076913D01*
X22873000Y-92923087D01*
X23196817Y-93704848D01*
X23795152Y-94303183D01*
X24576913Y-94627000D01*
X25423087Y-94627000D01*
X26204848Y-94303183D01*
X26803183Y-93704848D01*
X27127000Y-92923087D01*
X27127000Y-92076913D01*
X26803183Y-91295152D01*
X26204848Y-90696817D01*
X25423087Y-90373000D01*
X24576913Y-90373000D01*
X23795152Y-90696817D01*
X23196817Y-91295152D01*
X22873000Y-92076913D01*
X20447000Y-92076913D01*
X20447000Y-48768000D01*
X33521023Y-48768000D01*
X33627894Y-49305279D01*
X33932238Y-49760762D01*
X34347154Y-50038000D01*
X33932238Y-50315238D01*
X33627894Y-50770721D01*
X33521023Y-51308000D01*
X33627894Y-51845279D01*
X33932238Y-52300762D01*
X34347154Y-52578000D01*
X33932238Y-52855238D01*
X33627894Y-53310721D01*
X33521023Y-53848000D01*
X33627894Y-54385279D01*
X33932238Y-54840762D01*
X34347154Y-55118000D01*
X33932238Y-55395238D01*
X33627894Y-55850721D01*
X33521023Y-56388000D01*
X33627894Y-56925279D01*
X33932238Y-57380762D01*
X34347154Y-57658000D01*
X33932238Y-57935238D01*
X33627894Y-58390721D01*
X33521023Y-58928000D01*
X33627894Y-59465279D01*
X33932238Y-59920762D01*
X34347154Y-60198000D01*
X33932238Y-60475238D01*
X33627894Y-60930721D01*
X33521023Y-61468000D01*
X33627894Y-62005279D01*
X33932238Y-62460762D01*
X34347154Y-62738000D01*
X33932238Y-63015238D01*
X33627894Y-63470721D01*
X33521023Y-64008000D01*
X33627894Y-64545279D01*
X33932238Y-65000762D01*
X34347154Y-65278000D01*
X33932238Y-65555238D01*
X33627894Y-66010721D01*
X33521023Y-66548000D01*
X33627894Y-67085279D01*
X33932238Y-67540762D01*
X34347154Y-67818000D01*
X33932238Y-68095238D01*
X33627894Y-68550721D01*
X33521023Y-69088000D01*
X33627894Y-69625279D01*
X33932238Y-70080762D01*
X34347154Y-70358000D01*
X33932238Y-70635238D01*
X33627894Y-71090721D01*
X33521023Y-71628000D01*
X33627894Y-72165279D01*
X33932238Y-72620762D01*
X34347154Y-72898000D01*
X33932238Y-73175238D01*
X33627894Y-73630721D01*
X33521023Y-74168000D01*
X33627894Y-74705279D01*
X33932238Y-75160762D01*
X34347154Y-75438000D01*
X33932238Y-75715238D01*
X33627894Y-76170721D01*
X33521023Y-76708000D01*
X33627894Y-77245279D01*
X33932238Y-77700762D01*
X34347154Y-77978000D01*
X33932238Y-78255238D01*
X33627894Y-78710721D01*
X33521023Y-79248000D01*
X33627894Y-79785279D01*
X33932238Y-80240762D01*
X34347154Y-80518000D01*
X33932238Y-80795238D01*
X33627894Y-81250721D01*
X33521023Y-81788000D01*
X33627894Y-82325279D01*
X33932238Y-82780762D01*
X34347154Y-83058000D01*
X33932238Y-83335238D01*
X33627894Y-83790721D01*
X33521023Y-84328000D01*
X33627894Y-84865279D01*
X33932238Y-85320762D01*
X34347154Y-85598000D01*
X33932238Y-85875238D01*
X33627894Y-86330721D01*
X33521023Y-86868000D01*
X33627894Y-87405279D01*
X33932238Y-87860762D01*
X34347154Y-88138000D01*
X33932238Y-88415238D01*
X33627894Y-88870721D01*
X33521023Y-89408000D01*
X33627894Y-89945279D01*
X33932238Y-90400762D01*
X34347154Y-90678000D01*
X33932238Y-90955238D01*
X33627894Y-91410721D01*
X33521023Y-91948000D01*
X33627894Y-92485279D01*
X33932238Y-92940762D01*
X34347154Y-93218000D01*
X33932238Y-93495238D01*
X33627894Y-93950721D01*
X33521023Y-94488000D01*
X33627894Y-95025279D01*
X33932238Y-95480762D01*
X34387721Y-95785106D01*
X34789377Y-95865000D01*
X35060623Y-95865000D01*
X35462279Y-95785106D01*
X35917762Y-95480762D01*
X36195000Y-95065846D01*
X36472238Y-95480762D01*
X36927721Y-95785106D01*
X37329377Y-95865000D01*
X37600623Y-95865000D01*
X38002279Y-95785106D01*
X38457762Y-95480762D01*
X38762106Y-95025279D01*
X38868977Y-94488000D01*
X38762106Y-93950721D01*
X38457762Y-93495238D01*
X38042846Y-93218000D01*
X38457762Y-92940762D01*
X38762106Y-92485279D01*
X38868977Y-91948000D01*
X38762106Y-91410721D01*
X38457762Y-90955238D01*
X38337678Y-90875000D01*
X45999676Y-90875000D01*
X45999676Y-93275000D01*
X46040577Y-93480625D01*
X46157055Y-93654945D01*
X46331375Y-93771423D01*
X46537000Y-93812324D01*
X48937000Y-93812324D01*
X49142625Y-93771423D01*
X49316945Y-93654945D01*
X49433423Y-93480625D01*
X49474324Y-93275000D01*
X49474324Y-91731478D01*
X49510000Y-91731478D01*
X49510000Y-92418522D01*
X49772920Y-93053267D01*
X50258733Y-93539080D01*
X50893478Y-93802000D01*
X51580522Y-93802000D01*
X52215267Y-93539080D01*
X52701080Y-93053267D01*
X52964000Y-92418522D01*
X52964000Y-91731478D01*
X53010000Y-91731478D01*
X53010000Y-92418522D01*
X53272920Y-93053267D01*
X53758733Y-93539080D01*
X54393478Y-93802000D01*
X55080522Y-93802000D01*
X55715267Y-93539080D01*
X56201080Y-93053267D01*
X56464000Y-92418522D01*
X56464000Y-91731478D01*
X56510000Y-91731478D01*
X56510000Y-92418522D01*
X56772920Y-93053267D01*
X57258733Y-93539080D01*
X57893478Y-93802000D01*
X58580522Y-93802000D01*
X59215267Y-93539080D01*
X59701080Y-93053267D01*
X59964000Y-92418522D01*
X59964000Y-91731478D01*
X59701080Y-91096733D01*
X59479347Y-90875000D01*
X63779676Y-90875000D01*
X63779676Y-93275000D01*
X63820577Y-93480625D01*
X63937055Y-93654945D01*
X64111375Y-93771423D01*
X64317000Y-93812324D01*
X66717000Y-93812324D01*
X66922625Y-93771423D01*
X67096945Y-93654945D01*
X67213423Y-93480625D01*
X67254324Y-93275000D01*
X67254324Y-91731478D01*
X67290000Y-91731478D01*
X67290000Y-92418522D01*
X67552920Y-93053267D01*
X68038733Y-93539080D01*
X68673478Y-93802000D01*
X69360522Y-93802000D01*
X69995267Y-93539080D01*
X70481080Y-93053267D01*
X70744000Y-92418522D01*
X70744000Y-91731478D01*
X70790000Y-91731478D01*
X70790000Y-92418522D01*
X71052920Y-93053267D01*
X71538733Y-93539080D01*
X72173478Y-93802000D01*
X72860522Y-93802000D01*
X73495267Y-93539080D01*
X73981080Y-93053267D01*
X74244000Y-92418522D01*
X74244000Y-91731478D01*
X74290000Y-91731478D01*
X74290000Y-92418522D01*
X74552920Y-93053267D01*
X75038733Y-93539080D01*
X75673478Y-93802000D01*
X76360522Y-93802000D01*
X76995267Y-93539080D01*
X77481080Y-93053267D01*
X77744000Y-92418522D01*
X77744000Y-91731478D01*
X77481080Y-91096733D01*
X77259347Y-90875000D01*
X81559676Y-90875000D01*
X81559676Y-93275000D01*
X81600577Y-93480625D01*
X81717055Y-93654945D01*
X81891375Y-93771423D01*
X82097000Y-93812324D01*
X84497000Y-93812324D01*
X84702625Y-93771423D01*
X84876945Y-93654945D01*
X84993423Y-93480625D01*
X85034324Y-93275000D01*
X85034324Y-91731478D01*
X85070000Y-91731478D01*
X85070000Y-92418522D01*
X85332920Y-93053267D01*
X85818733Y-93539080D01*
X86453478Y-93802000D01*
X87140522Y-93802000D01*
X87775267Y-93539080D01*
X88261080Y-93053267D01*
X88524000Y-92418522D01*
X88524000Y-91731478D01*
X88570000Y-91731478D01*
X88570000Y-92418522D01*
X88832920Y-93053267D01*
X89318733Y-93539080D01*
X89953478Y-93802000D01*
X90640522Y-93802000D01*
X91275267Y-93539080D01*
X91761080Y-93053267D01*
X92024000Y-92418522D01*
X92024000Y-91731478D01*
X92070000Y-91731478D01*
X92070000Y-92418522D01*
X92332920Y-93053267D01*
X92818733Y-93539080D01*
X93453478Y-93802000D01*
X94140522Y-93802000D01*
X94775267Y-93539080D01*
X95261080Y-93053267D01*
X95524000Y-92418522D01*
X95524000Y-91731478D01*
X95261080Y-91096733D01*
X95039347Y-90875000D01*
X99339676Y-90875000D01*
X99339676Y-93275000D01*
X99380577Y-93480625D01*
X99497055Y-93654945D01*
X99671375Y-93771423D01*
X99877000Y-93812324D01*
X102277000Y-93812324D01*
X102482625Y-93771423D01*
X102656945Y-93654945D01*
X102773423Y-93480625D01*
X102814324Y-93275000D01*
X102814324Y-91731478D01*
X102850000Y-91731478D01*
X102850000Y-92418522D01*
X103112920Y-93053267D01*
X103598733Y-93539080D01*
X104233478Y-93802000D01*
X104920522Y-93802000D01*
X105555267Y-93539080D01*
X106041080Y-93053267D01*
X106304000Y-92418522D01*
X106304000Y-91731478D01*
X106350000Y-91731478D01*
X106350000Y-92418522D01*
X106612920Y-93053267D01*
X107098733Y-93539080D01*
X107733478Y-93802000D01*
X108420522Y-93802000D01*
X109055267Y-93539080D01*
X109541080Y-93053267D01*
X109804000Y-92418522D01*
X109804000Y-91731478D01*
X109850000Y-91731478D01*
X109850000Y-92418522D01*
X110112920Y-93053267D01*
X110598733Y-93539080D01*
X111233478Y-93802000D01*
X111920522Y-93802000D01*
X112555267Y-93539080D01*
X113041080Y-93053267D01*
X113304000Y-92418522D01*
X113304000Y-91731478D01*
X113041080Y-91096733D01*
X112819347Y-90875000D01*
X117119676Y-90875000D01*
X117119676Y-93275000D01*
X117160577Y-93480625D01*
X117277055Y-93654945D01*
X117451375Y-93771423D01*
X117657000Y-93812324D01*
X120057000Y-93812324D01*
X120262625Y-93771423D01*
X120436945Y-93654945D01*
X120553423Y-93480625D01*
X120594324Y-93275000D01*
X120594324Y-91731478D01*
X120630000Y-91731478D01*
X120630000Y-92418522D01*
X120892920Y-93053267D01*
X121378733Y-93539080D01*
X122013478Y-93802000D01*
X122700522Y-93802000D01*
X123335267Y-93539080D01*
X123821080Y-93053267D01*
X124084000Y-92418522D01*
X124084000Y-91731478D01*
X124130000Y-91731478D01*
X124130000Y-92418522D01*
X124392920Y-93053267D01*
X124878733Y-93539080D01*
X125513478Y-93802000D01*
X126200522Y-93802000D01*
X126835267Y-93539080D01*
X127321080Y-93053267D01*
X127584000Y-92418522D01*
X127584000Y-91731478D01*
X127630000Y-91731478D01*
X127630000Y-92418522D01*
X127892920Y-93053267D01*
X128378733Y-93539080D01*
X129013478Y-93802000D01*
X129700522Y-93802000D01*
X130335267Y-93539080D01*
X130821080Y-93053267D01*
X131084000Y-92418522D01*
X131084000Y-91731478D01*
X130821080Y-91096733D01*
X130599347Y-90875000D01*
X134899676Y-90875000D01*
X134899676Y-93275000D01*
X134940577Y-93480625D01*
X135057055Y-93654945D01*
X135231375Y-93771423D01*
X135437000Y-93812324D01*
X137837000Y-93812324D01*
X138042625Y-93771423D01*
X138216945Y-93654945D01*
X138333423Y-93480625D01*
X138374324Y-93275000D01*
X138374324Y-91731478D01*
X138410000Y-91731478D01*
X138410000Y-92418522D01*
X138672920Y-93053267D01*
X139158733Y-93539080D01*
X139793478Y-93802000D01*
X140480522Y-93802000D01*
X141115267Y-93539080D01*
X141601080Y-93053267D01*
X141864000Y-92418522D01*
X141864000Y-91731478D01*
X141910000Y-91731478D01*
X141910000Y-92418522D01*
X142172920Y-93053267D01*
X142658733Y-93539080D01*
X143293478Y-93802000D01*
X143980522Y-93802000D01*
X144615267Y-93539080D01*
X145101080Y-93053267D01*
X145364000Y-92418522D01*
X145364000Y-91731478D01*
X145410000Y-91731478D01*
X145410000Y-92418522D01*
X145672920Y-93053267D01*
X146158733Y-93539080D01*
X146793478Y-93802000D01*
X147480522Y-93802000D01*
X148115267Y-93539080D01*
X148601080Y-93053267D01*
X148864000Y-92418522D01*
X148864000Y-91731478D01*
X148601080Y-91096733D01*
X148379347Y-90875000D01*
X152679676Y-90875000D01*
X152679676Y-93275000D01*
X152720577Y-93480625D01*
X152837055Y-93654945D01*
X153011375Y-93771423D01*
X153217000Y-93812324D01*
X155617000Y-93812324D01*
X155822625Y-93771423D01*
X155996945Y-93654945D01*
X156113423Y-93480625D01*
X156154324Y-93275000D01*
X156154324Y-91731478D01*
X156190000Y-91731478D01*
X156190000Y-92418522D01*
X156452920Y-93053267D01*
X156938733Y-93539080D01*
X157573478Y-93802000D01*
X158260522Y-93802000D01*
X158895267Y-93539080D01*
X159381080Y-93053267D01*
X159644000Y-92418522D01*
X159644000Y-91731478D01*
X159690000Y-91731478D01*
X159690000Y-92418522D01*
X159952920Y-93053267D01*
X160438733Y-93539080D01*
X161073478Y-93802000D01*
X161760522Y-93802000D01*
X162395267Y-93539080D01*
X162881080Y-93053267D01*
X163144000Y-92418522D01*
X163144000Y-91731478D01*
X163190000Y-91731478D01*
X163190000Y-92418522D01*
X163452920Y-93053267D01*
X163938733Y-93539080D01*
X164573478Y-93802000D01*
X165260522Y-93802000D01*
X165895267Y-93539080D01*
X166381080Y-93053267D01*
X166644000Y-92418522D01*
X166644000Y-91731478D01*
X166381080Y-91096733D01*
X166159347Y-90875000D01*
X170459676Y-90875000D01*
X170459676Y-93275000D01*
X170500577Y-93480625D01*
X170617055Y-93654945D01*
X170791375Y-93771423D01*
X170997000Y-93812324D01*
X173397000Y-93812324D01*
X173602625Y-93771423D01*
X173776945Y-93654945D01*
X173893423Y-93480625D01*
X173934324Y-93275000D01*
X173934324Y-91731478D01*
X173970000Y-91731478D01*
X173970000Y-92418522D01*
X174232920Y-93053267D01*
X174718733Y-93539080D01*
X175353478Y-93802000D01*
X176040522Y-93802000D01*
X176675267Y-93539080D01*
X177161080Y-93053267D01*
X177424000Y-92418522D01*
X177424000Y-91731478D01*
X177470000Y-91731478D01*
X177470000Y-92418522D01*
X177732920Y-93053267D01*
X178218733Y-93539080D01*
X178853478Y-93802000D01*
X179540522Y-93802000D01*
X180175267Y-93539080D01*
X180661080Y-93053267D01*
X180924000Y-92418522D01*
X180924000Y-91731478D01*
X180970000Y-91731478D01*
X180970000Y-92418522D01*
X181232920Y-93053267D01*
X181718733Y-93539080D01*
X182353478Y-93802000D01*
X183040522Y-93802000D01*
X183675267Y-93539080D01*
X184161080Y-93053267D01*
X184424000Y-92418522D01*
X184424000Y-91731478D01*
X184161080Y-91096733D01*
X183939347Y-90875000D01*
X188239676Y-90875000D01*
X188239676Y-93275000D01*
X188280577Y-93480625D01*
X188397055Y-93654945D01*
X188571375Y-93771423D01*
X188777000Y-93812324D01*
X191177000Y-93812324D01*
X191382625Y-93771423D01*
X191556945Y-93654945D01*
X191673423Y-93480625D01*
X191714324Y-93275000D01*
X191714324Y-91731478D01*
X191750000Y-91731478D01*
X191750000Y-92418522D01*
X192012920Y-93053267D01*
X192498733Y-93539080D01*
X193133478Y-93802000D01*
X193820522Y-93802000D01*
X194455267Y-93539080D01*
X194941080Y-93053267D01*
X195204000Y-92418522D01*
X195204000Y-91731478D01*
X195250000Y-91731478D01*
X195250000Y-92418522D01*
X195512920Y-93053267D01*
X195998733Y-93539080D01*
X196633478Y-93802000D01*
X197320522Y-93802000D01*
X197955267Y-93539080D01*
X198441080Y-93053267D01*
X198704000Y-92418522D01*
X198704000Y-91731478D01*
X198750000Y-91731478D01*
X198750000Y-92418522D01*
X199012920Y-93053267D01*
X199498733Y-93539080D01*
X200133478Y-93802000D01*
X200820522Y-93802000D01*
X201455267Y-93539080D01*
X201941080Y-93053267D01*
X202204000Y-92418522D01*
X202204000Y-91731478D01*
X201941080Y-91096733D01*
X201719347Y-90875000D01*
X206019676Y-90875000D01*
X206019676Y-93275000D01*
X206060577Y-93480625D01*
X206177055Y-93654945D01*
X206351375Y-93771423D01*
X206557000Y-93812324D01*
X208957000Y-93812324D01*
X209162625Y-93771423D01*
X209336945Y-93654945D01*
X209453423Y-93480625D01*
X209494324Y-93275000D01*
X209494324Y-91731478D01*
X209530000Y-91731478D01*
X209530000Y-92418522D01*
X209792920Y-93053267D01*
X210278733Y-93539080D01*
X210913478Y-93802000D01*
X211600522Y-93802000D01*
X212235267Y-93539080D01*
X212721080Y-93053267D01*
X212984000Y-92418522D01*
X212984000Y-91731478D01*
X213030000Y-91731478D01*
X213030000Y-92418522D01*
X213292920Y-93053267D01*
X213778733Y-93539080D01*
X214413478Y-93802000D01*
X215100522Y-93802000D01*
X215735267Y-93539080D01*
X216221080Y-93053267D01*
X216484000Y-92418522D01*
X216484000Y-91731478D01*
X216530000Y-91731478D01*
X216530000Y-92418522D01*
X216792920Y-93053267D01*
X217278733Y-93539080D01*
X217913478Y-93802000D01*
X218600522Y-93802000D01*
X219235267Y-93539080D01*
X219721080Y-93053267D01*
X219984000Y-92418522D01*
X219984000Y-92076913D01*
X227873000Y-92076913D01*
X227873000Y-92923087D01*
X228196817Y-93704848D01*
X228795152Y-94303183D01*
X229576913Y-94627000D01*
X230423087Y-94627000D01*
X231204848Y-94303183D01*
X231803183Y-93704848D01*
X232127000Y-92923087D01*
X232127000Y-92076913D01*
X231803183Y-91295152D01*
X231204848Y-90696817D01*
X230423087Y-90373000D01*
X229576913Y-90373000D01*
X228795152Y-90696817D01*
X228196817Y-91295152D01*
X227873000Y-92076913D01*
X219984000Y-92076913D01*
X219984000Y-91731478D01*
X219721080Y-91096733D01*
X219235267Y-90610920D01*
X218600522Y-90348000D01*
X217913478Y-90348000D01*
X217278733Y-90610920D01*
X216792920Y-91096733D01*
X216530000Y-91731478D01*
X216484000Y-91731478D01*
X216221080Y-91096733D01*
X215735267Y-90610920D01*
X215100522Y-90348000D01*
X214413478Y-90348000D01*
X213778733Y-90610920D01*
X213292920Y-91096733D01*
X213030000Y-91731478D01*
X212984000Y-91731478D01*
X212721080Y-91096733D01*
X212235267Y-90610920D01*
X211600522Y-90348000D01*
X210913478Y-90348000D01*
X210278733Y-90610920D01*
X209792920Y-91096733D01*
X209530000Y-91731478D01*
X209494324Y-91731478D01*
X209494324Y-90875000D01*
X209453423Y-90669375D01*
X209336945Y-90495055D01*
X209162625Y-90378577D01*
X208957000Y-90337676D01*
X206557000Y-90337676D01*
X206351375Y-90378577D01*
X206177055Y-90495055D01*
X206060577Y-90669375D01*
X206019676Y-90875000D01*
X201719347Y-90875000D01*
X201455267Y-90610920D01*
X200820522Y-90348000D01*
X200133478Y-90348000D01*
X199498733Y-90610920D01*
X199012920Y-91096733D01*
X198750000Y-91731478D01*
X198704000Y-91731478D01*
X198441080Y-91096733D01*
X197955267Y-90610920D01*
X197320522Y-90348000D01*
X196633478Y-90348000D01*
X195998733Y-90610920D01*
X195512920Y-91096733D01*
X195250000Y-91731478D01*
X195204000Y-91731478D01*
X194941080Y-91096733D01*
X194455267Y-90610920D01*
X193820522Y-90348000D01*
X193133478Y-90348000D01*
X192498733Y-90610920D01*
X192012920Y-91096733D01*
X191750000Y-91731478D01*
X191714324Y-91731478D01*
X191714324Y-90875000D01*
X191673423Y-90669375D01*
X191556945Y-90495055D01*
X191382625Y-90378577D01*
X191177000Y-90337676D01*
X188777000Y-90337676D01*
X188571375Y-90378577D01*
X188397055Y-90495055D01*
X188280577Y-90669375D01*
X188239676Y-90875000D01*
X183939347Y-90875000D01*
X183675267Y-90610920D01*
X183040522Y-90348000D01*
X182353478Y-90348000D01*
X181718733Y-90610920D01*
X181232920Y-91096733D01*
X180970000Y-91731478D01*
X180924000Y-91731478D01*
X180661080Y-91096733D01*
X180175267Y-90610920D01*
X179540522Y-90348000D01*
X178853478Y-90348000D01*
X178218733Y-90610920D01*
X177732920Y-91096733D01*
X177470000Y-91731478D01*
X177424000Y-91731478D01*
X177161080Y-91096733D01*
X176675267Y-90610920D01*
X176040522Y-90348000D01*
X175353478Y-90348000D01*
X174718733Y-90610920D01*
X174232920Y-91096733D01*
X173970000Y-91731478D01*
X173934324Y-91731478D01*
X173934324Y-90875000D01*
X173893423Y-90669375D01*
X173776945Y-90495055D01*
X173602625Y-90378577D01*
X173397000Y-90337676D01*
X170997000Y-90337676D01*
X170791375Y-90378577D01*
X170617055Y-90495055D01*
X170500577Y-90669375D01*
X170459676Y-90875000D01*
X166159347Y-90875000D01*
X165895267Y-90610920D01*
X165260522Y-90348000D01*
X164573478Y-90348000D01*
X163938733Y-90610920D01*
X163452920Y-91096733D01*
X163190000Y-91731478D01*
X163144000Y-91731478D01*
X162881080Y-91096733D01*
X162395267Y-90610920D01*
X161760522Y-90348000D01*
X161073478Y-90348000D01*
X160438733Y-90610920D01*
X159952920Y-91096733D01*
X159690000Y-91731478D01*
X159644000Y-91731478D01*
X159381080Y-91096733D01*
X158895267Y-90610920D01*
X158260522Y-90348000D01*
X157573478Y-90348000D01*
X156938733Y-90610920D01*
X156452920Y-91096733D01*
X156190000Y-91731478D01*
X156154324Y-91731478D01*
X156154324Y-90875000D01*
X156113423Y-90669375D01*
X155996945Y-90495055D01*
X155822625Y-90378577D01*
X155617000Y-90337676D01*
X153217000Y-90337676D01*
X153011375Y-90378577D01*
X152837055Y-90495055D01*
X152720577Y-90669375D01*
X152679676Y-90875000D01*
X148379347Y-90875000D01*
X148115267Y-90610920D01*
X147480522Y-90348000D01*
X146793478Y-90348000D01*
X146158733Y-90610920D01*
X145672920Y-91096733D01*
X145410000Y-91731478D01*
X145364000Y-91731478D01*
X145101080Y-91096733D01*
X144615267Y-90610920D01*
X143980522Y-90348000D01*
X143293478Y-90348000D01*
X142658733Y-90610920D01*
X142172920Y-91096733D01*
X141910000Y-91731478D01*
X141864000Y-91731478D01*
X141601080Y-91096733D01*
X141115267Y-90610920D01*
X140480522Y-90348000D01*
X139793478Y-90348000D01*
X139158733Y-90610920D01*
X138672920Y-91096733D01*
X138410000Y-91731478D01*
X138374324Y-91731478D01*
X138374324Y-90875000D01*
X138333423Y-90669375D01*
X138216945Y-90495055D01*
X138042625Y-90378577D01*
X137837000Y-90337676D01*
X135437000Y-90337676D01*
X135231375Y-90378577D01*
X135057055Y-90495055D01*
X134940577Y-90669375D01*
X134899676Y-90875000D01*
X130599347Y-90875000D01*
X130335267Y-90610920D01*
X129700522Y-90348000D01*
X129013478Y-90348000D01*
X128378733Y-90610920D01*
X127892920Y-91096733D01*
X127630000Y-91731478D01*
X127584000Y-91731478D01*
X127321080Y-91096733D01*
X126835267Y-90610920D01*
X126200522Y-90348000D01*
X125513478Y-90348000D01*
X124878733Y-90610920D01*
X124392920Y-91096733D01*
X124130000Y-91731478D01*
X124084000Y-91731478D01*
X123821080Y-91096733D01*
X123335267Y-90610920D01*
X122700522Y-90348000D01*
X122013478Y-90348000D01*
X121378733Y-90610920D01*
X120892920Y-91096733D01*
X120630000Y-91731478D01*
X120594324Y-91731478D01*
X120594324Y-90875000D01*
X120553423Y-90669375D01*
X120436945Y-90495055D01*
X120262625Y-90378577D01*
X120057000Y-90337676D01*
X117657000Y-90337676D01*
X117451375Y-90378577D01*
X117277055Y-90495055D01*
X117160577Y-90669375D01*
X117119676Y-90875000D01*
X112819347Y-90875000D01*
X112555267Y-90610920D01*
X111920522Y-90348000D01*
X111233478Y-90348000D01*
X110598733Y-90610920D01*
X110112920Y-91096733D01*
X109850000Y-91731478D01*
X109804000Y-91731478D01*
X109541080Y-91096733D01*
X109055267Y-90610920D01*
X108420522Y-90348000D01*
X107733478Y-90348000D01*
X107098733Y-90610920D01*
X106612920Y-91096733D01*
X106350000Y-91731478D01*
X106304000Y-91731478D01*
X106041080Y-91096733D01*
X105555267Y-90610920D01*
X104920522Y-90348000D01*
X104233478Y-90348000D01*
X103598733Y-90610920D01*
X103112920Y-91096733D01*
X102850000Y-91731478D01*
X102814324Y-91731478D01*
X102814324Y-90875000D01*
X102773423Y-90669375D01*
X102656945Y-90495055D01*
X102482625Y-90378577D01*
X102277000Y-90337676D01*
X99877000Y-90337676D01*
X99671375Y-90378577D01*
X99497055Y-90495055D01*
X99380577Y-90669375D01*
X99339676Y-90875000D01*
X95039347Y-90875000D01*
X94775267Y-90610920D01*
X94140522Y-90348000D01*
X93453478Y-90348000D01*
X92818733Y-90610920D01*
X92332920Y-91096733D01*
X92070000Y-91731478D01*
X92024000Y-91731478D01*
X91761080Y-91096733D01*
X91275267Y-90610920D01*
X90640522Y-90348000D01*
X89953478Y-90348000D01*
X89318733Y-90610920D01*
X88832920Y-91096733D01*
X88570000Y-91731478D01*
X88524000Y-91731478D01*
X88261080Y-91096733D01*
X87775267Y-90610920D01*
X87140522Y-90348000D01*
X86453478Y-90348000D01*
X85818733Y-90610920D01*
X85332920Y-91096733D01*
X85070000Y-91731478D01*
X85034324Y-91731478D01*
X85034324Y-90875000D01*
X84993423Y-90669375D01*
X84876945Y-90495055D01*
X84702625Y-90378577D01*
X84497000Y-90337676D01*
X82097000Y-90337676D01*
X81891375Y-90378577D01*
X81717055Y-90495055D01*
X81600577Y-90669375D01*
X81559676Y-90875000D01*
X77259347Y-90875000D01*
X76995267Y-90610920D01*
X76360522Y-90348000D01*
X75673478Y-90348000D01*
X75038733Y-90610920D01*
X74552920Y-91096733D01*
X74290000Y-91731478D01*
X74244000Y-91731478D01*
X73981080Y-91096733D01*
X73495267Y-90610920D01*
X72860522Y-90348000D01*
X72173478Y-90348000D01*
X71538733Y-90610920D01*
X71052920Y-91096733D01*
X70790000Y-91731478D01*
X70744000Y-91731478D01*
X70481080Y-91096733D01*
X69995267Y-90610920D01*
X69360522Y-90348000D01*
X68673478Y-90348000D01*
X68038733Y-90610920D01*
X67552920Y-91096733D01*
X67290000Y-91731478D01*
X67254324Y-91731478D01*
X67254324Y-90875000D01*
X67213423Y-90669375D01*
X67096945Y-90495055D01*
X66922625Y-90378577D01*
X66717000Y-90337676D01*
X64317000Y-90337676D01*
X64111375Y-90378577D01*
X63937055Y-90495055D01*
X63820577Y-90669375D01*
X63779676Y-90875000D01*
X59479347Y-90875000D01*
X59215267Y-90610920D01*
X58580522Y-90348000D01*
X57893478Y-90348000D01*
X57258733Y-90610920D01*
X56772920Y-91096733D01*
X56510000Y-91731478D01*
X56464000Y-91731478D01*
X56201080Y-91096733D01*
X55715267Y-90610920D01*
X55080522Y-90348000D01*
X54393478Y-90348000D01*
X53758733Y-90610920D01*
X53272920Y-91096733D01*
X53010000Y-91731478D01*
X52964000Y-91731478D01*
X52701080Y-91096733D01*
X52215267Y-90610920D01*
X51580522Y-90348000D01*
X50893478Y-90348000D01*
X50258733Y-90610920D01*
X49772920Y-91096733D01*
X49510000Y-91731478D01*
X49474324Y-91731478D01*
X49474324Y-90875000D01*
X49433423Y-90669375D01*
X49316945Y-90495055D01*
X49142625Y-90378577D01*
X48937000Y-90337676D01*
X46537000Y-90337676D01*
X46331375Y-90378577D01*
X46157055Y-90495055D01*
X46040577Y-90669375D01*
X45999676Y-90875000D01*
X38337678Y-90875000D01*
X38042846Y-90678000D01*
X38457762Y-90400762D01*
X38762106Y-89945279D01*
X38868977Y-89408000D01*
X38762106Y-88870721D01*
X38457762Y-88415238D01*
X38042846Y-88138000D01*
X38457762Y-87860762D01*
X38762106Y-87405279D01*
X38868977Y-86868000D01*
X38762106Y-86330721D01*
X38457762Y-85875238D01*
X38042846Y-85598000D01*
X38457762Y-85320762D01*
X38762106Y-84865279D01*
X38868977Y-84328000D01*
X38762106Y-83790721D01*
X38457762Y-83335238D01*
X38042846Y-83058000D01*
X38457762Y-82780762D01*
X38762106Y-82325279D01*
X38868977Y-81788000D01*
X38762106Y-81250721D01*
X38457762Y-80795238D01*
X38042846Y-80518000D01*
X38457762Y-80240762D01*
X38762106Y-79785279D01*
X38868977Y-79248000D01*
X38762106Y-78710721D01*
X38457762Y-78255238D01*
X38042846Y-77978000D01*
X38457762Y-77700762D01*
X38762106Y-77245279D01*
X38868977Y-76708000D01*
X38762106Y-76170721D01*
X38457762Y-75715238D01*
X38042846Y-75438000D01*
X38457762Y-75160762D01*
X38762106Y-74705279D01*
X38868977Y-74168000D01*
X38762106Y-73630721D01*
X38457762Y-73175238D01*
X38042846Y-72898000D01*
X38457762Y-72620762D01*
X38762106Y-72165279D01*
X38868977Y-71628000D01*
X38762106Y-71090721D01*
X38457762Y-70635238D01*
X38042846Y-70358000D01*
X38457762Y-70080762D01*
X38762106Y-69625279D01*
X38868977Y-69088000D01*
X38762106Y-68550721D01*
X38457762Y-68095238D01*
X38042846Y-67818000D01*
X38457762Y-67540762D01*
X38762106Y-67085279D01*
X38868977Y-66548000D01*
X38762106Y-66010721D01*
X38457762Y-65555238D01*
X38042846Y-65278000D01*
X38457762Y-65000762D01*
X38762106Y-64545279D01*
X38868977Y-64008000D01*
X38762106Y-63470721D01*
X38457762Y-63015238D01*
X38042846Y-62738000D01*
X38457762Y-62460762D01*
X38762106Y-62005279D01*
X38767929Y-61976000D01*
X44685000Y-61976000D01*
X44685000Y-64643000D01*
X44725115Y-64844674D01*
X44839355Y-65015645D01*
X45010326Y-65129885D01*
X45212000Y-65170000D01*
X223520000Y-65170000D01*
X223721674Y-65129885D01*
X223892645Y-65015645D01*
X224006885Y-64844674D01*
X224047000Y-64643000D01*
X224047000Y-61976000D01*
X224006885Y-61774326D01*
X223892645Y-61603355D01*
X223721674Y-61489115D01*
X223520000Y-61449000D01*
X222309976Y-61449000D01*
X222400873Y-61358103D01*
X222542000Y-61017392D01*
X222542000Y-60648608D01*
X222400873Y-60307897D01*
X222267000Y-60174024D01*
X222267000Y-43584976D01*
X222400873Y-43451103D01*
X222542000Y-43110392D01*
X222542000Y-42741608D01*
X222400873Y-42400897D01*
X222140103Y-42140127D01*
X221987491Y-42076913D01*
X227873000Y-42076913D01*
X227873000Y-42923087D01*
X228196817Y-43704848D01*
X228795152Y-44303183D01*
X229576913Y-44627000D01*
X230423087Y-44627000D01*
X231204848Y-44303183D01*
X231803183Y-43704848D01*
X232127000Y-42923087D01*
X232127000Y-42076913D01*
X231803183Y-41295152D01*
X231204848Y-40696817D01*
X230423087Y-40373000D01*
X229576913Y-40373000D01*
X228795152Y-40696817D01*
X228196817Y-41295152D01*
X227873000Y-42076913D01*
X221987491Y-42076913D01*
X221799392Y-41999000D01*
X221430608Y-41999000D01*
X221089897Y-42140127D01*
X220829127Y-42400897D01*
X220688000Y-42741608D01*
X220688000Y-43110392D01*
X220829127Y-43451103D01*
X220963000Y-43584976D01*
X220963001Y-60174023D01*
X220829127Y-60307897D01*
X220688000Y-60648608D01*
X220688000Y-61017392D01*
X220829127Y-61358103D01*
X220920024Y-61449000D01*
X220277976Y-61449000D01*
X220368873Y-61358103D01*
X220510000Y-61017392D01*
X220510000Y-60648608D01*
X220368873Y-60307897D01*
X220235000Y-60174024D01*
X220235000Y-41806976D01*
X220368873Y-41673103D01*
X220510000Y-41332392D01*
X220510000Y-40963608D01*
X220368873Y-40622897D01*
X220108103Y-40362127D01*
X219767392Y-40221000D01*
X219398608Y-40221000D01*
X219057897Y-40362127D01*
X218797127Y-40622897D01*
X218656000Y-40963608D01*
X218656000Y-41332392D01*
X218797127Y-41673103D01*
X218931001Y-41806977D01*
X218931000Y-60174024D01*
X218797127Y-60307897D01*
X218656000Y-60648608D01*
X218656000Y-61017392D01*
X218797127Y-61358103D01*
X218888024Y-61449000D01*
X211112827Y-61449000D01*
X211239000Y-61144392D01*
X211239000Y-60775608D01*
X211097873Y-60434897D01*
X210964000Y-60301024D01*
X210964000Y-42695976D01*
X211097873Y-42562103D01*
X211239000Y-42221392D01*
X211239000Y-41852608D01*
X211097873Y-41511897D01*
X210837103Y-41251127D01*
X210496392Y-41110000D01*
X210127608Y-41110000D01*
X209786897Y-41251127D01*
X209526127Y-41511897D01*
X209385000Y-41852608D01*
X209385000Y-42221392D01*
X209526127Y-42562103D01*
X209660001Y-42695977D01*
X209660000Y-60301024D01*
X209526127Y-60434897D01*
X209385000Y-60775608D01*
X209385000Y-61144392D01*
X209511173Y-61449000D01*
X209080827Y-61449000D01*
X209207000Y-61144392D01*
X209207000Y-60775608D01*
X209065873Y-60434897D01*
X208932000Y-60301024D01*
X208932000Y-44473976D01*
X209065873Y-44340103D01*
X209207000Y-43999392D01*
X209207000Y-43630608D01*
X209065873Y-43289897D01*
X208805103Y-43029127D01*
X208464392Y-42888000D01*
X208095608Y-42888000D01*
X207754897Y-43029127D01*
X207494127Y-43289897D01*
X207353000Y-43630608D01*
X207353000Y-43999392D01*
X207494127Y-44340103D01*
X207628001Y-44473977D01*
X207628000Y-60301024D01*
X207494127Y-60434897D01*
X207353000Y-60775608D01*
X207353000Y-61144392D01*
X207479173Y-61449000D01*
X204529976Y-61449000D01*
X204620873Y-61358103D01*
X204762000Y-61017392D01*
X204762000Y-60648608D01*
X204620873Y-60307897D01*
X204487000Y-60174024D01*
X204487000Y-43584976D01*
X204620873Y-43451103D01*
X204762000Y-43110392D01*
X204762000Y-42741608D01*
X204620873Y-42400897D01*
X204360103Y-42140127D01*
X204019392Y-41999000D01*
X203650608Y-41999000D01*
X203309897Y-42140127D01*
X203049127Y-42400897D01*
X202908000Y-42741608D01*
X202908000Y-43110392D01*
X203049127Y-43451103D01*
X203183000Y-43584976D01*
X203183001Y-60174023D01*
X203049127Y-60307897D01*
X202908000Y-60648608D01*
X202908000Y-61017392D01*
X203049127Y-61358103D01*
X203140024Y-61449000D01*
X202497976Y-61449000D01*
X202588873Y-61358103D01*
X202730000Y-61017392D01*
X202730000Y-60648608D01*
X202588873Y-60307897D01*
X202455000Y-60174024D01*
X202455000Y-41806976D01*
X202588873Y-41673103D01*
X202730000Y-41332392D01*
X202730000Y-40963608D01*
X202588873Y-40622897D01*
X202328103Y-40362127D01*
X201987392Y-40221000D01*
X201618608Y-40221000D01*
X201277897Y-40362127D01*
X201017127Y-40622897D01*
X200876000Y-40963608D01*
X200876000Y-41332392D01*
X201017127Y-41673103D01*
X201151001Y-41806977D01*
X201151000Y-60174024D01*
X201017127Y-60307897D01*
X200876000Y-60648608D01*
X200876000Y-61017392D01*
X201017127Y-61358103D01*
X201108024Y-61449000D01*
X193332827Y-61449000D01*
X193459000Y-61144392D01*
X193459000Y-60775608D01*
X193317873Y-60434897D01*
X193184000Y-60301024D01*
X193184000Y-42695976D01*
X193317873Y-42562103D01*
X193459000Y-42221392D01*
X193459000Y-41852608D01*
X193317873Y-41511897D01*
X193057103Y-41251127D01*
X192716392Y-41110000D01*
X192347608Y-41110000D01*
X192006897Y-41251127D01*
X191746127Y-41511897D01*
X191605000Y-41852608D01*
X191605000Y-42221392D01*
X191746127Y-42562103D01*
X191880001Y-42695977D01*
X191880000Y-60301024D01*
X191746127Y-60434897D01*
X191605000Y-60775608D01*
X191605000Y-61144392D01*
X191731173Y-61449000D01*
X191300827Y-61449000D01*
X191427000Y-61144392D01*
X191427000Y-60775608D01*
X191285873Y-60434897D01*
X191152000Y-60301024D01*
X191152000Y-44473976D01*
X191285873Y-44340103D01*
X191427000Y-43999392D01*
X191427000Y-43630608D01*
X191285873Y-43289897D01*
X191025103Y-43029127D01*
X190684392Y-42888000D01*
X190315608Y-42888000D01*
X189974897Y-43029127D01*
X189714127Y-43289897D01*
X189573000Y-43630608D01*
X189573000Y-43999392D01*
X189714127Y-44340103D01*
X189848001Y-44473977D01*
X189848000Y-60301024D01*
X189714127Y-60434897D01*
X189573000Y-60775608D01*
X189573000Y-61144392D01*
X189699173Y-61449000D01*
X186749976Y-61449000D01*
X186840873Y-61358103D01*
X186982000Y-61017392D01*
X186982000Y-60648608D01*
X186840873Y-60307897D01*
X186707000Y-60174024D01*
X186707000Y-43584976D01*
X186840873Y-43451103D01*
X186982000Y-43110392D01*
X186982000Y-42741608D01*
X186840873Y-42400897D01*
X186580103Y-42140127D01*
X186239392Y-41999000D01*
X185870608Y-41999000D01*
X185529897Y-42140127D01*
X185269127Y-42400897D01*
X185128000Y-42741608D01*
X185128000Y-43110392D01*
X185269127Y-43451103D01*
X185403000Y-43584976D01*
X185403001Y-60174023D01*
X185269127Y-60307897D01*
X185128000Y-60648608D01*
X185128000Y-61017392D01*
X185269127Y-61358103D01*
X185360024Y-61449000D01*
X184717976Y-61449000D01*
X184808873Y-61358103D01*
X184950000Y-61017392D01*
X184950000Y-60648608D01*
X184808873Y-60307897D01*
X184675000Y-60174024D01*
X184675000Y-41806980D01*
X184808877Y-41673103D01*
X184950004Y-41332392D01*
X184950004Y-40963608D01*
X184808877Y-40622897D01*
X184548107Y-40362127D01*
X184207396Y-40221000D01*
X183838612Y-40221000D01*
X183497901Y-40362127D01*
X183237131Y-40622897D01*
X183096004Y-40963608D01*
X183096004Y-41332392D01*
X183237131Y-41673103D01*
X183371001Y-41806973D01*
X183371000Y-60174024D01*
X183237127Y-60307897D01*
X183096000Y-60648608D01*
X183096000Y-61017392D01*
X183237127Y-61358103D01*
X183328024Y-61449000D01*
X175552827Y-61449000D01*
X175679000Y-61144392D01*
X175679000Y-60775608D01*
X175537873Y-60434897D01*
X175404000Y-60301024D01*
X175404000Y-42695976D01*
X175537873Y-42562103D01*
X175679000Y-42221392D01*
X175679000Y-41852608D01*
X175537873Y-41511897D01*
X175277103Y-41251127D01*
X174936392Y-41110000D01*
X174567608Y-41110000D01*
X174226897Y-41251127D01*
X173966127Y-41511897D01*
X173825000Y-41852608D01*
X173825000Y-42221392D01*
X173966127Y-42562103D01*
X174100001Y-42695977D01*
X174100000Y-60301024D01*
X173966127Y-60434897D01*
X173825000Y-60775608D01*
X173825000Y-61144392D01*
X173951173Y-61449000D01*
X173520827Y-61449000D01*
X173647000Y-61144392D01*
X173647000Y-60775608D01*
X173505873Y-60434897D01*
X173372000Y-60301024D01*
X173372000Y-44473976D01*
X173505873Y-44340103D01*
X173647000Y-43999392D01*
X173647000Y-43630608D01*
X173505873Y-43289897D01*
X173245103Y-43029127D01*
X172904392Y-42888000D01*
X172535608Y-42888000D01*
X172194897Y-43029127D01*
X171934127Y-43289897D01*
X171793000Y-43630608D01*
X171793000Y-43999392D01*
X171934127Y-44340103D01*
X172068001Y-44473977D01*
X172068000Y-60301024D01*
X171934127Y-60434897D01*
X171793000Y-60775608D01*
X171793000Y-61144392D01*
X171919173Y-61449000D01*
X168969976Y-61449000D01*
X169060873Y-61358103D01*
X169202000Y-61017392D01*
X169202000Y-60648608D01*
X169060873Y-60307897D01*
X168927000Y-60174024D01*
X168927000Y-43584976D01*
X169060873Y-43451103D01*
X169202000Y-43110392D01*
X169202000Y-42741608D01*
X169060873Y-42400897D01*
X168800103Y-42140127D01*
X168459392Y-41999000D01*
X168090608Y-41999000D01*
X167749897Y-42140127D01*
X167489127Y-42400897D01*
X167348000Y-42741608D01*
X167348000Y-43110392D01*
X167489127Y-43451103D01*
X167623000Y-43584976D01*
X167623001Y-60174023D01*
X167489127Y-60307897D01*
X167348000Y-60648608D01*
X167348000Y-61017392D01*
X167489127Y-61358103D01*
X167580024Y-61449000D01*
X166937976Y-61449000D01*
X167028873Y-61358103D01*
X167170000Y-61017392D01*
X167170000Y-60648608D01*
X167028873Y-60307897D01*
X166895000Y-60174024D01*
X166895000Y-41806976D01*
X167028873Y-41673103D01*
X167170000Y-41332392D01*
X167170000Y-40963608D01*
X167028873Y-40622897D01*
X166768103Y-40362127D01*
X166427392Y-40221000D01*
X166058608Y-40221000D01*
X165717897Y-40362127D01*
X165457127Y-40622897D01*
X165316000Y-40963608D01*
X165316000Y-41332392D01*
X165457127Y-41673103D01*
X165591001Y-41806977D01*
X165591000Y-60174024D01*
X165457127Y-60307897D01*
X165316000Y-60648608D01*
X165316000Y-61017392D01*
X165457127Y-61358103D01*
X165548024Y-61449000D01*
X157772827Y-61449000D01*
X157899000Y-61144392D01*
X157899000Y-60775608D01*
X157757873Y-60434897D01*
X157624000Y-60301024D01*
X157624000Y-42695976D01*
X157757873Y-42562103D01*
X157899000Y-42221392D01*
X157899000Y-41852608D01*
X157757873Y-41511897D01*
X157497103Y-41251127D01*
X157156392Y-41110000D01*
X156787608Y-41110000D01*
X156446897Y-41251127D01*
X156186127Y-41511897D01*
X156045000Y-41852608D01*
X156045000Y-42221392D01*
X156186127Y-42562103D01*
X156320001Y-42695977D01*
X156320000Y-60301024D01*
X156186127Y-60434897D01*
X156045000Y-60775608D01*
X156045000Y-61144392D01*
X156171173Y-61449000D01*
X155740827Y-61449000D01*
X155867000Y-61144392D01*
X155867000Y-60775608D01*
X155725873Y-60434897D01*
X155592000Y-60301024D01*
X155592000Y-44473976D01*
X155725873Y-44340103D01*
X155867000Y-43999392D01*
X155867000Y-43630608D01*
X155725873Y-43289897D01*
X155465103Y-43029127D01*
X155124392Y-42888000D01*
X154755608Y-42888000D01*
X154414897Y-43029127D01*
X154154127Y-43289897D01*
X154013000Y-43630608D01*
X154013000Y-43999392D01*
X154154127Y-44340103D01*
X154288001Y-44473977D01*
X154288000Y-60301024D01*
X154154127Y-60434897D01*
X154013000Y-60775608D01*
X154013000Y-61144392D01*
X154139173Y-61449000D01*
X151189976Y-61449000D01*
X151280873Y-61358103D01*
X151422000Y-61017392D01*
X151422000Y-60648608D01*
X151280873Y-60307897D01*
X151147000Y-60174024D01*
X151147000Y-43584976D01*
X151280873Y-43451103D01*
X151422000Y-43110392D01*
X151422000Y-42741608D01*
X151280873Y-42400897D01*
X151020103Y-42140127D01*
X150679392Y-41999000D01*
X150310608Y-41999000D01*
X149969897Y-42140127D01*
X149709127Y-42400897D01*
X149568000Y-42741608D01*
X149568000Y-43110392D01*
X149709127Y-43451103D01*
X149843000Y-43584976D01*
X149843001Y-60174023D01*
X149709127Y-60307897D01*
X149568000Y-60648608D01*
X149568000Y-61017392D01*
X149709127Y-61358103D01*
X149800024Y-61449000D01*
X149157976Y-61449000D01*
X149248873Y-61358103D01*
X149390000Y-61017392D01*
X149390000Y-60648608D01*
X149248873Y-60307897D01*
X149115000Y-60174024D01*
X149115000Y-41806976D01*
X149248873Y-41673103D01*
X149390000Y-41332392D01*
X149390000Y-40963608D01*
X149248873Y-40622897D01*
X148988103Y-40362127D01*
X148647392Y-40221000D01*
X148278608Y-40221000D01*
X147937897Y-40362127D01*
X147677127Y-40622897D01*
X147536000Y-40963608D01*
X147536000Y-41332392D01*
X147677127Y-41673103D01*
X147811001Y-41806977D01*
X147811000Y-60174024D01*
X147677127Y-60307897D01*
X147536000Y-60648608D01*
X147536000Y-61017392D01*
X147677127Y-61358103D01*
X147768024Y-61449000D01*
X139992827Y-61449000D01*
X140119000Y-61144392D01*
X140119000Y-60775608D01*
X139977873Y-60434897D01*
X139844000Y-60301024D01*
X139844000Y-42695976D01*
X139977873Y-42562103D01*
X140119000Y-42221392D01*
X140119000Y-41852608D01*
X139977873Y-41511897D01*
X139717103Y-41251127D01*
X139376392Y-41110000D01*
X139007608Y-41110000D01*
X138666897Y-41251127D01*
X138406127Y-41511897D01*
X138265000Y-41852608D01*
X138265000Y-42221392D01*
X138406127Y-42562103D01*
X138540001Y-42695977D01*
X138540000Y-60301024D01*
X138406127Y-60434897D01*
X138265000Y-60775608D01*
X138265000Y-61144392D01*
X138391173Y-61449000D01*
X137960827Y-61449000D01*
X138087000Y-61144392D01*
X138087000Y-60775608D01*
X137945873Y-60434897D01*
X137812000Y-60301024D01*
X137812000Y-44473976D01*
X137945873Y-44340103D01*
X138087000Y-43999392D01*
X138087000Y-43630608D01*
X137945873Y-43289897D01*
X137685103Y-43029127D01*
X137344392Y-42888000D01*
X136975608Y-42888000D01*
X136634897Y-43029127D01*
X136374127Y-43289897D01*
X136233000Y-43630608D01*
X136233000Y-43999392D01*
X136374127Y-44340103D01*
X136508001Y-44473977D01*
X136508000Y-60301024D01*
X136374127Y-60434897D01*
X136233000Y-60775608D01*
X136233000Y-61144392D01*
X136359173Y-61449000D01*
X133409976Y-61449000D01*
X133500873Y-61358103D01*
X133642000Y-61017392D01*
X133642000Y-60648608D01*
X133500873Y-60307897D01*
X133367000Y-60174024D01*
X133367000Y-43584976D01*
X133500873Y-43451103D01*
X133642000Y-43110392D01*
X133642000Y-42741608D01*
X133500873Y-42400897D01*
X133240103Y-42140127D01*
X132899392Y-41999000D01*
X132530608Y-41999000D01*
X132189897Y-42140127D01*
X131929127Y-42400897D01*
X131788000Y-42741608D01*
X131788000Y-43110392D01*
X131929127Y-43451103D01*
X132063000Y-43584976D01*
X132063001Y-60174023D01*
X131929127Y-60307897D01*
X131788000Y-60648608D01*
X131788000Y-61017392D01*
X131929127Y-61358103D01*
X132020024Y-61449000D01*
X131377976Y-61449000D01*
X131468873Y-61358103D01*
X131610000Y-61017392D01*
X131610000Y-60648608D01*
X131468873Y-60307897D01*
X131335000Y-60174024D01*
X131335000Y-41806976D01*
X131468873Y-41673103D01*
X131610000Y-41332392D01*
X131610000Y-40963608D01*
X131468873Y-40622897D01*
X131208103Y-40362127D01*
X130867392Y-40221000D01*
X130498608Y-40221000D01*
X130157897Y-40362127D01*
X129897127Y-40622897D01*
X129756000Y-40963608D01*
X129756000Y-41332392D01*
X129897127Y-41673103D01*
X130031001Y-41806977D01*
X130031000Y-60174024D01*
X129897127Y-60307897D01*
X129756000Y-60648608D01*
X129756000Y-61017392D01*
X129897127Y-61358103D01*
X129988024Y-61449000D01*
X122212827Y-61449000D01*
X122339000Y-61144392D01*
X122339000Y-60775608D01*
X122197873Y-60434897D01*
X122064000Y-60301024D01*
X122064000Y-42695976D01*
X122197873Y-42562103D01*
X122339000Y-42221392D01*
X122339000Y-41852608D01*
X122197873Y-41511897D01*
X121937103Y-41251127D01*
X121596392Y-41110000D01*
X121227608Y-41110000D01*
X120886897Y-41251127D01*
X120626127Y-41511897D01*
X120485000Y-41852608D01*
X120485000Y-42221392D01*
X120626127Y-42562103D01*
X120760001Y-42695977D01*
X120760000Y-60301024D01*
X120626127Y-60434897D01*
X120485000Y-60775608D01*
X120485000Y-61144392D01*
X120611173Y-61449000D01*
X120180827Y-61449000D01*
X120307000Y-61144392D01*
X120307000Y-60775608D01*
X120165873Y-60434897D01*
X120032000Y-60301024D01*
X120032000Y-44473976D01*
X120165873Y-44340103D01*
X120307000Y-43999392D01*
X120307000Y-43630608D01*
X120165873Y-43289897D01*
X119905103Y-43029127D01*
X119564392Y-42888000D01*
X119195608Y-42888000D01*
X118854897Y-43029127D01*
X118594127Y-43289897D01*
X118453000Y-43630608D01*
X118453000Y-43999392D01*
X118594127Y-44340103D01*
X118728001Y-44473977D01*
X118728000Y-60301024D01*
X118594127Y-60434897D01*
X118453000Y-60775608D01*
X118453000Y-61144392D01*
X118579173Y-61449000D01*
X115629976Y-61449000D01*
X115720873Y-61358103D01*
X115862000Y-61017392D01*
X115862000Y-60648608D01*
X115720873Y-60307897D01*
X115587000Y-60174024D01*
X115587000Y-43584976D01*
X115720873Y-43451103D01*
X115862000Y-43110392D01*
X115862000Y-42741608D01*
X115720873Y-42400897D01*
X115460103Y-42140127D01*
X115119392Y-41999000D01*
X114750608Y-41999000D01*
X114409897Y-42140127D01*
X114149127Y-42400897D01*
X114008000Y-42741608D01*
X114008000Y-43110392D01*
X114149127Y-43451103D01*
X114283000Y-43584976D01*
X114283001Y-60174023D01*
X114149127Y-60307897D01*
X114008000Y-60648608D01*
X114008000Y-61017392D01*
X114149127Y-61358103D01*
X114240024Y-61449000D01*
X113597976Y-61449000D01*
X113688873Y-61358103D01*
X113830000Y-61017392D01*
X113830000Y-60648608D01*
X113688873Y-60307897D01*
X113555000Y-60174024D01*
X113555000Y-41806976D01*
X113688873Y-41673103D01*
X113830000Y-41332392D01*
X113830000Y-40963608D01*
X113688873Y-40622897D01*
X113428103Y-40362127D01*
X113087392Y-40221000D01*
X112718608Y-40221000D01*
X112377897Y-40362127D01*
X112117127Y-40622897D01*
X111976000Y-40963608D01*
X111976000Y-41332392D01*
X112117127Y-41673103D01*
X112251001Y-41806977D01*
X112251000Y-60174024D01*
X112117127Y-60307897D01*
X111976000Y-60648608D01*
X111976000Y-61017392D01*
X112117127Y-61358103D01*
X112208024Y-61449000D01*
X104432827Y-61449000D01*
X104559000Y-61144392D01*
X104559000Y-60775608D01*
X104417873Y-60434897D01*
X104284000Y-60301024D01*
X104284000Y-42695976D01*
X104417873Y-42562103D01*
X104559000Y-42221392D01*
X104559000Y-41852608D01*
X104417873Y-41511897D01*
X104157103Y-41251127D01*
X103816392Y-41110000D01*
X103447608Y-41110000D01*
X103106897Y-41251127D01*
X102846127Y-41511897D01*
X102705000Y-41852608D01*
X102705000Y-42221392D01*
X102846127Y-42562103D01*
X102980001Y-42695977D01*
X102980000Y-60301024D01*
X102846127Y-60434897D01*
X102705000Y-60775608D01*
X102705000Y-61144392D01*
X102831173Y-61449000D01*
X102400827Y-61449000D01*
X102527000Y-61144392D01*
X102527000Y-60775608D01*
X102385873Y-60434897D01*
X102252000Y-60301024D01*
X102252000Y-44473976D01*
X102385873Y-44340103D01*
X102527000Y-43999392D01*
X102527000Y-43630608D01*
X102385873Y-43289897D01*
X102125103Y-43029127D01*
X101784392Y-42888000D01*
X101415608Y-42888000D01*
X101074897Y-43029127D01*
X100814127Y-43289897D01*
X100673000Y-43630608D01*
X100673000Y-43999392D01*
X100814127Y-44340103D01*
X100948001Y-44473977D01*
X100948000Y-60301024D01*
X100814127Y-60434897D01*
X100673000Y-60775608D01*
X100673000Y-61144392D01*
X100799173Y-61449000D01*
X97849976Y-61449000D01*
X97940873Y-61358103D01*
X98082000Y-61017392D01*
X98082000Y-60648608D01*
X97940873Y-60307897D01*
X97807000Y-60174024D01*
X97807000Y-43584976D01*
X97940873Y-43451103D01*
X98082000Y-43110392D01*
X98082000Y-42741608D01*
X97940873Y-42400897D01*
X97680103Y-42140127D01*
X97339392Y-41999000D01*
X96970608Y-41999000D01*
X96629897Y-42140127D01*
X96369127Y-42400897D01*
X96228000Y-42741608D01*
X96228000Y-43110392D01*
X96369127Y-43451103D01*
X96503000Y-43584976D01*
X96503001Y-60174023D01*
X96369127Y-60307897D01*
X96228000Y-60648608D01*
X96228000Y-61017392D01*
X96369127Y-61358103D01*
X96460024Y-61449000D01*
X95817976Y-61449000D01*
X95908873Y-61358103D01*
X96050000Y-61017392D01*
X96050000Y-60648608D01*
X95908873Y-60307897D01*
X95775000Y-60174024D01*
X95775000Y-41806976D01*
X95908873Y-41673103D01*
X96050000Y-41332392D01*
X96050000Y-40963608D01*
X95908873Y-40622897D01*
X95648103Y-40362127D01*
X95307392Y-40221000D01*
X94938608Y-40221000D01*
X94597897Y-40362127D01*
X94337127Y-40622897D01*
X94196000Y-40963608D01*
X94196000Y-41332392D01*
X94337127Y-41673103D01*
X94471001Y-41806977D01*
X94471000Y-60174024D01*
X94337127Y-60307897D01*
X94196000Y-60648608D01*
X94196000Y-61017392D01*
X94337127Y-61358103D01*
X94428024Y-61449000D01*
X86652827Y-61449000D01*
X86779000Y-61144392D01*
X86779000Y-60775608D01*
X86637873Y-60434897D01*
X86504000Y-60301024D01*
X86504000Y-42695976D01*
X86637873Y-42562103D01*
X86779000Y-42221392D01*
X86779000Y-41852608D01*
X86637873Y-41511897D01*
X86377103Y-41251127D01*
X86036392Y-41110000D01*
X85667608Y-41110000D01*
X85326897Y-41251127D01*
X85066127Y-41511897D01*
X84925000Y-41852608D01*
X84925000Y-42221392D01*
X85066127Y-42562103D01*
X85200001Y-42695977D01*
X85200000Y-60301024D01*
X85066127Y-60434897D01*
X84925000Y-60775608D01*
X84925000Y-61144392D01*
X85051173Y-61449000D01*
X84620827Y-61449000D01*
X84747000Y-61144392D01*
X84747000Y-60775608D01*
X84605873Y-60434897D01*
X84472000Y-60301024D01*
X84472000Y-44473976D01*
X84605873Y-44340103D01*
X84747000Y-43999392D01*
X84747000Y-43630608D01*
X84605873Y-43289897D01*
X84345103Y-43029127D01*
X84004392Y-42888000D01*
X83635608Y-42888000D01*
X83294897Y-43029127D01*
X83034127Y-43289897D01*
X82893000Y-43630608D01*
X82893000Y-43999392D01*
X83034127Y-44340103D01*
X83168001Y-44473977D01*
X83168000Y-60301024D01*
X83034127Y-60434897D01*
X82893000Y-60775608D01*
X82893000Y-61144392D01*
X83019173Y-61449000D01*
X80069976Y-61449000D01*
X80160873Y-61358103D01*
X80302000Y-61017392D01*
X80302000Y-60648608D01*
X80160873Y-60307897D01*
X80027000Y-60174024D01*
X80027000Y-43584976D01*
X80160873Y-43451103D01*
X80302000Y-43110392D01*
X80302000Y-42741608D01*
X80160873Y-42400897D01*
X79900103Y-42140127D01*
X79559392Y-41999000D01*
X79190608Y-41999000D01*
X78849897Y-42140127D01*
X78589127Y-42400897D01*
X78448000Y-42741608D01*
X78448000Y-43110392D01*
X78589127Y-43451103D01*
X78723000Y-43584976D01*
X78723001Y-60174023D01*
X78589127Y-60307897D01*
X78448000Y-60648608D01*
X78448000Y-61017392D01*
X78589127Y-61358103D01*
X78680024Y-61449000D01*
X78037976Y-61449000D01*
X78128873Y-61358103D01*
X78270000Y-61017392D01*
X78270000Y-60648608D01*
X78128873Y-60307897D01*
X77995000Y-60174024D01*
X77995000Y-41806976D01*
X78128873Y-41673103D01*
X78270000Y-41332392D01*
X78270000Y-40963608D01*
X78128873Y-40622897D01*
X77868103Y-40362127D01*
X77527392Y-40221000D01*
X77158608Y-40221000D01*
X76817897Y-40362127D01*
X76557127Y-40622897D01*
X76416000Y-40963608D01*
X76416000Y-41332392D01*
X76557127Y-41673103D01*
X76691001Y-41806977D01*
X76691000Y-60174024D01*
X76557127Y-60307897D01*
X76416000Y-60648608D01*
X76416000Y-61017392D01*
X76557127Y-61358103D01*
X76648024Y-61449000D01*
X68872827Y-61449000D01*
X68999000Y-61144392D01*
X68999000Y-60775608D01*
X68857873Y-60434897D01*
X68724000Y-60301024D01*
X68724000Y-42695976D01*
X68857873Y-42562103D01*
X68999000Y-42221392D01*
X68999000Y-41852608D01*
X68857873Y-41511897D01*
X68597103Y-41251127D01*
X68256392Y-41110000D01*
X67887608Y-41110000D01*
X67546897Y-41251127D01*
X67286127Y-41511897D01*
X67145000Y-41852608D01*
X67145000Y-42221392D01*
X67286127Y-42562103D01*
X67420001Y-42695977D01*
X67420000Y-60301024D01*
X67286127Y-60434897D01*
X67145000Y-60775608D01*
X67145000Y-61144392D01*
X67271173Y-61449000D01*
X66840827Y-61449000D01*
X66967000Y-61144392D01*
X66967000Y-60775608D01*
X66825873Y-60434897D01*
X66692000Y-60301024D01*
X66692000Y-44473976D01*
X66825873Y-44340103D01*
X66967000Y-43999392D01*
X66967000Y-43630608D01*
X66825873Y-43289897D01*
X66565103Y-43029127D01*
X66224392Y-42888000D01*
X65855608Y-42888000D01*
X65514897Y-43029127D01*
X65254127Y-43289897D01*
X65113000Y-43630608D01*
X65113000Y-43999392D01*
X65254127Y-44340103D01*
X65388001Y-44473977D01*
X65388000Y-60301024D01*
X65254127Y-60434897D01*
X65113000Y-60775608D01*
X65113000Y-61144392D01*
X65239173Y-61449000D01*
X62289976Y-61449000D01*
X62380873Y-61358103D01*
X62522000Y-61017392D01*
X62522000Y-60828067D01*
X62899628Y-60450439D01*
X62954065Y-60414065D01*
X63098170Y-60198398D01*
X63136000Y-60008214D01*
X63136000Y-60008210D01*
X63148772Y-59944000D01*
X63136000Y-59879790D01*
X63136000Y-43584976D01*
X63269873Y-43451103D01*
X63411000Y-43110392D01*
X63411000Y-42741608D01*
X63269873Y-42400897D01*
X63009103Y-42140127D01*
X62668392Y-41999000D01*
X62299608Y-41999000D01*
X61958897Y-42140127D01*
X61698127Y-42400897D01*
X61557000Y-42741608D01*
X61557000Y-43110392D01*
X61698127Y-43451103D01*
X61832000Y-43584976D01*
X61832001Y-59673932D01*
X61599933Y-59906000D01*
X61410608Y-59906000D01*
X61209500Y-59989302D01*
X61218511Y-59944000D01*
X61231000Y-59881214D01*
X61231000Y-59881210D01*
X61243772Y-59817000D01*
X61231000Y-59752790D01*
X61231000Y-41806976D01*
X61364873Y-41673103D01*
X61506000Y-41332392D01*
X61506000Y-40963608D01*
X61364873Y-40622897D01*
X61104103Y-40362127D01*
X60763392Y-40221000D01*
X60394608Y-40221000D01*
X60053897Y-40362127D01*
X59793127Y-40622897D01*
X59652000Y-40963608D01*
X59652000Y-41332392D01*
X59793127Y-41673103D01*
X59927000Y-41806976D01*
X59927001Y-59546932D01*
X59567934Y-59906000D01*
X59378608Y-59906000D01*
X59037897Y-60047127D01*
X58777127Y-60307897D01*
X58636000Y-60648608D01*
X58636000Y-61017392D01*
X58777127Y-61358103D01*
X58868024Y-61449000D01*
X57804000Y-61449000D01*
X57804000Y-48996506D01*
X57882721Y-49049106D01*
X58284377Y-49129000D01*
X58555623Y-49129000D01*
X58957279Y-49049106D01*
X59412762Y-48744762D01*
X59717106Y-48289279D01*
X59823977Y-47752000D01*
X59717106Y-47214721D01*
X59412762Y-46759238D01*
X58957279Y-46454894D01*
X58555623Y-46375000D01*
X58284377Y-46375000D01*
X57882721Y-46454894D01*
X57804000Y-46507494D01*
X57804000Y-46355000D01*
X57763885Y-46153326D01*
X57649645Y-45982355D01*
X57478674Y-45868115D01*
X57277000Y-45828000D01*
X54610000Y-45828000D01*
X54408326Y-45868115D01*
X54237355Y-45982355D01*
X54123115Y-46153326D01*
X54083000Y-46355000D01*
X54083000Y-46364676D01*
X52490000Y-46364676D01*
X52284375Y-46405577D01*
X52110055Y-46522055D01*
X51993577Y-46696375D01*
X51952676Y-46902000D01*
X51952676Y-48602000D01*
X51993577Y-48807625D01*
X52110055Y-48981945D01*
X52284375Y-49098423D01*
X52490000Y-49139324D01*
X54083000Y-49139324D01*
X54083000Y-61449000D01*
X51092827Y-61449000D01*
X51219000Y-61144392D01*
X51219000Y-60775608D01*
X51077873Y-60434897D01*
X50944000Y-60301024D01*
X50944000Y-42695976D01*
X51077873Y-42562103D01*
X51219000Y-42221392D01*
X51219000Y-41852608D01*
X51077873Y-41511897D01*
X50817103Y-41251127D01*
X50476392Y-41110000D01*
X50107608Y-41110000D01*
X49766897Y-41251127D01*
X49506127Y-41511897D01*
X49365000Y-41852608D01*
X49365000Y-42221392D01*
X49506127Y-42562103D01*
X49640001Y-42695977D01*
X49640000Y-60301024D01*
X49506127Y-60434897D01*
X49365000Y-60775608D01*
X49365000Y-61144392D01*
X49491173Y-61449000D01*
X49060827Y-61449000D01*
X49187000Y-61144392D01*
X49187000Y-60775608D01*
X49045873Y-60434897D01*
X48912000Y-60301024D01*
X48912000Y-44473976D01*
X49045873Y-44340103D01*
X49187000Y-43999392D01*
X49187000Y-43630608D01*
X49045873Y-43289897D01*
X48785103Y-43029127D01*
X48444392Y-42888000D01*
X48075608Y-42888000D01*
X47734897Y-43029127D01*
X47474127Y-43289897D01*
X47333000Y-43630608D01*
X47333000Y-43999392D01*
X47474127Y-44340103D01*
X47608001Y-44473977D01*
X47608000Y-60301024D01*
X47474127Y-60434897D01*
X47333000Y-60775608D01*
X47333000Y-61144392D01*
X47459173Y-61449000D01*
X45212000Y-61449000D01*
X45010326Y-61489115D01*
X44839355Y-61603355D01*
X44725115Y-61774326D01*
X44685000Y-61976000D01*
X38767929Y-61976000D01*
X38868977Y-61468000D01*
X38762106Y-60930721D01*
X38457762Y-60475238D01*
X38042846Y-60198000D01*
X38457762Y-59920762D01*
X38762106Y-59465279D01*
X38868977Y-58928000D01*
X38762106Y-58390721D01*
X38457762Y-57935238D01*
X38042846Y-57658000D01*
X38457762Y-57380762D01*
X38762106Y-56925279D01*
X38868977Y-56388000D01*
X38762106Y-55850721D01*
X38457762Y-55395238D01*
X38042846Y-55118000D01*
X38457762Y-54840762D01*
X38762106Y-54385279D01*
X38868977Y-53848000D01*
X38762106Y-53310721D01*
X38457762Y-52855238D01*
X38102364Y-52617769D01*
X38346358Y-52503183D01*
X38736645Y-52074924D01*
X38906476Y-51664890D01*
X38785155Y-51435000D01*
X37592000Y-51435000D01*
X37592000Y-51455000D01*
X37338000Y-51455000D01*
X37338000Y-51435000D01*
X37318000Y-51435000D01*
X37318000Y-51181000D01*
X37338000Y-51181000D01*
X37338000Y-51161000D01*
X37592000Y-51161000D01*
X37592000Y-51181000D01*
X38785155Y-51181000D01*
X38906476Y-50951110D01*
X38736645Y-50541076D01*
X38346358Y-50112817D01*
X38102364Y-49998231D01*
X38457762Y-49760762D01*
X38762106Y-49305279D01*
X38868977Y-48768000D01*
X38762106Y-48230721D01*
X38457762Y-47775238D01*
X38042846Y-47498000D01*
X38457762Y-47220762D01*
X38762106Y-46765279D01*
X38868977Y-46228000D01*
X38762106Y-45690721D01*
X38457762Y-45235238D01*
X38002279Y-44930894D01*
X37600623Y-44851000D01*
X37329377Y-44851000D01*
X36927721Y-44930894D01*
X36472238Y-45235238D01*
X36312324Y-45474566D01*
X36312324Y-45378000D01*
X36271423Y-45172375D01*
X36154945Y-44998055D01*
X35980625Y-44881577D01*
X35775000Y-44840676D01*
X34075000Y-44840676D01*
X33869375Y-44881577D01*
X33695055Y-44998055D01*
X33578577Y-45172375D01*
X33537676Y-45378000D01*
X33537676Y-47078000D01*
X33578577Y-47283625D01*
X33695055Y-47457945D01*
X33869375Y-47574423D01*
X34075000Y-47615324D01*
X34171566Y-47615324D01*
X33932238Y-47775238D01*
X33627894Y-48230721D01*
X33521023Y-48768000D01*
X20447000Y-48768000D01*
X20447000Y-42076913D01*
X22873000Y-42076913D01*
X22873000Y-42923087D01*
X23196817Y-43704848D01*
X23795152Y-44303183D01*
X24576913Y-44627000D01*
X25423087Y-44627000D01*
X26204848Y-44303183D01*
X26803183Y-43704848D01*
X27127000Y-42923087D01*
X27127000Y-42076913D01*
X26803183Y-41295152D01*
X26204848Y-40696817D01*
X25423087Y-40373000D01*
X24576913Y-40373000D01*
X23795152Y-40696817D01*
X23196817Y-41295152D01*
X22873000Y-42076913D01*
X20447000Y-42076913D01*
X20447000Y-38227000D01*
X234823000Y-38227000D01*
X234823000Y-96393000D01*
X234823000Y-96393000D01*
G37*
X234823000Y-96393000D02*
X20447000Y-96393000D01*
X20447000Y-92076913D01*
X22873000Y-92076913D01*
X22873000Y-92923087D01*
X23196817Y-93704848D01*
X23795152Y-94303183D01*
X24576913Y-94627000D01*
X25423087Y-94627000D01*
X26204848Y-94303183D01*
X26803183Y-93704848D01*
X27127000Y-92923087D01*
X27127000Y-92076913D01*
X26803183Y-91295152D01*
X26204848Y-90696817D01*
X25423087Y-90373000D01*
X24576913Y-90373000D01*
X23795152Y-90696817D01*
X23196817Y-91295152D01*
X22873000Y-92076913D01*
X20447000Y-92076913D01*
X20447000Y-48768000D01*
X33521023Y-48768000D01*
X33627894Y-49305279D01*
X33932238Y-49760762D01*
X34347154Y-50038000D01*
X33932238Y-50315238D01*
X33627894Y-50770721D01*
X33521023Y-51308000D01*
X33627894Y-51845279D01*
X33932238Y-52300762D01*
X34347154Y-52578000D01*
X33932238Y-52855238D01*
X33627894Y-53310721D01*
X33521023Y-53848000D01*
X33627894Y-54385279D01*
X33932238Y-54840762D01*
X34347154Y-55118000D01*
X33932238Y-55395238D01*
X33627894Y-55850721D01*
X33521023Y-56388000D01*
X33627894Y-56925279D01*
X33932238Y-57380762D01*
X34347154Y-57658000D01*
X33932238Y-57935238D01*
X33627894Y-58390721D01*
X33521023Y-58928000D01*
X33627894Y-59465279D01*
X33932238Y-59920762D01*
X34347154Y-60198000D01*
X33932238Y-60475238D01*
X33627894Y-60930721D01*
X33521023Y-61468000D01*
X33627894Y-62005279D01*
X33932238Y-62460762D01*
X34347154Y-62738000D01*
X33932238Y-63015238D01*
X33627894Y-63470721D01*
X33521023Y-64008000D01*
X33627894Y-64545279D01*
X33932238Y-65000762D01*
X34347154Y-65278000D01*
X33932238Y-65555238D01*
X33627894Y-66010721D01*
X33521023Y-66548000D01*
X33627894Y-67085279D01*
X33932238Y-67540762D01*
X34347154Y-67818000D01*
X33932238Y-68095238D01*
X33627894Y-68550721D01*
X33521023Y-69088000D01*
X33627894Y-69625279D01*
X33932238Y-70080762D01*
X34347154Y-70358000D01*
X33932238Y-70635238D01*
X33627894Y-71090721D01*
X33521023Y-71628000D01*
X33627894Y-72165279D01*
X33932238Y-72620762D01*
X34347154Y-72898000D01*
X33932238Y-73175238D01*
X33627894Y-73630721D01*
X33521023Y-74168000D01*
X33627894Y-74705279D01*
X33932238Y-75160762D01*
X34347154Y-75438000D01*
X33932238Y-75715238D01*
X33627894Y-76170721D01*
X33521023Y-76708000D01*
X33627894Y-77245279D01*
X33932238Y-77700762D01*
X34347154Y-77978000D01*
X33932238Y-78255238D01*
X33627894Y-78710721D01*
X33521023Y-79248000D01*
X33627894Y-79785279D01*
X33932238Y-80240762D01*
X34347154Y-80518000D01*
X33932238Y-80795238D01*
X33627894Y-81250721D01*
X33521023Y-81788000D01*
X33627894Y-82325279D01*
X33932238Y-82780762D01*
X34347154Y-83058000D01*
X33932238Y-83335238D01*
X33627894Y-83790721D01*
X33521023Y-84328000D01*
X33627894Y-84865279D01*
X33932238Y-85320762D01*
X34347154Y-85598000D01*
X33932238Y-85875238D01*
X33627894Y-86330721D01*
X33521023Y-86868000D01*
X33627894Y-87405279D01*
X33932238Y-87860762D01*
X34347154Y-88138000D01*
X33932238Y-88415238D01*
X33627894Y-88870721D01*
X33521023Y-89408000D01*
X33627894Y-89945279D01*
X33932238Y-90400762D01*
X34347154Y-90678000D01*
X33932238Y-90955238D01*
X33627894Y-91410721D01*
X33521023Y-91948000D01*
X33627894Y-92485279D01*
X33932238Y-92940762D01*
X34347154Y-93218000D01*
X33932238Y-93495238D01*
X33627894Y-93950721D01*
X33521023Y-94488000D01*
X33627894Y-95025279D01*
X33932238Y-95480762D01*
X34387721Y-95785106D01*
X34789377Y-95865000D01*
X35060623Y-95865000D01*
X35462279Y-95785106D01*
X35917762Y-95480762D01*
X36195000Y-95065846D01*
X36472238Y-95480762D01*
X36927721Y-95785106D01*
X37329377Y-95865000D01*
X37600623Y-95865000D01*
X38002279Y-95785106D01*
X38457762Y-95480762D01*
X38762106Y-95025279D01*
X38868977Y-94488000D01*
X38762106Y-93950721D01*
X38457762Y-93495238D01*
X38042846Y-93218000D01*
X38457762Y-92940762D01*
X38762106Y-92485279D01*
X38868977Y-91948000D01*
X38762106Y-91410721D01*
X38457762Y-90955238D01*
X38337678Y-90875000D01*
X45999676Y-90875000D01*
X45999676Y-93275000D01*
X46040577Y-93480625D01*
X46157055Y-93654945D01*
X46331375Y-93771423D01*
X46537000Y-93812324D01*
X48937000Y-93812324D01*
X49142625Y-93771423D01*
X49316945Y-93654945D01*
X49433423Y-93480625D01*
X49474324Y-93275000D01*
X49474324Y-91731478D01*
X49510000Y-91731478D01*
X49510000Y-92418522D01*
X49772920Y-93053267D01*
X50258733Y-93539080D01*
X50893478Y-93802000D01*
X51580522Y-93802000D01*
X52215267Y-93539080D01*
X52701080Y-93053267D01*
X52964000Y-92418522D01*
X52964000Y-91731478D01*
X53010000Y-91731478D01*
X53010000Y-92418522D01*
X53272920Y-93053267D01*
X53758733Y-93539080D01*
X54393478Y-93802000D01*
X55080522Y-93802000D01*
X55715267Y-93539080D01*
X56201080Y-93053267D01*
X56464000Y-92418522D01*
X56464000Y-91731478D01*
X56510000Y-91731478D01*
X56510000Y-92418522D01*
X56772920Y-93053267D01*
X57258733Y-93539080D01*
X57893478Y-93802000D01*
X58580522Y-93802000D01*
X59215267Y-93539080D01*
X59701080Y-93053267D01*
X59964000Y-92418522D01*
X59964000Y-91731478D01*
X59701080Y-91096733D01*
X59479347Y-90875000D01*
X63779676Y-90875000D01*
X63779676Y-93275000D01*
X63820577Y-93480625D01*
X63937055Y-93654945D01*
X64111375Y-93771423D01*
X64317000Y-93812324D01*
X66717000Y-93812324D01*
X66922625Y-93771423D01*
X67096945Y-93654945D01*
X67213423Y-93480625D01*
X67254324Y-93275000D01*
X67254324Y-91731478D01*
X67290000Y-91731478D01*
X67290000Y-92418522D01*
X67552920Y-93053267D01*
X68038733Y-93539080D01*
X68673478Y-93802000D01*
X69360522Y-93802000D01*
X69995267Y-93539080D01*
X70481080Y-93053267D01*
X70744000Y-92418522D01*
X70744000Y-91731478D01*
X70790000Y-91731478D01*
X70790000Y-92418522D01*
X71052920Y-93053267D01*
X71538733Y-93539080D01*
X72173478Y-93802000D01*
X72860522Y-93802000D01*
X73495267Y-93539080D01*
X73981080Y-93053267D01*
X74244000Y-92418522D01*
X74244000Y-91731478D01*
X74290000Y-91731478D01*
X74290000Y-92418522D01*
X74552920Y-93053267D01*
X75038733Y-93539080D01*
X75673478Y-93802000D01*
X76360522Y-93802000D01*
X76995267Y-93539080D01*
X77481080Y-93053267D01*
X77744000Y-92418522D01*
X77744000Y-91731478D01*
X77481080Y-91096733D01*
X77259347Y-90875000D01*
X81559676Y-90875000D01*
X81559676Y-93275000D01*
X81600577Y-93480625D01*
X81717055Y-93654945D01*
X81891375Y-93771423D01*
X82097000Y-93812324D01*
X84497000Y-93812324D01*
X84702625Y-93771423D01*
X84876945Y-93654945D01*
X84993423Y-93480625D01*
X85034324Y-93275000D01*
X85034324Y-91731478D01*
X85070000Y-91731478D01*
X85070000Y-92418522D01*
X85332920Y-93053267D01*
X85818733Y-93539080D01*
X86453478Y-93802000D01*
X87140522Y-93802000D01*
X87775267Y-93539080D01*
X88261080Y-93053267D01*
X88524000Y-92418522D01*
X88524000Y-91731478D01*
X88570000Y-91731478D01*
X88570000Y-92418522D01*
X88832920Y-93053267D01*
X89318733Y-93539080D01*
X89953478Y-93802000D01*
X90640522Y-93802000D01*
X91275267Y-93539080D01*
X91761080Y-93053267D01*
X92024000Y-92418522D01*
X92024000Y-91731478D01*
X92070000Y-91731478D01*
X92070000Y-92418522D01*
X92332920Y-93053267D01*
X92818733Y-93539080D01*
X93453478Y-93802000D01*
X94140522Y-93802000D01*
X94775267Y-93539080D01*
X95261080Y-93053267D01*
X95524000Y-92418522D01*
X95524000Y-91731478D01*
X95261080Y-91096733D01*
X95039347Y-90875000D01*
X99339676Y-90875000D01*
X99339676Y-93275000D01*
X99380577Y-93480625D01*
X99497055Y-93654945D01*
X99671375Y-93771423D01*
X99877000Y-93812324D01*
X102277000Y-93812324D01*
X102482625Y-93771423D01*
X102656945Y-93654945D01*
X102773423Y-93480625D01*
X102814324Y-93275000D01*
X102814324Y-91731478D01*
X102850000Y-91731478D01*
X102850000Y-92418522D01*
X103112920Y-93053267D01*
X103598733Y-93539080D01*
X104233478Y-93802000D01*
X104920522Y-93802000D01*
X105555267Y-93539080D01*
X106041080Y-93053267D01*
X106304000Y-92418522D01*
X106304000Y-91731478D01*
X106350000Y-91731478D01*
X106350000Y-92418522D01*
X106612920Y-93053267D01*
X107098733Y-93539080D01*
X107733478Y-93802000D01*
X108420522Y-93802000D01*
X109055267Y-93539080D01*
X109541080Y-93053267D01*
X109804000Y-92418522D01*
X109804000Y-91731478D01*
X109850000Y-91731478D01*
X109850000Y-92418522D01*
X110112920Y-93053267D01*
X110598733Y-93539080D01*
X111233478Y-93802000D01*
X111920522Y-93802000D01*
X112555267Y-93539080D01*
X113041080Y-93053267D01*
X113304000Y-92418522D01*
X113304000Y-91731478D01*
X113041080Y-91096733D01*
X112819347Y-90875000D01*
X117119676Y-90875000D01*
X117119676Y-93275000D01*
X117160577Y-93480625D01*
X117277055Y-93654945D01*
X117451375Y-93771423D01*
X117657000Y-93812324D01*
X120057000Y-93812324D01*
X120262625Y-93771423D01*
X120436945Y-93654945D01*
X120553423Y-93480625D01*
X120594324Y-93275000D01*
X120594324Y-91731478D01*
X120630000Y-91731478D01*
X120630000Y-92418522D01*
X120892920Y-93053267D01*
X121378733Y-93539080D01*
X122013478Y-93802000D01*
X122700522Y-93802000D01*
X123335267Y-93539080D01*
X123821080Y-93053267D01*
X124084000Y-92418522D01*
X124084000Y-91731478D01*
X124130000Y-91731478D01*
X124130000Y-92418522D01*
X124392920Y-93053267D01*
X124878733Y-93539080D01*
X125513478Y-93802000D01*
X126200522Y-93802000D01*
X126835267Y-93539080D01*
X127321080Y-93053267D01*
X127584000Y-92418522D01*
X127584000Y-91731478D01*
X127630000Y-91731478D01*
X127630000Y-92418522D01*
X127892920Y-93053267D01*
X128378733Y-93539080D01*
X129013478Y-93802000D01*
X129700522Y-93802000D01*
X130335267Y-93539080D01*
X130821080Y-93053267D01*
X131084000Y-92418522D01*
X131084000Y-91731478D01*
X130821080Y-91096733D01*
X130599347Y-90875000D01*
X134899676Y-90875000D01*
X134899676Y-93275000D01*
X134940577Y-93480625D01*
X135057055Y-93654945D01*
X135231375Y-93771423D01*
X135437000Y-93812324D01*
X137837000Y-93812324D01*
X138042625Y-93771423D01*
X138216945Y-93654945D01*
X138333423Y-93480625D01*
X138374324Y-93275000D01*
X138374324Y-91731478D01*
X138410000Y-91731478D01*
X138410000Y-92418522D01*
X138672920Y-93053267D01*
X139158733Y-93539080D01*
X139793478Y-93802000D01*
X140480522Y-93802000D01*
X141115267Y-93539080D01*
X141601080Y-93053267D01*
X141864000Y-92418522D01*
X141864000Y-91731478D01*
X141910000Y-91731478D01*
X141910000Y-92418522D01*
X142172920Y-93053267D01*
X142658733Y-93539080D01*
X143293478Y-93802000D01*
X143980522Y-93802000D01*
X144615267Y-93539080D01*
X145101080Y-93053267D01*
X145364000Y-92418522D01*
X145364000Y-91731478D01*
X145410000Y-91731478D01*
X145410000Y-92418522D01*
X145672920Y-93053267D01*
X146158733Y-93539080D01*
X146793478Y-93802000D01*
X147480522Y-93802000D01*
X148115267Y-93539080D01*
X148601080Y-93053267D01*
X148864000Y-92418522D01*
X148864000Y-91731478D01*
X148601080Y-91096733D01*
X148379347Y-90875000D01*
X152679676Y-90875000D01*
X152679676Y-93275000D01*
X152720577Y-93480625D01*
X152837055Y-93654945D01*
X153011375Y-93771423D01*
X153217000Y-93812324D01*
X155617000Y-93812324D01*
X155822625Y-93771423D01*
X155996945Y-93654945D01*
X156113423Y-93480625D01*
X156154324Y-93275000D01*
X156154324Y-91731478D01*
X156190000Y-91731478D01*
X156190000Y-92418522D01*
X156452920Y-93053267D01*
X156938733Y-93539080D01*
X157573478Y-93802000D01*
X158260522Y-93802000D01*
X158895267Y-93539080D01*
X159381080Y-93053267D01*
X159644000Y-92418522D01*
X159644000Y-91731478D01*
X159690000Y-91731478D01*
X159690000Y-92418522D01*
X159952920Y-93053267D01*
X160438733Y-93539080D01*
X161073478Y-93802000D01*
X161760522Y-93802000D01*
X162395267Y-93539080D01*
X162881080Y-93053267D01*
X163144000Y-92418522D01*
X163144000Y-91731478D01*
X163190000Y-91731478D01*
X163190000Y-92418522D01*
X163452920Y-93053267D01*
X163938733Y-93539080D01*
X164573478Y-93802000D01*
X165260522Y-93802000D01*
X165895267Y-93539080D01*
X166381080Y-93053267D01*
X166644000Y-92418522D01*
X166644000Y-91731478D01*
X166381080Y-91096733D01*
X166159347Y-90875000D01*
X170459676Y-90875000D01*
X170459676Y-93275000D01*
X170500577Y-93480625D01*
X170617055Y-93654945D01*
X170791375Y-93771423D01*
X170997000Y-93812324D01*
X173397000Y-93812324D01*
X173602625Y-93771423D01*
X173776945Y-93654945D01*
X173893423Y-93480625D01*
X173934324Y-93275000D01*
X173934324Y-91731478D01*
X173970000Y-91731478D01*
X173970000Y-92418522D01*
X174232920Y-93053267D01*
X174718733Y-93539080D01*
X175353478Y-93802000D01*
X176040522Y-93802000D01*
X176675267Y-93539080D01*
X177161080Y-93053267D01*
X177424000Y-92418522D01*
X177424000Y-91731478D01*
X177470000Y-91731478D01*
X177470000Y-92418522D01*
X177732920Y-93053267D01*
X178218733Y-93539080D01*
X178853478Y-93802000D01*
X179540522Y-93802000D01*
X180175267Y-93539080D01*
X180661080Y-93053267D01*
X180924000Y-92418522D01*
X180924000Y-91731478D01*
X180970000Y-91731478D01*
X180970000Y-92418522D01*
X181232920Y-93053267D01*
X181718733Y-93539080D01*
X182353478Y-93802000D01*
X183040522Y-93802000D01*
X183675267Y-93539080D01*
X184161080Y-93053267D01*
X184424000Y-92418522D01*
X184424000Y-91731478D01*
X184161080Y-91096733D01*
X183939347Y-90875000D01*
X188239676Y-90875000D01*
X188239676Y-93275000D01*
X188280577Y-93480625D01*
X188397055Y-93654945D01*
X188571375Y-93771423D01*
X188777000Y-93812324D01*
X191177000Y-93812324D01*
X191382625Y-93771423D01*
X191556945Y-93654945D01*
X191673423Y-93480625D01*
X191714324Y-93275000D01*
X191714324Y-91731478D01*
X191750000Y-91731478D01*
X191750000Y-92418522D01*
X192012920Y-93053267D01*
X192498733Y-93539080D01*
X193133478Y-93802000D01*
X193820522Y-93802000D01*
X194455267Y-93539080D01*
X194941080Y-93053267D01*
X195204000Y-92418522D01*
X195204000Y-91731478D01*
X195250000Y-91731478D01*
X195250000Y-92418522D01*
X195512920Y-93053267D01*
X195998733Y-93539080D01*
X196633478Y-93802000D01*
X197320522Y-93802000D01*
X197955267Y-93539080D01*
X198441080Y-93053267D01*
X198704000Y-92418522D01*
X198704000Y-91731478D01*
X198750000Y-91731478D01*
X198750000Y-92418522D01*
X199012920Y-93053267D01*
X199498733Y-93539080D01*
X200133478Y-93802000D01*
X200820522Y-93802000D01*
X201455267Y-93539080D01*
X201941080Y-93053267D01*
X202204000Y-92418522D01*
X202204000Y-91731478D01*
X201941080Y-91096733D01*
X201719347Y-90875000D01*
X206019676Y-90875000D01*
X206019676Y-93275000D01*
X206060577Y-93480625D01*
X206177055Y-93654945D01*
X206351375Y-93771423D01*
X206557000Y-93812324D01*
X208957000Y-93812324D01*
X209162625Y-93771423D01*
X209336945Y-93654945D01*
X209453423Y-93480625D01*
X209494324Y-93275000D01*
X209494324Y-91731478D01*
X209530000Y-91731478D01*
X209530000Y-92418522D01*
X209792920Y-93053267D01*
X210278733Y-93539080D01*
X210913478Y-93802000D01*
X211600522Y-93802000D01*
X212235267Y-93539080D01*
X212721080Y-93053267D01*
X212984000Y-92418522D01*
X212984000Y-91731478D01*
X213030000Y-91731478D01*
X213030000Y-92418522D01*
X213292920Y-93053267D01*
X213778733Y-93539080D01*
X214413478Y-93802000D01*
X215100522Y-93802000D01*
X215735267Y-93539080D01*
X216221080Y-93053267D01*
X216484000Y-92418522D01*
X216484000Y-91731478D01*
X216530000Y-91731478D01*
X216530000Y-92418522D01*
X216792920Y-93053267D01*
X217278733Y-93539080D01*
X217913478Y-93802000D01*
X218600522Y-93802000D01*
X219235267Y-93539080D01*
X219721080Y-93053267D01*
X219984000Y-92418522D01*
X219984000Y-92076913D01*
X227873000Y-92076913D01*
X227873000Y-92923087D01*
X228196817Y-93704848D01*
X228795152Y-94303183D01*
X229576913Y-94627000D01*
X230423087Y-94627000D01*
X231204848Y-94303183D01*
X231803183Y-93704848D01*
X232127000Y-92923087D01*
X232127000Y-92076913D01*
X231803183Y-91295152D01*
X231204848Y-90696817D01*
X230423087Y-90373000D01*
X229576913Y-90373000D01*
X228795152Y-90696817D01*
X228196817Y-91295152D01*
X227873000Y-92076913D01*
X219984000Y-92076913D01*
X219984000Y-91731478D01*
X219721080Y-91096733D01*
X219235267Y-90610920D01*
X218600522Y-90348000D01*
X217913478Y-90348000D01*
X217278733Y-90610920D01*
X216792920Y-91096733D01*
X216530000Y-91731478D01*
X216484000Y-91731478D01*
X216221080Y-91096733D01*
X215735267Y-90610920D01*
X215100522Y-90348000D01*
X214413478Y-90348000D01*
X213778733Y-90610920D01*
X213292920Y-91096733D01*
X213030000Y-91731478D01*
X212984000Y-91731478D01*
X212721080Y-91096733D01*
X212235267Y-90610920D01*
X211600522Y-90348000D01*
X210913478Y-90348000D01*
X210278733Y-90610920D01*
X209792920Y-91096733D01*
X209530000Y-91731478D01*
X209494324Y-91731478D01*
X209494324Y-90875000D01*
X209453423Y-90669375D01*
X209336945Y-90495055D01*
X209162625Y-90378577D01*
X208957000Y-90337676D01*
X206557000Y-90337676D01*
X206351375Y-90378577D01*
X206177055Y-90495055D01*
X206060577Y-90669375D01*
X206019676Y-90875000D01*
X201719347Y-90875000D01*
X201455267Y-90610920D01*
X200820522Y-90348000D01*
X200133478Y-90348000D01*
X199498733Y-90610920D01*
X199012920Y-91096733D01*
X198750000Y-91731478D01*
X198704000Y-91731478D01*
X198441080Y-91096733D01*
X197955267Y-90610920D01*
X197320522Y-90348000D01*
X196633478Y-90348000D01*
X195998733Y-90610920D01*
X195512920Y-91096733D01*
X195250000Y-91731478D01*
X195204000Y-91731478D01*
X194941080Y-91096733D01*
X194455267Y-90610920D01*
X193820522Y-90348000D01*
X193133478Y-90348000D01*
X192498733Y-90610920D01*
X192012920Y-91096733D01*
X191750000Y-91731478D01*
X191714324Y-91731478D01*
X191714324Y-90875000D01*
X191673423Y-90669375D01*
X191556945Y-90495055D01*
X191382625Y-90378577D01*
X191177000Y-90337676D01*
X188777000Y-90337676D01*
X188571375Y-90378577D01*
X188397055Y-90495055D01*
X188280577Y-90669375D01*
X188239676Y-90875000D01*
X183939347Y-90875000D01*
X183675267Y-90610920D01*
X183040522Y-90348000D01*
X182353478Y-90348000D01*
X181718733Y-90610920D01*
X181232920Y-91096733D01*
X180970000Y-91731478D01*
X180924000Y-91731478D01*
X180661080Y-91096733D01*
X180175267Y-90610920D01*
X179540522Y-90348000D01*
X178853478Y-90348000D01*
X178218733Y-90610920D01*
X177732920Y-91096733D01*
X177470000Y-91731478D01*
X177424000Y-91731478D01*
X177161080Y-91096733D01*
X176675267Y-90610920D01*
X176040522Y-90348000D01*
X175353478Y-90348000D01*
X174718733Y-90610920D01*
X174232920Y-91096733D01*
X173970000Y-91731478D01*
X173934324Y-91731478D01*
X173934324Y-90875000D01*
X173893423Y-90669375D01*
X173776945Y-90495055D01*
X173602625Y-90378577D01*
X173397000Y-90337676D01*
X170997000Y-90337676D01*
X170791375Y-90378577D01*
X170617055Y-90495055D01*
X170500577Y-90669375D01*
X170459676Y-90875000D01*
X166159347Y-90875000D01*
X165895267Y-90610920D01*
X165260522Y-90348000D01*
X164573478Y-90348000D01*
X163938733Y-90610920D01*
X163452920Y-91096733D01*
X163190000Y-91731478D01*
X163144000Y-91731478D01*
X162881080Y-91096733D01*
X162395267Y-90610920D01*
X161760522Y-90348000D01*
X161073478Y-90348000D01*
X160438733Y-90610920D01*
X159952920Y-91096733D01*
X159690000Y-91731478D01*
X159644000Y-91731478D01*
X159381080Y-91096733D01*
X158895267Y-90610920D01*
X158260522Y-90348000D01*
X157573478Y-90348000D01*
X156938733Y-90610920D01*
X156452920Y-91096733D01*
X156190000Y-91731478D01*
X156154324Y-91731478D01*
X156154324Y-90875000D01*
X156113423Y-90669375D01*
X155996945Y-90495055D01*
X155822625Y-90378577D01*
X155617000Y-90337676D01*
X153217000Y-90337676D01*
X153011375Y-90378577D01*
X152837055Y-90495055D01*
X152720577Y-90669375D01*
X152679676Y-90875000D01*
X148379347Y-90875000D01*
X148115267Y-90610920D01*
X147480522Y-90348000D01*
X146793478Y-90348000D01*
X146158733Y-90610920D01*
X145672920Y-91096733D01*
X145410000Y-91731478D01*
X145364000Y-91731478D01*
X145101080Y-91096733D01*
X144615267Y-90610920D01*
X143980522Y-90348000D01*
X143293478Y-90348000D01*
X142658733Y-90610920D01*
X142172920Y-91096733D01*
X141910000Y-91731478D01*
X141864000Y-91731478D01*
X141601080Y-91096733D01*
X141115267Y-90610920D01*
X140480522Y-90348000D01*
X139793478Y-90348000D01*
X139158733Y-90610920D01*
X138672920Y-91096733D01*
X138410000Y-91731478D01*
X138374324Y-91731478D01*
X138374324Y-90875000D01*
X138333423Y-90669375D01*
X138216945Y-90495055D01*
X138042625Y-90378577D01*
X137837000Y-90337676D01*
X135437000Y-90337676D01*
X135231375Y-90378577D01*
X135057055Y-90495055D01*
X134940577Y-90669375D01*
X134899676Y-90875000D01*
X130599347Y-90875000D01*
X130335267Y-90610920D01*
X129700522Y-90348000D01*
X129013478Y-90348000D01*
X128378733Y-90610920D01*
X127892920Y-91096733D01*
X127630000Y-91731478D01*
X127584000Y-91731478D01*
X127321080Y-91096733D01*
X126835267Y-90610920D01*
X126200522Y-90348000D01*
X125513478Y-90348000D01*
X124878733Y-90610920D01*
X124392920Y-91096733D01*
X124130000Y-91731478D01*
X124084000Y-91731478D01*
X123821080Y-91096733D01*
X123335267Y-90610920D01*
X122700522Y-90348000D01*
X122013478Y-90348000D01*
X121378733Y-90610920D01*
X120892920Y-91096733D01*
X120630000Y-91731478D01*
X120594324Y-91731478D01*
X120594324Y-90875000D01*
X120553423Y-90669375D01*
X120436945Y-90495055D01*
X120262625Y-90378577D01*
X120057000Y-90337676D01*
X117657000Y-90337676D01*
X117451375Y-90378577D01*
X117277055Y-90495055D01*
X117160577Y-90669375D01*
X117119676Y-90875000D01*
X112819347Y-90875000D01*
X112555267Y-90610920D01*
X111920522Y-90348000D01*
X111233478Y-90348000D01*
X110598733Y-90610920D01*
X110112920Y-91096733D01*
X109850000Y-91731478D01*
X109804000Y-91731478D01*
X109541080Y-91096733D01*
X109055267Y-90610920D01*
X108420522Y-90348000D01*
X107733478Y-90348000D01*
X107098733Y-90610920D01*
X106612920Y-91096733D01*
X106350000Y-91731478D01*
X106304000Y-91731478D01*
X106041080Y-91096733D01*
X105555267Y-90610920D01*
X104920522Y-90348000D01*
X104233478Y-90348000D01*
X103598733Y-90610920D01*
X103112920Y-91096733D01*
X102850000Y-91731478D01*
X102814324Y-91731478D01*
X102814324Y-90875000D01*
X102773423Y-90669375D01*
X102656945Y-90495055D01*
X102482625Y-90378577D01*
X102277000Y-90337676D01*
X99877000Y-90337676D01*
X99671375Y-90378577D01*
X99497055Y-90495055D01*
X99380577Y-90669375D01*
X99339676Y-90875000D01*
X95039347Y-90875000D01*
X94775267Y-90610920D01*
X94140522Y-90348000D01*
X93453478Y-90348000D01*
X92818733Y-90610920D01*
X92332920Y-91096733D01*
X92070000Y-91731478D01*
X92024000Y-91731478D01*
X91761080Y-91096733D01*
X91275267Y-90610920D01*
X90640522Y-90348000D01*
X89953478Y-90348000D01*
X89318733Y-90610920D01*
X88832920Y-91096733D01*
X88570000Y-91731478D01*
X88524000Y-91731478D01*
X88261080Y-91096733D01*
X87775267Y-90610920D01*
X87140522Y-90348000D01*
X86453478Y-90348000D01*
X85818733Y-90610920D01*
X85332920Y-91096733D01*
X85070000Y-91731478D01*
X85034324Y-91731478D01*
X85034324Y-90875000D01*
X84993423Y-90669375D01*
X84876945Y-90495055D01*
X84702625Y-90378577D01*
X84497000Y-90337676D01*
X82097000Y-90337676D01*
X81891375Y-90378577D01*
X81717055Y-90495055D01*
X81600577Y-90669375D01*
X81559676Y-90875000D01*
X77259347Y-90875000D01*
X76995267Y-90610920D01*
X76360522Y-90348000D01*
X75673478Y-90348000D01*
X75038733Y-90610920D01*
X74552920Y-91096733D01*
X74290000Y-91731478D01*
X74244000Y-91731478D01*
X73981080Y-91096733D01*
X73495267Y-90610920D01*
X72860522Y-90348000D01*
X72173478Y-90348000D01*
X71538733Y-90610920D01*
X71052920Y-91096733D01*
X70790000Y-91731478D01*
X70744000Y-91731478D01*
X70481080Y-91096733D01*
X69995267Y-90610920D01*
X69360522Y-90348000D01*
X68673478Y-90348000D01*
X68038733Y-90610920D01*
X67552920Y-91096733D01*
X67290000Y-91731478D01*
X67254324Y-91731478D01*
X67254324Y-90875000D01*
X67213423Y-90669375D01*
X67096945Y-90495055D01*
X66922625Y-90378577D01*
X66717000Y-90337676D01*
X64317000Y-90337676D01*
X64111375Y-90378577D01*
X63937055Y-90495055D01*
X63820577Y-90669375D01*
X63779676Y-90875000D01*
X59479347Y-90875000D01*
X59215267Y-90610920D01*
X58580522Y-90348000D01*
X57893478Y-90348000D01*
X57258733Y-90610920D01*
X56772920Y-91096733D01*
X56510000Y-91731478D01*
X56464000Y-91731478D01*
X56201080Y-91096733D01*
X55715267Y-90610920D01*
X55080522Y-90348000D01*
X54393478Y-90348000D01*
X53758733Y-90610920D01*
X53272920Y-91096733D01*
X53010000Y-91731478D01*
X52964000Y-91731478D01*
X52701080Y-91096733D01*
X52215267Y-90610920D01*
X51580522Y-90348000D01*
X50893478Y-90348000D01*
X50258733Y-90610920D01*
X49772920Y-91096733D01*
X49510000Y-91731478D01*
X49474324Y-91731478D01*
X49474324Y-90875000D01*
X49433423Y-90669375D01*
X49316945Y-90495055D01*
X49142625Y-90378577D01*
X48937000Y-90337676D01*
X46537000Y-90337676D01*
X46331375Y-90378577D01*
X46157055Y-90495055D01*
X46040577Y-90669375D01*
X45999676Y-90875000D01*
X38337678Y-90875000D01*
X38042846Y-90678000D01*
X38457762Y-90400762D01*
X38762106Y-89945279D01*
X38868977Y-89408000D01*
X38762106Y-88870721D01*
X38457762Y-88415238D01*
X38042846Y-88138000D01*
X38457762Y-87860762D01*
X38762106Y-87405279D01*
X38868977Y-86868000D01*
X38762106Y-86330721D01*
X38457762Y-85875238D01*
X38042846Y-85598000D01*
X38457762Y-85320762D01*
X38762106Y-84865279D01*
X38868977Y-84328000D01*
X38762106Y-83790721D01*
X38457762Y-83335238D01*
X38042846Y-83058000D01*
X38457762Y-82780762D01*
X38762106Y-82325279D01*
X38868977Y-81788000D01*
X38762106Y-81250721D01*
X38457762Y-80795238D01*
X38042846Y-80518000D01*
X38457762Y-80240762D01*
X38762106Y-79785279D01*
X38868977Y-79248000D01*
X38762106Y-78710721D01*
X38457762Y-78255238D01*
X38042846Y-77978000D01*
X38457762Y-77700762D01*
X38762106Y-77245279D01*
X38868977Y-76708000D01*
X38762106Y-76170721D01*
X38457762Y-75715238D01*
X38042846Y-75438000D01*
X38457762Y-75160762D01*
X38762106Y-74705279D01*
X38868977Y-74168000D01*
X38762106Y-73630721D01*
X38457762Y-73175238D01*
X38042846Y-72898000D01*
X38457762Y-72620762D01*
X38762106Y-72165279D01*
X38868977Y-71628000D01*
X38762106Y-71090721D01*
X38457762Y-70635238D01*
X38042846Y-70358000D01*
X38457762Y-70080762D01*
X38762106Y-69625279D01*
X38868977Y-69088000D01*
X38762106Y-68550721D01*
X38457762Y-68095238D01*
X38042846Y-67818000D01*
X38457762Y-67540762D01*
X38762106Y-67085279D01*
X38868977Y-66548000D01*
X38762106Y-66010721D01*
X38457762Y-65555238D01*
X38042846Y-65278000D01*
X38457762Y-65000762D01*
X38762106Y-64545279D01*
X38868977Y-64008000D01*
X38762106Y-63470721D01*
X38457762Y-63015238D01*
X38042846Y-62738000D01*
X38457762Y-62460762D01*
X38762106Y-62005279D01*
X38767929Y-61976000D01*
X44685000Y-61976000D01*
X44685000Y-64643000D01*
X44725115Y-64844674D01*
X44839355Y-65015645D01*
X45010326Y-65129885D01*
X45212000Y-65170000D01*
X223520000Y-65170000D01*
X223721674Y-65129885D01*
X223892645Y-65015645D01*
X224006885Y-64844674D01*
X224047000Y-64643000D01*
X224047000Y-61976000D01*
X224006885Y-61774326D01*
X223892645Y-61603355D01*
X223721674Y-61489115D01*
X223520000Y-61449000D01*
X222309976Y-61449000D01*
X222400873Y-61358103D01*
X222542000Y-61017392D01*
X222542000Y-60648608D01*
X222400873Y-60307897D01*
X222267000Y-60174024D01*
X222267000Y-43584976D01*
X222400873Y-43451103D01*
X222542000Y-43110392D01*
X222542000Y-42741608D01*
X222400873Y-42400897D01*
X222140103Y-42140127D01*
X221987491Y-42076913D01*
X227873000Y-42076913D01*
X227873000Y-42923087D01*
X228196817Y-43704848D01*
X228795152Y-44303183D01*
X229576913Y-44627000D01*
X230423087Y-44627000D01*
X231204848Y-44303183D01*
X231803183Y-43704848D01*
X232127000Y-42923087D01*
X232127000Y-42076913D01*
X231803183Y-41295152D01*
X231204848Y-40696817D01*
X230423087Y-40373000D01*
X229576913Y-40373000D01*
X228795152Y-40696817D01*
X228196817Y-41295152D01*
X227873000Y-42076913D01*
X221987491Y-42076913D01*
X221799392Y-41999000D01*
X221430608Y-41999000D01*
X221089897Y-42140127D01*
X220829127Y-42400897D01*
X220688000Y-42741608D01*
X220688000Y-43110392D01*
X220829127Y-43451103D01*
X220963000Y-43584976D01*
X220963001Y-60174023D01*
X220829127Y-60307897D01*
X220688000Y-60648608D01*
X220688000Y-61017392D01*
X220829127Y-61358103D01*
X220920024Y-61449000D01*
X220277976Y-61449000D01*
X220368873Y-61358103D01*
X220510000Y-61017392D01*
X220510000Y-60648608D01*
X220368873Y-60307897D01*
X220235000Y-60174024D01*
X220235000Y-41806976D01*
X220368873Y-41673103D01*
X220510000Y-41332392D01*
X220510000Y-40963608D01*
X220368873Y-40622897D01*
X220108103Y-40362127D01*
X219767392Y-40221000D01*
X219398608Y-40221000D01*
X219057897Y-40362127D01*
X218797127Y-40622897D01*
X218656000Y-40963608D01*
X218656000Y-41332392D01*
X218797127Y-41673103D01*
X218931001Y-41806977D01*
X218931000Y-60174024D01*
X218797127Y-60307897D01*
X218656000Y-60648608D01*
X218656000Y-61017392D01*
X218797127Y-61358103D01*
X218888024Y-61449000D01*
X211112827Y-61449000D01*
X211239000Y-61144392D01*
X211239000Y-60775608D01*
X211097873Y-60434897D01*
X210964000Y-60301024D01*
X210964000Y-42695976D01*
X211097873Y-42562103D01*
X211239000Y-42221392D01*
X211239000Y-41852608D01*
X211097873Y-41511897D01*
X210837103Y-41251127D01*
X210496392Y-41110000D01*
X210127608Y-41110000D01*
X209786897Y-41251127D01*
X209526127Y-41511897D01*
X209385000Y-41852608D01*
X209385000Y-42221392D01*
X209526127Y-42562103D01*
X209660001Y-42695977D01*
X209660000Y-60301024D01*
X209526127Y-60434897D01*
X209385000Y-60775608D01*
X209385000Y-61144392D01*
X209511173Y-61449000D01*
X209080827Y-61449000D01*
X209207000Y-61144392D01*
X209207000Y-60775608D01*
X209065873Y-60434897D01*
X208932000Y-60301024D01*
X208932000Y-44473976D01*
X209065873Y-44340103D01*
X209207000Y-43999392D01*
X209207000Y-43630608D01*
X209065873Y-43289897D01*
X208805103Y-43029127D01*
X208464392Y-42888000D01*
X208095608Y-42888000D01*
X207754897Y-43029127D01*
X207494127Y-43289897D01*
X207353000Y-43630608D01*
X207353000Y-43999392D01*
X207494127Y-44340103D01*
X207628001Y-44473977D01*
X207628000Y-60301024D01*
X207494127Y-60434897D01*
X207353000Y-60775608D01*
X207353000Y-61144392D01*
X207479173Y-61449000D01*
X204529976Y-61449000D01*
X204620873Y-61358103D01*
X204762000Y-61017392D01*
X204762000Y-60648608D01*
X204620873Y-60307897D01*
X204487000Y-60174024D01*
X204487000Y-43584976D01*
X204620873Y-43451103D01*
X204762000Y-43110392D01*
X204762000Y-42741608D01*
X204620873Y-42400897D01*
X204360103Y-42140127D01*
X204019392Y-41999000D01*
X203650608Y-41999000D01*
X203309897Y-42140127D01*
X203049127Y-42400897D01*
X202908000Y-42741608D01*
X202908000Y-43110392D01*
X203049127Y-43451103D01*
X203183000Y-43584976D01*
X203183001Y-60174023D01*
X203049127Y-60307897D01*
X202908000Y-60648608D01*
X202908000Y-61017392D01*
X203049127Y-61358103D01*
X203140024Y-61449000D01*
X202497976Y-61449000D01*
X202588873Y-61358103D01*
X202730000Y-61017392D01*
X202730000Y-60648608D01*
X202588873Y-60307897D01*
X202455000Y-60174024D01*
X202455000Y-41806976D01*
X202588873Y-41673103D01*
X202730000Y-41332392D01*
X202730000Y-40963608D01*
X202588873Y-40622897D01*
X202328103Y-40362127D01*
X201987392Y-40221000D01*
X201618608Y-40221000D01*
X201277897Y-40362127D01*
X201017127Y-40622897D01*
X200876000Y-40963608D01*
X200876000Y-41332392D01*
X201017127Y-41673103D01*
X201151001Y-41806977D01*
X201151000Y-60174024D01*
X201017127Y-60307897D01*
X200876000Y-60648608D01*
X200876000Y-61017392D01*
X201017127Y-61358103D01*
X201108024Y-61449000D01*
X193332827Y-61449000D01*
X193459000Y-61144392D01*
X193459000Y-60775608D01*
X193317873Y-60434897D01*
X193184000Y-60301024D01*
X193184000Y-42695976D01*
X193317873Y-42562103D01*
X193459000Y-42221392D01*
X193459000Y-41852608D01*
X193317873Y-41511897D01*
X193057103Y-41251127D01*
X192716392Y-41110000D01*
X192347608Y-41110000D01*
X192006897Y-41251127D01*
X191746127Y-41511897D01*
X191605000Y-41852608D01*
X191605000Y-42221392D01*
X191746127Y-42562103D01*
X191880001Y-42695977D01*
X191880000Y-60301024D01*
X191746127Y-60434897D01*
X191605000Y-60775608D01*
X191605000Y-61144392D01*
X191731173Y-61449000D01*
X191300827Y-61449000D01*
X191427000Y-61144392D01*
X191427000Y-60775608D01*
X191285873Y-60434897D01*
X191152000Y-60301024D01*
X191152000Y-44473976D01*
X191285873Y-44340103D01*
X191427000Y-43999392D01*
X191427000Y-43630608D01*
X191285873Y-43289897D01*
X191025103Y-43029127D01*
X190684392Y-42888000D01*
X190315608Y-42888000D01*
X189974897Y-43029127D01*
X189714127Y-43289897D01*
X189573000Y-43630608D01*
X189573000Y-43999392D01*
X189714127Y-44340103D01*
X189848001Y-44473977D01*
X189848000Y-60301024D01*
X189714127Y-60434897D01*
X189573000Y-60775608D01*
X189573000Y-61144392D01*
X189699173Y-61449000D01*
X186749976Y-61449000D01*
X186840873Y-61358103D01*
X186982000Y-61017392D01*
X186982000Y-60648608D01*
X186840873Y-60307897D01*
X186707000Y-60174024D01*
X186707000Y-43584976D01*
X186840873Y-43451103D01*
X186982000Y-43110392D01*
X186982000Y-42741608D01*
X186840873Y-42400897D01*
X186580103Y-42140127D01*
X186239392Y-41999000D01*
X185870608Y-41999000D01*
X185529897Y-42140127D01*
X185269127Y-42400897D01*
X185128000Y-42741608D01*
X185128000Y-43110392D01*
X185269127Y-43451103D01*
X185403000Y-43584976D01*
X185403001Y-60174023D01*
X185269127Y-60307897D01*
X185128000Y-60648608D01*
X185128000Y-61017392D01*
X185269127Y-61358103D01*
X185360024Y-61449000D01*
X184717976Y-61449000D01*
X184808873Y-61358103D01*
X184950000Y-61017392D01*
X184950000Y-60648608D01*
X184808873Y-60307897D01*
X184675000Y-60174024D01*
X184675000Y-41806980D01*
X184808877Y-41673103D01*
X184950004Y-41332392D01*
X184950004Y-40963608D01*
X184808877Y-40622897D01*
X184548107Y-40362127D01*
X184207396Y-40221000D01*
X183838612Y-40221000D01*
X183497901Y-40362127D01*
X183237131Y-40622897D01*
X183096004Y-40963608D01*
X183096004Y-41332392D01*
X183237131Y-41673103D01*
X183371001Y-41806973D01*
X183371000Y-60174024D01*
X183237127Y-60307897D01*
X183096000Y-60648608D01*
X183096000Y-61017392D01*
X183237127Y-61358103D01*
X183328024Y-61449000D01*
X175552827Y-61449000D01*
X175679000Y-61144392D01*
X175679000Y-60775608D01*
X175537873Y-60434897D01*
X175404000Y-60301024D01*
X175404000Y-42695976D01*
X175537873Y-42562103D01*
X175679000Y-42221392D01*
X175679000Y-41852608D01*
X175537873Y-41511897D01*
X175277103Y-41251127D01*
X174936392Y-41110000D01*
X174567608Y-41110000D01*
X174226897Y-41251127D01*
X173966127Y-41511897D01*
X173825000Y-41852608D01*
X173825000Y-42221392D01*
X173966127Y-42562103D01*
X174100001Y-42695977D01*
X174100000Y-60301024D01*
X173966127Y-60434897D01*
X173825000Y-60775608D01*
X173825000Y-61144392D01*
X173951173Y-61449000D01*
X173520827Y-61449000D01*
X173647000Y-61144392D01*
X173647000Y-60775608D01*
X173505873Y-60434897D01*
X173372000Y-60301024D01*
X173372000Y-44473976D01*
X173505873Y-44340103D01*
X173647000Y-43999392D01*
X173647000Y-43630608D01*
X173505873Y-43289897D01*
X173245103Y-43029127D01*
X172904392Y-42888000D01*
X172535608Y-42888000D01*
X172194897Y-43029127D01*
X171934127Y-43289897D01*
X171793000Y-43630608D01*
X171793000Y-43999392D01*
X171934127Y-44340103D01*
X172068001Y-44473977D01*
X172068000Y-60301024D01*
X171934127Y-60434897D01*
X171793000Y-60775608D01*
X171793000Y-61144392D01*
X171919173Y-61449000D01*
X168969976Y-61449000D01*
X169060873Y-61358103D01*
X169202000Y-61017392D01*
X169202000Y-60648608D01*
X169060873Y-60307897D01*
X168927000Y-60174024D01*
X168927000Y-43584976D01*
X169060873Y-43451103D01*
X169202000Y-43110392D01*
X169202000Y-42741608D01*
X169060873Y-42400897D01*
X168800103Y-42140127D01*
X168459392Y-41999000D01*
X168090608Y-41999000D01*
X167749897Y-42140127D01*
X167489127Y-42400897D01*
X167348000Y-42741608D01*
X167348000Y-43110392D01*
X167489127Y-43451103D01*
X167623000Y-43584976D01*
X167623001Y-60174023D01*
X167489127Y-60307897D01*
X167348000Y-60648608D01*
X167348000Y-61017392D01*
X167489127Y-61358103D01*
X167580024Y-61449000D01*
X166937976Y-61449000D01*
X167028873Y-61358103D01*
X167170000Y-61017392D01*
X167170000Y-60648608D01*
X167028873Y-60307897D01*
X166895000Y-60174024D01*
X166895000Y-41806976D01*
X167028873Y-41673103D01*
X167170000Y-41332392D01*
X167170000Y-40963608D01*
X167028873Y-40622897D01*
X166768103Y-40362127D01*
X166427392Y-40221000D01*
X166058608Y-40221000D01*
X165717897Y-40362127D01*
X165457127Y-40622897D01*
X165316000Y-40963608D01*
X165316000Y-41332392D01*
X165457127Y-41673103D01*
X165591001Y-41806977D01*
X165591000Y-60174024D01*
X165457127Y-60307897D01*
X165316000Y-60648608D01*
X165316000Y-61017392D01*
X165457127Y-61358103D01*
X165548024Y-61449000D01*
X157772827Y-61449000D01*
X157899000Y-61144392D01*
X157899000Y-60775608D01*
X157757873Y-60434897D01*
X157624000Y-60301024D01*
X157624000Y-42695976D01*
X157757873Y-42562103D01*
X157899000Y-42221392D01*
X157899000Y-41852608D01*
X157757873Y-41511897D01*
X157497103Y-41251127D01*
X157156392Y-41110000D01*
X156787608Y-41110000D01*
X156446897Y-41251127D01*
X156186127Y-41511897D01*
X156045000Y-41852608D01*
X156045000Y-42221392D01*
X156186127Y-42562103D01*
X156320001Y-42695977D01*
X156320000Y-60301024D01*
X156186127Y-60434897D01*
X156045000Y-60775608D01*
X156045000Y-61144392D01*
X156171173Y-61449000D01*
X155740827Y-61449000D01*
X155867000Y-61144392D01*
X155867000Y-60775608D01*
X155725873Y-60434897D01*
X155592000Y-60301024D01*
X155592000Y-44473976D01*
X155725873Y-44340103D01*
X155867000Y-43999392D01*
X155867000Y-43630608D01*
X155725873Y-43289897D01*
X155465103Y-43029127D01*
X155124392Y-42888000D01*
X154755608Y-42888000D01*
X154414897Y-43029127D01*
X154154127Y-43289897D01*
X154013000Y-43630608D01*
X154013000Y-43999392D01*
X154154127Y-44340103D01*
X154288001Y-44473977D01*
X154288000Y-60301024D01*
X154154127Y-60434897D01*
X154013000Y-60775608D01*
X154013000Y-61144392D01*
X154139173Y-61449000D01*
X151189976Y-61449000D01*
X151280873Y-61358103D01*
X151422000Y-61017392D01*
X151422000Y-60648608D01*
X151280873Y-60307897D01*
X151147000Y-60174024D01*
X151147000Y-43584976D01*
X151280873Y-43451103D01*
X151422000Y-43110392D01*
X151422000Y-42741608D01*
X151280873Y-42400897D01*
X151020103Y-42140127D01*
X150679392Y-41999000D01*
X150310608Y-41999000D01*
X149969897Y-42140127D01*
X149709127Y-42400897D01*
X149568000Y-42741608D01*
X149568000Y-43110392D01*
X149709127Y-43451103D01*
X149843000Y-43584976D01*
X149843001Y-60174023D01*
X149709127Y-60307897D01*
X149568000Y-60648608D01*
X149568000Y-61017392D01*
X149709127Y-61358103D01*
X149800024Y-61449000D01*
X149157976Y-61449000D01*
X149248873Y-61358103D01*
X149390000Y-61017392D01*
X149390000Y-60648608D01*
X149248873Y-60307897D01*
X149115000Y-60174024D01*
X149115000Y-41806976D01*
X149248873Y-41673103D01*
X149390000Y-41332392D01*
X149390000Y-40963608D01*
X149248873Y-40622897D01*
X148988103Y-40362127D01*
X148647392Y-40221000D01*
X148278608Y-40221000D01*
X147937897Y-40362127D01*
X147677127Y-40622897D01*
X147536000Y-40963608D01*
X147536000Y-41332392D01*
X147677127Y-41673103D01*
X147811001Y-41806977D01*
X147811000Y-60174024D01*
X147677127Y-60307897D01*
X147536000Y-60648608D01*
X147536000Y-61017392D01*
X147677127Y-61358103D01*
X147768024Y-61449000D01*
X139992827Y-61449000D01*
X140119000Y-61144392D01*
X140119000Y-60775608D01*
X139977873Y-60434897D01*
X139844000Y-60301024D01*
X139844000Y-42695976D01*
X139977873Y-42562103D01*
X140119000Y-42221392D01*
X140119000Y-41852608D01*
X139977873Y-41511897D01*
X139717103Y-41251127D01*
X139376392Y-41110000D01*
X139007608Y-41110000D01*
X138666897Y-41251127D01*
X138406127Y-41511897D01*
X138265000Y-41852608D01*
X138265000Y-42221392D01*
X138406127Y-42562103D01*
X138540001Y-42695977D01*
X138540000Y-60301024D01*
X138406127Y-60434897D01*
X138265000Y-60775608D01*
X138265000Y-61144392D01*
X138391173Y-61449000D01*
X137960827Y-61449000D01*
X138087000Y-61144392D01*
X138087000Y-60775608D01*
X137945873Y-60434897D01*
X137812000Y-60301024D01*
X137812000Y-44473976D01*
X137945873Y-44340103D01*
X138087000Y-43999392D01*
X138087000Y-43630608D01*
X137945873Y-43289897D01*
X137685103Y-43029127D01*
X137344392Y-42888000D01*
X136975608Y-42888000D01*
X136634897Y-43029127D01*
X136374127Y-43289897D01*
X136233000Y-43630608D01*
X136233000Y-43999392D01*
X136374127Y-44340103D01*
X136508001Y-44473977D01*
X136508000Y-60301024D01*
X136374127Y-60434897D01*
X136233000Y-60775608D01*
X136233000Y-61144392D01*
X136359173Y-61449000D01*
X133409976Y-61449000D01*
X133500873Y-61358103D01*
X133642000Y-61017392D01*
X133642000Y-60648608D01*
X133500873Y-60307897D01*
X133367000Y-60174024D01*
X133367000Y-43584976D01*
X133500873Y-43451103D01*
X133642000Y-43110392D01*
X133642000Y-42741608D01*
X133500873Y-42400897D01*
X133240103Y-42140127D01*
X132899392Y-41999000D01*
X132530608Y-41999000D01*
X132189897Y-42140127D01*
X131929127Y-42400897D01*
X131788000Y-42741608D01*
X131788000Y-43110392D01*
X131929127Y-43451103D01*
X132063000Y-43584976D01*
X132063001Y-60174023D01*
X131929127Y-60307897D01*
X131788000Y-60648608D01*
X131788000Y-61017392D01*
X131929127Y-61358103D01*
X132020024Y-61449000D01*
X131377976Y-61449000D01*
X131468873Y-61358103D01*
X131610000Y-61017392D01*
X131610000Y-60648608D01*
X131468873Y-60307897D01*
X131335000Y-60174024D01*
X131335000Y-41806976D01*
X131468873Y-41673103D01*
X131610000Y-41332392D01*
X131610000Y-40963608D01*
X131468873Y-40622897D01*
X131208103Y-40362127D01*
X130867392Y-40221000D01*
X130498608Y-40221000D01*
X130157897Y-40362127D01*
X129897127Y-40622897D01*
X129756000Y-40963608D01*
X129756000Y-41332392D01*
X129897127Y-41673103D01*
X130031001Y-41806977D01*
X130031000Y-60174024D01*
X129897127Y-60307897D01*
X129756000Y-60648608D01*
X129756000Y-61017392D01*
X129897127Y-61358103D01*
X129988024Y-61449000D01*
X122212827Y-61449000D01*
X122339000Y-61144392D01*
X122339000Y-60775608D01*
X122197873Y-60434897D01*
X122064000Y-60301024D01*
X122064000Y-42695976D01*
X122197873Y-42562103D01*
X122339000Y-42221392D01*
X122339000Y-41852608D01*
X122197873Y-41511897D01*
X121937103Y-41251127D01*
X121596392Y-41110000D01*
X121227608Y-41110000D01*
X120886897Y-41251127D01*
X120626127Y-41511897D01*
X120485000Y-41852608D01*
X120485000Y-42221392D01*
X120626127Y-42562103D01*
X120760001Y-42695977D01*
X120760000Y-60301024D01*
X120626127Y-60434897D01*
X120485000Y-60775608D01*
X120485000Y-61144392D01*
X120611173Y-61449000D01*
X120180827Y-61449000D01*
X120307000Y-61144392D01*
X120307000Y-60775608D01*
X120165873Y-60434897D01*
X120032000Y-60301024D01*
X120032000Y-44473976D01*
X120165873Y-44340103D01*
X120307000Y-43999392D01*
X120307000Y-43630608D01*
X120165873Y-43289897D01*
X119905103Y-43029127D01*
X119564392Y-42888000D01*
X119195608Y-42888000D01*
X118854897Y-43029127D01*
X118594127Y-43289897D01*
X118453000Y-43630608D01*
X118453000Y-43999392D01*
X118594127Y-44340103D01*
X118728001Y-44473977D01*
X118728000Y-60301024D01*
X118594127Y-60434897D01*
X118453000Y-60775608D01*
X118453000Y-61144392D01*
X118579173Y-61449000D01*
X115629976Y-61449000D01*
X115720873Y-61358103D01*
X115862000Y-61017392D01*
X115862000Y-60648608D01*
X115720873Y-60307897D01*
X115587000Y-60174024D01*
X115587000Y-43584976D01*
X115720873Y-43451103D01*
X115862000Y-43110392D01*
X115862000Y-42741608D01*
X115720873Y-42400897D01*
X115460103Y-42140127D01*
X115119392Y-41999000D01*
X114750608Y-41999000D01*
X114409897Y-42140127D01*
X114149127Y-42400897D01*
X114008000Y-42741608D01*
X114008000Y-43110392D01*
X114149127Y-43451103D01*
X114283000Y-43584976D01*
X114283001Y-60174023D01*
X114149127Y-60307897D01*
X114008000Y-60648608D01*
X114008000Y-61017392D01*
X114149127Y-61358103D01*
X114240024Y-61449000D01*
X113597976Y-61449000D01*
X113688873Y-61358103D01*
X113830000Y-61017392D01*
X113830000Y-60648608D01*
X113688873Y-60307897D01*
X113555000Y-60174024D01*
X113555000Y-41806976D01*
X113688873Y-41673103D01*
X113830000Y-41332392D01*
X113830000Y-40963608D01*
X113688873Y-40622897D01*
X113428103Y-40362127D01*
X113087392Y-40221000D01*
X112718608Y-40221000D01*
X112377897Y-40362127D01*
X112117127Y-40622897D01*
X111976000Y-40963608D01*
X111976000Y-41332392D01*
X112117127Y-41673103D01*
X112251001Y-41806977D01*
X112251000Y-60174024D01*
X112117127Y-60307897D01*
X111976000Y-60648608D01*
X111976000Y-61017392D01*
X112117127Y-61358103D01*
X112208024Y-61449000D01*
X104432827Y-61449000D01*
X104559000Y-61144392D01*
X104559000Y-60775608D01*
X104417873Y-60434897D01*
X104284000Y-60301024D01*
X104284000Y-42695976D01*
X104417873Y-42562103D01*
X104559000Y-42221392D01*
X104559000Y-41852608D01*
X104417873Y-41511897D01*
X104157103Y-41251127D01*
X103816392Y-41110000D01*
X103447608Y-41110000D01*
X103106897Y-41251127D01*
X102846127Y-41511897D01*
X102705000Y-41852608D01*
X102705000Y-42221392D01*
X102846127Y-42562103D01*
X102980001Y-42695977D01*
X102980000Y-60301024D01*
X102846127Y-60434897D01*
X102705000Y-60775608D01*
X102705000Y-61144392D01*
X102831173Y-61449000D01*
X102400827Y-61449000D01*
X102527000Y-61144392D01*
X102527000Y-60775608D01*
X102385873Y-60434897D01*
X102252000Y-60301024D01*
X102252000Y-44473976D01*
X102385873Y-44340103D01*
X102527000Y-43999392D01*
X102527000Y-43630608D01*
X102385873Y-43289897D01*
X102125103Y-43029127D01*
X101784392Y-42888000D01*
X101415608Y-42888000D01*
X101074897Y-43029127D01*
X100814127Y-43289897D01*
X100673000Y-43630608D01*
X100673000Y-43999392D01*
X100814127Y-44340103D01*
X100948001Y-44473977D01*
X100948000Y-60301024D01*
X100814127Y-60434897D01*
X100673000Y-60775608D01*
X100673000Y-61144392D01*
X100799173Y-61449000D01*
X97849976Y-61449000D01*
X97940873Y-61358103D01*
X98082000Y-61017392D01*
X98082000Y-60648608D01*
X97940873Y-60307897D01*
X97807000Y-60174024D01*
X97807000Y-43584976D01*
X97940873Y-43451103D01*
X98082000Y-43110392D01*
X98082000Y-42741608D01*
X97940873Y-42400897D01*
X97680103Y-42140127D01*
X97339392Y-41999000D01*
X96970608Y-41999000D01*
X96629897Y-42140127D01*
X96369127Y-42400897D01*
X96228000Y-42741608D01*
X96228000Y-43110392D01*
X96369127Y-43451103D01*
X96503000Y-43584976D01*
X96503001Y-60174023D01*
X96369127Y-60307897D01*
X96228000Y-60648608D01*
X96228000Y-61017392D01*
X96369127Y-61358103D01*
X96460024Y-61449000D01*
X95817976Y-61449000D01*
X95908873Y-61358103D01*
X96050000Y-61017392D01*
X96050000Y-60648608D01*
X95908873Y-60307897D01*
X95775000Y-60174024D01*
X95775000Y-41806976D01*
X95908873Y-41673103D01*
X96050000Y-41332392D01*
X96050000Y-40963608D01*
X95908873Y-40622897D01*
X95648103Y-40362127D01*
X95307392Y-40221000D01*
X94938608Y-40221000D01*
X94597897Y-40362127D01*
X94337127Y-40622897D01*
X94196000Y-40963608D01*
X94196000Y-41332392D01*
X94337127Y-41673103D01*
X94471001Y-41806977D01*
X94471000Y-60174024D01*
X94337127Y-60307897D01*
X94196000Y-60648608D01*
X94196000Y-61017392D01*
X94337127Y-61358103D01*
X94428024Y-61449000D01*
X86652827Y-61449000D01*
X86779000Y-61144392D01*
X86779000Y-60775608D01*
X86637873Y-60434897D01*
X86504000Y-60301024D01*
X86504000Y-42695976D01*
X86637873Y-42562103D01*
X86779000Y-42221392D01*
X86779000Y-41852608D01*
X86637873Y-41511897D01*
X86377103Y-41251127D01*
X86036392Y-41110000D01*
X85667608Y-41110000D01*
X85326897Y-41251127D01*
X85066127Y-41511897D01*
X84925000Y-41852608D01*
X84925000Y-42221392D01*
X85066127Y-42562103D01*
X85200001Y-42695977D01*
X85200000Y-60301024D01*
X85066127Y-60434897D01*
X84925000Y-60775608D01*
X84925000Y-61144392D01*
X85051173Y-61449000D01*
X84620827Y-61449000D01*
X84747000Y-61144392D01*
X84747000Y-60775608D01*
X84605873Y-60434897D01*
X84472000Y-60301024D01*
X84472000Y-44473976D01*
X84605873Y-44340103D01*
X84747000Y-43999392D01*
X84747000Y-43630608D01*
X84605873Y-43289897D01*
X84345103Y-43029127D01*
X84004392Y-42888000D01*
X83635608Y-42888000D01*
X83294897Y-43029127D01*
X83034127Y-43289897D01*
X82893000Y-43630608D01*
X82893000Y-43999392D01*
X83034127Y-44340103D01*
X83168001Y-44473977D01*
X83168000Y-60301024D01*
X83034127Y-60434897D01*
X82893000Y-60775608D01*
X82893000Y-61144392D01*
X83019173Y-61449000D01*
X80069976Y-61449000D01*
X80160873Y-61358103D01*
X80302000Y-61017392D01*
X80302000Y-60648608D01*
X80160873Y-60307897D01*
X80027000Y-60174024D01*
X80027000Y-43584976D01*
X80160873Y-43451103D01*
X80302000Y-43110392D01*
X80302000Y-42741608D01*
X80160873Y-42400897D01*
X79900103Y-42140127D01*
X79559392Y-41999000D01*
X79190608Y-41999000D01*
X78849897Y-42140127D01*
X78589127Y-42400897D01*
X78448000Y-42741608D01*
X78448000Y-43110392D01*
X78589127Y-43451103D01*
X78723000Y-43584976D01*
X78723001Y-60174023D01*
X78589127Y-60307897D01*
X78448000Y-60648608D01*
X78448000Y-61017392D01*
X78589127Y-61358103D01*
X78680024Y-61449000D01*
X78037976Y-61449000D01*
X78128873Y-61358103D01*
X78270000Y-61017392D01*
X78270000Y-60648608D01*
X78128873Y-60307897D01*
X77995000Y-60174024D01*
X77995000Y-41806976D01*
X78128873Y-41673103D01*
X78270000Y-41332392D01*
X78270000Y-40963608D01*
X78128873Y-40622897D01*
X77868103Y-40362127D01*
X77527392Y-40221000D01*
X77158608Y-40221000D01*
X76817897Y-40362127D01*
X76557127Y-40622897D01*
X76416000Y-40963608D01*
X76416000Y-41332392D01*
X76557127Y-41673103D01*
X76691001Y-41806977D01*
X76691000Y-60174024D01*
X76557127Y-60307897D01*
X76416000Y-60648608D01*
X76416000Y-61017392D01*
X76557127Y-61358103D01*
X76648024Y-61449000D01*
X68872827Y-61449000D01*
X68999000Y-61144392D01*
X68999000Y-60775608D01*
X68857873Y-60434897D01*
X68724000Y-60301024D01*
X68724000Y-42695976D01*
X68857873Y-42562103D01*
X68999000Y-42221392D01*
X68999000Y-41852608D01*
X68857873Y-41511897D01*
X68597103Y-41251127D01*
X68256392Y-41110000D01*
X67887608Y-41110000D01*
X67546897Y-41251127D01*
X67286127Y-41511897D01*
X67145000Y-41852608D01*
X67145000Y-42221392D01*
X67286127Y-42562103D01*
X67420001Y-42695977D01*
X67420000Y-60301024D01*
X67286127Y-60434897D01*
X67145000Y-60775608D01*
X67145000Y-61144392D01*
X67271173Y-61449000D01*
X66840827Y-61449000D01*
X66967000Y-61144392D01*
X66967000Y-60775608D01*
X66825873Y-60434897D01*
X66692000Y-60301024D01*
X66692000Y-44473976D01*
X66825873Y-44340103D01*
X66967000Y-43999392D01*
X66967000Y-43630608D01*
X66825873Y-43289897D01*
X66565103Y-43029127D01*
X66224392Y-42888000D01*
X65855608Y-42888000D01*
X65514897Y-43029127D01*
X65254127Y-43289897D01*
X65113000Y-43630608D01*
X65113000Y-43999392D01*
X65254127Y-44340103D01*
X65388001Y-44473977D01*
X65388000Y-60301024D01*
X65254127Y-60434897D01*
X65113000Y-60775608D01*
X65113000Y-61144392D01*
X65239173Y-61449000D01*
X62289976Y-61449000D01*
X62380873Y-61358103D01*
X62522000Y-61017392D01*
X62522000Y-60828067D01*
X62899628Y-60450439D01*
X62954065Y-60414065D01*
X63098170Y-60198398D01*
X63136000Y-60008214D01*
X63136000Y-60008210D01*
X63148772Y-59944000D01*
X63136000Y-59879790D01*
X63136000Y-43584976D01*
X63269873Y-43451103D01*
X63411000Y-43110392D01*
X63411000Y-42741608D01*
X63269873Y-42400897D01*
X63009103Y-42140127D01*
X62668392Y-41999000D01*
X62299608Y-41999000D01*
X61958897Y-42140127D01*
X61698127Y-42400897D01*
X61557000Y-42741608D01*
X61557000Y-43110392D01*
X61698127Y-43451103D01*
X61832000Y-43584976D01*
X61832001Y-59673932D01*
X61599933Y-59906000D01*
X61410608Y-59906000D01*
X61209500Y-59989302D01*
X61218511Y-59944000D01*
X61231000Y-59881214D01*
X61231000Y-59881210D01*
X61243772Y-59817000D01*
X61231000Y-59752790D01*
X61231000Y-41806976D01*
X61364873Y-41673103D01*
X61506000Y-41332392D01*
X61506000Y-40963608D01*
X61364873Y-40622897D01*
X61104103Y-40362127D01*
X60763392Y-40221000D01*
X60394608Y-40221000D01*
X60053897Y-40362127D01*
X59793127Y-40622897D01*
X59652000Y-40963608D01*
X59652000Y-41332392D01*
X59793127Y-41673103D01*
X59927000Y-41806976D01*
X59927001Y-59546932D01*
X59567934Y-59906000D01*
X59378608Y-59906000D01*
X59037897Y-60047127D01*
X58777127Y-60307897D01*
X58636000Y-60648608D01*
X58636000Y-61017392D01*
X58777127Y-61358103D01*
X58868024Y-61449000D01*
X57804000Y-61449000D01*
X57804000Y-48996506D01*
X57882721Y-49049106D01*
X58284377Y-49129000D01*
X58555623Y-49129000D01*
X58957279Y-49049106D01*
X59412762Y-48744762D01*
X59717106Y-48289279D01*
X59823977Y-47752000D01*
X59717106Y-47214721D01*
X59412762Y-46759238D01*
X58957279Y-46454894D01*
X58555623Y-46375000D01*
X58284377Y-46375000D01*
X57882721Y-46454894D01*
X57804000Y-46507494D01*
X57804000Y-46355000D01*
X57763885Y-46153326D01*
X57649645Y-45982355D01*
X57478674Y-45868115D01*
X57277000Y-45828000D01*
X54610000Y-45828000D01*
X54408326Y-45868115D01*
X54237355Y-45982355D01*
X54123115Y-46153326D01*
X54083000Y-46355000D01*
X54083000Y-46364676D01*
X52490000Y-46364676D01*
X52284375Y-46405577D01*
X52110055Y-46522055D01*
X51993577Y-46696375D01*
X51952676Y-46902000D01*
X51952676Y-48602000D01*
X51993577Y-48807625D01*
X52110055Y-48981945D01*
X52284375Y-49098423D01*
X52490000Y-49139324D01*
X54083000Y-49139324D01*
X54083000Y-61449000D01*
X51092827Y-61449000D01*
X51219000Y-61144392D01*
X51219000Y-60775608D01*
X51077873Y-60434897D01*
X50944000Y-60301024D01*
X50944000Y-42695976D01*
X51077873Y-42562103D01*
X51219000Y-42221392D01*
X51219000Y-41852608D01*
X51077873Y-41511897D01*
X50817103Y-41251127D01*
X50476392Y-41110000D01*
X50107608Y-41110000D01*
X49766897Y-41251127D01*
X49506127Y-41511897D01*
X49365000Y-41852608D01*
X49365000Y-42221392D01*
X49506127Y-42562103D01*
X49640001Y-42695977D01*
X49640000Y-60301024D01*
X49506127Y-60434897D01*
X49365000Y-60775608D01*
X49365000Y-61144392D01*
X49491173Y-61449000D01*
X49060827Y-61449000D01*
X49187000Y-61144392D01*
X49187000Y-60775608D01*
X49045873Y-60434897D01*
X48912000Y-60301024D01*
X48912000Y-44473976D01*
X49045873Y-44340103D01*
X49187000Y-43999392D01*
X49187000Y-43630608D01*
X49045873Y-43289897D01*
X48785103Y-43029127D01*
X48444392Y-42888000D01*
X48075608Y-42888000D01*
X47734897Y-43029127D01*
X47474127Y-43289897D01*
X47333000Y-43630608D01*
X47333000Y-43999392D01*
X47474127Y-44340103D01*
X47608001Y-44473977D01*
X47608000Y-60301024D01*
X47474127Y-60434897D01*
X47333000Y-60775608D01*
X47333000Y-61144392D01*
X47459173Y-61449000D01*
X45212000Y-61449000D01*
X45010326Y-61489115D01*
X44839355Y-61603355D01*
X44725115Y-61774326D01*
X44685000Y-61976000D01*
X38767929Y-61976000D01*
X38868977Y-61468000D01*
X38762106Y-60930721D01*
X38457762Y-60475238D01*
X38042846Y-60198000D01*
X38457762Y-59920762D01*
X38762106Y-59465279D01*
X38868977Y-58928000D01*
X38762106Y-58390721D01*
X38457762Y-57935238D01*
X38042846Y-57658000D01*
X38457762Y-57380762D01*
X38762106Y-56925279D01*
X38868977Y-56388000D01*
X38762106Y-55850721D01*
X38457762Y-55395238D01*
X38042846Y-55118000D01*
X38457762Y-54840762D01*
X38762106Y-54385279D01*
X38868977Y-53848000D01*
X38762106Y-53310721D01*
X38457762Y-52855238D01*
X38102364Y-52617769D01*
X38346358Y-52503183D01*
X38736645Y-52074924D01*
X38906476Y-51664890D01*
X38785155Y-51435000D01*
X37592000Y-51435000D01*
X37592000Y-51455000D01*
X37338000Y-51455000D01*
X37338000Y-51435000D01*
X37318000Y-51435000D01*
X37318000Y-51181000D01*
X37338000Y-51181000D01*
X37338000Y-51161000D01*
X37592000Y-51161000D01*
X37592000Y-51181000D01*
X38785155Y-51181000D01*
X38906476Y-50951110D01*
X38736645Y-50541076D01*
X38346358Y-50112817D01*
X38102364Y-49998231D01*
X38457762Y-49760762D01*
X38762106Y-49305279D01*
X38868977Y-48768000D01*
X38762106Y-48230721D01*
X38457762Y-47775238D01*
X38042846Y-47498000D01*
X38457762Y-47220762D01*
X38762106Y-46765279D01*
X38868977Y-46228000D01*
X38762106Y-45690721D01*
X38457762Y-45235238D01*
X38002279Y-44930894D01*
X37600623Y-44851000D01*
X37329377Y-44851000D01*
X36927721Y-44930894D01*
X36472238Y-45235238D01*
X36312324Y-45474566D01*
X36312324Y-45378000D01*
X36271423Y-45172375D01*
X36154945Y-44998055D01*
X35980625Y-44881577D01*
X35775000Y-44840676D01*
X34075000Y-44840676D01*
X33869375Y-44881577D01*
X33695055Y-44998055D01*
X33578577Y-45172375D01*
X33537676Y-45378000D01*
X33537676Y-47078000D01*
X33578577Y-47283625D01*
X33695055Y-47457945D01*
X33869375Y-47574423D01*
X34075000Y-47615324D01*
X34171566Y-47615324D01*
X33932238Y-47775238D01*
X33627894Y-48230721D01*
X33521023Y-48768000D01*
X20447000Y-48768000D01*
X20447000Y-42076913D01*
X22873000Y-42076913D01*
X22873000Y-42923087D01*
X23196817Y-43704848D01*
X23795152Y-44303183D01*
X24576913Y-44627000D01*
X25423087Y-44627000D01*
X26204848Y-44303183D01*
X26803183Y-43704848D01*
X27127000Y-42923087D01*
X27127000Y-42076913D01*
X26803183Y-41295152D01*
X26204848Y-40696817D01*
X25423087Y-40373000D01*
X24576913Y-40373000D01*
X23795152Y-40696817D01*
X23196817Y-41295152D01*
X22873000Y-42076913D01*
X20447000Y-42076913D01*
X20447000Y-38227000D01*
X234823000Y-38227000D01*
X234823000Y-96393000D01*
G04 #@! TD*
M02*
