M48
;DRILL file {KiCad 5.0.1-33cea8e~68~ubuntu16.04.1} date Tue 23 Oct 2018 01:55:34 PM CEST
;FORMAT={-:-/ absolute / inch / decimal}
FMAT,2
INCH,TZ
T1C0.0157
T2C0.0394
T3C0.0472
%
G90
G05
M72
T1
X1.835Y-2.49
X1.835Y-2.95
X1.9Y-1.725
X1.9Y-2.4
X1.915Y-2.725
X1.98Y-1.655
X1.98Y-2.4
X2.075Y-2.49
X2.16Y-2.74
X2.215Y-2.49
X2.23Y-2.81
X2.23Y-2.87
X2.29Y-2.81
X2.29Y-2.87
X2.345Y-2.395
X2.355Y-2.49
X2.385Y-1.62
X2.425Y-2.395
X2.46Y-1.69
X2.535Y-2.49
X2.535Y-2.95
X2.6Y-1.725
X2.6Y-2.4
X2.68Y-1.655
X2.68Y-2.4
X2.775Y-2.49
X2.86Y-2.74
X2.9Y-2.35
X2.915Y-2.49
X2.93Y-2.81
X2.93Y-2.87
X2.99Y-2.81
X2.99Y-2.87
X3.045Y-1.62
X3.045Y-2.395
X3.055Y-2.49
X3.125Y-1.69
X3.125Y-2.395
X3.235Y-2.49
X3.235Y-2.95
X3.3Y-1.725
X3.3Y-2.4
X3.3Y-2.7
X3.38Y-1.655
X3.38Y-2.4
X3.475Y-2.49
X3.56Y-2.74
X3.615Y-2.49
X3.63Y-2.81
X3.63Y-2.87
X3.69Y-2.81
X3.69Y-2.87
X3.745Y-1.62
X3.745Y-2.395
X3.755Y-2.49
X3.825Y-1.69
X3.825Y-2.395
X3.935Y-2.49
X3.935Y-2.95
X4.Y-1.725
X4.Y-2.4
X4.08Y-1.655
X4.08Y-2.4
X4.175Y-2.49
X4.26Y-2.74
X4.3Y-2.35
X4.315Y-2.49
X4.33Y-2.81
X4.33Y-2.87
X4.39Y-2.81
X4.39Y-2.87
X4.445Y-1.62
X4.445Y-2.395
X4.455Y-2.49
X4.525Y-1.69
X4.525Y-2.395
X4.635Y-2.49
X4.635Y-2.95
X4.7Y-1.725
X4.7Y-2.4
X4.7Y-2.7
X4.78Y-1.655
X4.78Y-2.4
X4.875Y-2.49
X4.96Y-2.74
X5.015Y-2.49
X5.03Y-2.81
X5.03Y-2.87
X5.09Y-2.81
X5.09Y-2.87
X5.145Y-1.62
X5.145Y-2.395
X5.155Y-2.49
X5.225Y-1.69
X5.225Y-2.395
X5.335Y-2.49
X5.335Y-2.95
X5.4Y-1.725
X5.4Y-2.4
X5.48Y-1.655
X5.48Y-2.4
X5.575Y-2.49
X5.66Y-2.74
X5.7Y-2.35
X5.715Y-2.49
X5.73Y-2.81
X5.73Y-2.87
X5.79Y-2.81
X5.79Y-2.87
X5.845Y-1.62
X5.845Y-2.395
X5.855Y-2.49
X5.925Y-1.69
X5.925Y-2.395
X6.035Y-2.49
X6.035Y-2.95
X6.1Y-1.725
X6.1Y-2.4
X6.1Y-2.7
X6.18Y-1.655
X6.18Y-2.4
X6.275Y-2.49
X6.36Y-2.74
X6.415Y-2.49
X6.43Y-2.81
X6.43Y-2.87
X6.49Y-2.81
X6.49Y-2.87
X6.545Y-1.62
X6.545Y-2.395
X6.555Y-2.49
X6.625Y-1.69
X6.625Y-2.395
X6.735Y-2.49
X6.735Y-2.95
X6.8Y-1.725
X6.8Y-2.4
X6.88Y-1.655
X6.88Y-2.4
X6.975Y-2.49
X7.06Y-2.74
X7.1Y-2.35
X7.115Y-2.49
X7.13Y-2.81
X7.13Y-2.87
X7.19Y-2.81
X7.19Y-2.87
X7.245Y-2.395
X7.245Y-1.62
X7.255Y-2.49
X7.325Y-1.69
X7.325Y-2.395
X7.435Y-2.49
X7.435Y-2.95
X7.5Y-1.725
X7.5Y-2.4
X7.5Y-2.7
X7.58Y-1.655
X7.58Y-2.4
X7.675Y-2.49
X7.76Y-2.74
X7.815Y-2.49
X7.83Y-2.81
X7.83Y-2.87
X7.89Y-2.81
X7.89Y-2.87
X7.945Y-1.62
X7.945Y-2.395
X7.955Y-2.49
X8.025Y-1.69
X8.025Y-2.395
X8.135Y-2.49
X8.135Y-2.95
X8.2Y-1.725
X8.2Y-2.4
X8.28Y-1.655
X8.28Y-2.4
X8.375Y-2.49
X8.46Y-2.74
X8.515Y-2.49
X8.53Y-2.81
X8.53Y-2.87
X8.59Y-2.81
X8.59Y-2.87
X8.645Y-1.62
X8.645Y-2.395
X8.655Y-2.49
X8.725Y-1.69
X8.725Y-2.395
T2
X1.375Y-1.82
X1.375Y-1.92
X1.375Y-2.02
X1.375Y-2.12
X1.375Y-2.22
X1.375Y-2.32
X1.375Y-2.42
X1.375Y-2.52
X1.375Y-2.62
X1.375Y-2.72
X1.375Y-2.82
X1.375Y-2.92
X1.375Y-3.02
X1.375Y-3.12
X1.375Y-3.22
X1.375Y-3.32
X1.375Y-3.42
X1.375Y-3.52
X1.375Y-3.62
X1.375Y-3.72
X1.475Y-1.82
X1.475Y-1.92
X1.475Y-2.02
X1.475Y-2.12
X1.475Y-2.22
X1.475Y-2.32
X1.475Y-2.42
X1.475Y-2.52
X1.475Y-2.62
X1.475Y-2.72
X1.475Y-2.82
X1.475Y-2.92
X1.475Y-3.02
X1.475Y-3.12
X1.475Y-3.22
X1.475Y-3.32
X1.475Y-3.42
X1.475Y-3.52
X1.475Y-3.62
X1.475Y-3.72
X2.1Y-1.88
X2.2Y-1.88
X2.3Y-1.88
T3
X6.0794Y-3.625
X6.2172Y-3.625
X6.355Y-3.625
X6.4928Y-3.625
X2.5794Y-3.625
X2.7172Y-3.625
X2.855Y-3.625
X2.9928Y-3.625
X3.9794Y-3.625
X4.1172Y-3.625
X4.255Y-3.625
X4.3928Y-3.625
X8.1794Y-3.625
X8.3172Y-3.625
X8.455Y-3.625
X8.5928Y-3.625
X1.8794Y-3.625
X2.0172Y-3.625
X2.155Y-3.625
X2.2928Y-3.625
X5.3794Y-3.625
X5.5172Y-3.625
X5.655Y-3.625
X5.7928Y-3.625
X3.2794Y-3.625
X3.4172Y-3.625
X3.555Y-3.625
X3.6928Y-3.625
X4.6794Y-3.625
X4.8172Y-3.625
X4.955Y-3.625
X5.0928Y-3.625
X6.7794Y-3.625
X6.9172Y-3.625
X7.055Y-3.625
X7.1928Y-3.625
X7.4794Y-3.625
X7.6172Y-3.625
X7.755Y-3.625
X7.8928Y-3.625
T0
M30
