G04 #@! TF.GenerationSoftware,KiCad,Pcbnew,5.0.1-33cea8e~68~ubuntu16.04.1*
G04 #@! TF.CreationDate,2018-10-23T13:55:12+02:00*
G04 #@! TF.ProjectId,MAX31865_x10_PCB,4D415833313836355F7831305F504342,rev?*
G04 #@! TF.SameCoordinates,Original*
G04 #@! TF.FileFunction,Paste,Top*
G04 #@! TF.FilePolarity,Positive*
%FSLAX46Y46*%
G04 Gerber Fmt 4.6, Leading zero omitted, Abs format (unit mm)*
G04 Created by KiCad (PCBNEW 5.0.1-33cea8e~68~ubuntu16.04.1) date Tue 23 Oct 2018 01:55:12 PM CEST*
%MOMM*%
%LPD*%
G01*
G04 APERTURE LIST*
%ADD10C,0.100000*%
%ADD11C,0.150000*%
%ADD12C,0.300000*%
%ADD13C,0.400000*%
%ADD14R,1.500000X1.240000*%
%ADD15R,1.240000X1.500000*%
%ADD16R,0.800000X1.350000*%
%ADD17R,1.200000X0.550000*%
%ADD18R,0.350000X0.950000*%
%ADD19R,0.950000X0.350000*%
G04 APERTURE END LIST*
D10*
D11*
X177002200Y-166007200D02*
X177002200Y-198007200D01*
X285002200Y-198007200D01*
X285002200Y-166007200D01*
X177002200Y-166007200D01*
D10*
D11*
X10000000Y-10000000D02*
X10000000Y-200007200D01*
X287002200Y-200007200D01*
X287002200Y-10000000D01*
X10000000Y-10000000D01*
D10*
D11*
X12000000Y-12000000D02*
X12000000Y-198007200D01*
X285002200Y-198007200D01*
X285002200Y-12000000D01*
X12000000Y-12000000D01*
D10*
D11*
X60000000Y-12000000D02*
X60000000Y-10000000D01*
D10*
D11*
X110000000Y-12000000D02*
X110000000Y-10000000D01*
D10*
D11*
X160000000Y-12000000D02*
X160000000Y-10000000D01*
D10*
D11*
X210000000Y-12000000D02*
X210000000Y-10000000D01*
D10*
D11*
X260000000Y-12000000D02*
X260000000Y-10000000D01*
D10*
D11*
X36065476Y-11588095D02*
X35322619Y-11588095D01*
X35694047Y-11588095D02*
X35694047Y-10288095D01*
X35570238Y-10473809D01*
X35446428Y-10597619D01*
X35322619Y-10659523D01*
D10*
D11*
X85322619Y-10411904D02*
X85384523Y-10350000D01*
X85508333Y-10288095D01*
X85817857Y-10288095D01*
X85941666Y-10350000D01*
X86003571Y-10411904D01*
X86065476Y-10535714D01*
X86065476Y-10659523D01*
X86003571Y-10845238D01*
X85260714Y-11588095D01*
X86065476Y-11588095D01*
D10*
D11*
X135260714Y-10288095D02*
X136065476Y-10288095D01*
X135632142Y-10783333D01*
X135817857Y-10783333D01*
X135941666Y-10845238D01*
X136003571Y-10907142D01*
X136065476Y-11030952D01*
X136065476Y-11340476D01*
X136003571Y-11464285D01*
X135941666Y-11526190D01*
X135817857Y-11588095D01*
X135446428Y-11588095D01*
X135322619Y-11526190D01*
X135260714Y-11464285D01*
D10*
D11*
X185941666Y-10721428D02*
X185941666Y-11588095D01*
X185632142Y-10226190D02*
X185322619Y-11154761D01*
X186127380Y-11154761D01*
D10*
D11*
X236003571Y-10288095D02*
X235384523Y-10288095D01*
X235322619Y-10907142D01*
X235384523Y-10845238D01*
X235508333Y-10783333D01*
X235817857Y-10783333D01*
X235941666Y-10845238D01*
X236003571Y-10907142D01*
X236065476Y-11030952D01*
X236065476Y-11340476D01*
X236003571Y-11464285D01*
X235941666Y-11526190D01*
X235817857Y-11588095D01*
X235508333Y-11588095D01*
X235384523Y-11526190D01*
X235322619Y-11464285D01*
D10*
D11*
X285941666Y-10288095D02*
X285694047Y-10288095D01*
X285570238Y-10350000D01*
X285508333Y-10411904D01*
X285384523Y-10597619D01*
X285322619Y-10845238D01*
X285322619Y-11340476D01*
X285384523Y-11464285D01*
X285446428Y-11526190D01*
X285570238Y-11588095D01*
X285817857Y-11588095D01*
X285941666Y-11526190D01*
X286003571Y-11464285D01*
X286065476Y-11340476D01*
X286065476Y-11030952D01*
X286003571Y-10907142D01*
X285941666Y-10845238D01*
X285817857Y-10783333D01*
X285570238Y-10783333D01*
X285446428Y-10845238D01*
X285384523Y-10907142D01*
X285322619Y-11030952D01*
D10*
D11*
X60000000Y-198007200D02*
X60000000Y-200007200D01*
D10*
D11*
X110000000Y-198007200D02*
X110000000Y-200007200D01*
D10*
D11*
X160000000Y-198007200D02*
X160000000Y-200007200D01*
D10*
D11*
X210000000Y-198007200D02*
X210000000Y-200007200D01*
D10*
D11*
X260000000Y-198007200D02*
X260000000Y-200007200D01*
D10*
D11*
X36065476Y-199595295D02*
X35322619Y-199595295D01*
X35694047Y-199595295D02*
X35694047Y-198295295D01*
X35570238Y-198481009D01*
X35446428Y-198604819D01*
X35322619Y-198666723D01*
D10*
D11*
X85322619Y-198419104D02*
X85384523Y-198357200D01*
X85508333Y-198295295D01*
X85817857Y-198295295D01*
X85941666Y-198357200D01*
X86003571Y-198419104D01*
X86065476Y-198542914D01*
X86065476Y-198666723D01*
X86003571Y-198852438D01*
X85260714Y-199595295D01*
X86065476Y-199595295D01*
D10*
D11*
X135260714Y-198295295D02*
X136065476Y-198295295D01*
X135632142Y-198790533D01*
X135817857Y-198790533D01*
X135941666Y-198852438D01*
X136003571Y-198914342D01*
X136065476Y-199038152D01*
X136065476Y-199347676D01*
X136003571Y-199471485D01*
X135941666Y-199533390D01*
X135817857Y-199595295D01*
X135446428Y-199595295D01*
X135322619Y-199533390D01*
X135260714Y-199471485D01*
D10*
D11*
X185941666Y-198728628D02*
X185941666Y-199595295D01*
X185632142Y-198233390D02*
X185322619Y-199161961D01*
X186127380Y-199161961D01*
D10*
D11*
X236003571Y-198295295D02*
X235384523Y-198295295D01*
X235322619Y-198914342D01*
X235384523Y-198852438D01*
X235508333Y-198790533D01*
X235817857Y-198790533D01*
X235941666Y-198852438D01*
X236003571Y-198914342D01*
X236065476Y-199038152D01*
X236065476Y-199347676D01*
X236003571Y-199471485D01*
X235941666Y-199533390D01*
X235817857Y-199595295D01*
X235508333Y-199595295D01*
X235384523Y-199533390D01*
X235322619Y-199471485D01*
D10*
D11*
X285941666Y-198295295D02*
X285694047Y-198295295D01*
X285570238Y-198357200D01*
X285508333Y-198419104D01*
X285384523Y-198604819D01*
X285322619Y-198852438D01*
X285322619Y-199347676D01*
X285384523Y-199471485D01*
X285446428Y-199533390D01*
X285570238Y-199595295D01*
X285817857Y-199595295D01*
X285941666Y-199533390D01*
X286003571Y-199471485D01*
X286065476Y-199347676D01*
X286065476Y-199038152D01*
X286003571Y-198914342D01*
X285941666Y-198852438D01*
X285817857Y-198790533D01*
X285570238Y-198790533D01*
X285446428Y-198852438D01*
X285384523Y-198914342D01*
X285322619Y-199038152D01*
D10*
D11*
X10000000Y-60000000D02*
X12000000Y-60000000D01*
D10*
D11*
X10000000Y-110000000D02*
X12000000Y-110000000D01*
D10*
D11*
X10000000Y-160000000D02*
X12000000Y-160000000D01*
D10*
D11*
X10690476Y-35216666D02*
X11309523Y-35216666D01*
X10566666Y-35588095D02*
X11000000Y-34288095D01*
X11433333Y-35588095D01*
D10*
D11*
X11092857Y-84907142D02*
X11278571Y-84969047D01*
X11340476Y-85030952D01*
X11402380Y-85154761D01*
X11402380Y-85340476D01*
X11340476Y-85464285D01*
X11278571Y-85526190D01*
X11154761Y-85588095D01*
X10659523Y-85588095D01*
X10659523Y-84288095D01*
X11092857Y-84288095D01*
X11216666Y-84350000D01*
X11278571Y-84411904D01*
X11340476Y-84535714D01*
X11340476Y-84659523D01*
X11278571Y-84783333D01*
X11216666Y-84845238D01*
X11092857Y-84907142D01*
X10659523Y-84907142D01*
D10*
D11*
X11402380Y-135464285D02*
X11340476Y-135526190D01*
X11154761Y-135588095D01*
X11030952Y-135588095D01*
X10845238Y-135526190D01*
X10721428Y-135402380D01*
X10659523Y-135278571D01*
X10597619Y-135030952D01*
X10597619Y-134845238D01*
X10659523Y-134597619D01*
X10721428Y-134473809D01*
X10845238Y-134350000D01*
X11030952Y-134288095D01*
X11154761Y-134288095D01*
X11340476Y-134350000D01*
X11402380Y-134411904D01*
D10*
D11*
X10659523Y-185588095D02*
X10659523Y-184288095D01*
X10969047Y-184288095D01*
X11154761Y-184350000D01*
X11278571Y-184473809D01*
X11340476Y-184597619D01*
X11402380Y-184845238D01*
X11402380Y-185030952D01*
X11340476Y-185278571D01*
X11278571Y-185402380D01*
X11154761Y-185526190D01*
X10969047Y-185588095D01*
X10659523Y-185588095D01*
D10*
D11*
X287002200Y-60000000D02*
X285002200Y-60000000D01*
D10*
D11*
X287002200Y-110000000D02*
X285002200Y-110000000D01*
D10*
D11*
X287002200Y-160000000D02*
X285002200Y-160000000D01*
D10*
D11*
X285692676Y-35216666D02*
X286311723Y-35216666D01*
X285568866Y-35588095D02*
X286002200Y-34288095D01*
X286435533Y-35588095D01*
D10*
D11*
X286095057Y-84907142D02*
X286280771Y-84969047D01*
X286342676Y-85030952D01*
X286404580Y-85154761D01*
X286404580Y-85340476D01*
X286342676Y-85464285D01*
X286280771Y-85526190D01*
X286156961Y-85588095D01*
X285661723Y-85588095D01*
X285661723Y-84288095D01*
X286095057Y-84288095D01*
X286218866Y-84350000D01*
X286280771Y-84411904D01*
X286342676Y-84535714D01*
X286342676Y-84659523D01*
X286280771Y-84783333D01*
X286218866Y-84845238D01*
X286095057Y-84907142D01*
X285661723Y-84907142D01*
D10*
D11*
X286404580Y-135464285D02*
X286342676Y-135526190D01*
X286156961Y-135588095D01*
X286033152Y-135588095D01*
X285847438Y-135526190D01*
X285723628Y-135402380D01*
X285661723Y-135278571D01*
X285599819Y-135030952D01*
X285599819Y-134845238D01*
X285661723Y-134597619D01*
X285723628Y-134473809D01*
X285847438Y-134350000D01*
X286033152Y-134288095D01*
X286156961Y-134288095D01*
X286342676Y-134350000D01*
X286404580Y-134411904D01*
D10*
D11*
X285661723Y-185588095D02*
X285661723Y-184288095D01*
X285971247Y-184288095D01*
X286156961Y-184350000D01*
X286280771Y-184473809D01*
X286342676Y-184597619D01*
X286404580Y-184845238D01*
X286404580Y-185030952D01*
X286342676Y-185278571D01*
X286280771Y-185402380D01*
X286156961Y-185526190D01*
X285971247Y-185588095D01*
X285661723Y-185588095D01*
D10*
D11*
X200434342Y-193785771D02*
X200434342Y-192285771D01*
X200791485Y-192285771D01*
X201005771Y-192357200D01*
X201148628Y-192500057D01*
X201220057Y-192642914D01*
X201291485Y-192928628D01*
X201291485Y-193142914D01*
X201220057Y-193428628D01*
X201148628Y-193571485D01*
X201005771Y-193714342D01*
X200791485Y-193785771D01*
X200434342Y-193785771D01*
X202577200Y-193785771D02*
X202577200Y-193000057D01*
X202505771Y-192857200D01*
X202362914Y-192785771D01*
X202077200Y-192785771D01*
X201934342Y-192857200D01*
X202577200Y-193714342D02*
X202434342Y-193785771D01*
X202077200Y-193785771D01*
X201934342Y-193714342D01*
X201862914Y-193571485D01*
X201862914Y-193428628D01*
X201934342Y-193285771D01*
X202077200Y-193214342D01*
X202434342Y-193214342D01*
X202577200Y-193142914D01*
X203077200Y-192785771D02*
X203648628Y-192785771D01*
X203291485Y-192285771D02*
X203291485Y-193571485D01*
X203362914Y-193714342D01*
X203505771Y-193785771D01*
X203648628Y-193785771D01*
X204720057Y-193714342D02*
X204577200Y-193785771D01*
X204291485Y-193785771D01*
X204148628Y-193714342D01*
X204077200Y-193571485D01*
X204077200Y-193000057D01*
X204148628Y-192857200D01*
X204291485Y-192785771D01*
X204577200Y-192785771D01*
X204720057Y-192857200D01*
X204791485Y-193000057D01*
X204791485Y-193142914D01*
X204077200Y-193285771D01*
X205434342Y-193642914D02*
X205505771Y-193714342D01*
X205434342Y-193785771D01*
X205362914Y-193714342D01*
X205434342Y-193642914D01*
X205434342Y-193785771D01*
X205434342Y-192857200D02*
X205505771Y-192928628D01*
X205434342Y-193000057D01*
X205362914Y-192928628D01*
X205434342Y-192857200D01*
X205434342Y-193000057D01*
D10*
D11*
X177002200Y-194507200D02*
X285002200Y-194507200D01*
D10*
D11*
X178434342Y-196585771D02*
X178434342Y-195085771D01*
X179291485Y-196585771D02*
X178648628Y-195728628D01*
X179291485Y-195085771D02*
X178434342Y-195942914D01*
X179934342Y-196585771D02*
X179934342Y-195585771D01*
X179934342Y-195085771D02*
X179862914Y-195157200D01*
X179934342Y-195228628D01*
X180005771Y-195157200D01*
X179934342Y-195085771D01*
X179934342Y-195228628D01*
X181505771Y-196442914D02*
X181434342Y-196514342D01*
X181220057Y-196585771D01*
X181077200Y-196585771D01*
X180862914Y-196514342D01*
X180720057Y-196371485D01*
X180648628Y-196228628D01*
X180577200Y-195942914D01*
X180577200Y-195728628D01*
X180648628Y-195442914D01*
X180720057Y-195300057D01*
X180862914Y-195157200D01*
X181077200Y-195085771D01*
X181220057Y-195085771D01*
X181434342Y-195157200D01*
X181505771Y-195228628D01*
X182791485Y-196585771D02*
X182791485Y-195800057D01*
X182720057Y-195657200D01*
X182577200Y-195585771D01*
X182291485Y-195585771D01*
X182148628Y-195657200D01*
X182791485Y-196514342D02*
X182648628Y-196585771D01*
X182291485Y-196585771D01*
X182148628Y-196514342D01*
X182077200Y-196371485D01*
X182077200Y-196228628D01*
X182148628Y-196085771D01*
X182291485Y-196014342D01*
X182648628Y-196014342D01*
X182791485Y-195942914D01*
X184148628Y-196585771D02*
X184148628Y-195085771D01*
X184148628Y-196514342D02*
X184005771Y-196585771D01*
X183720057Y-196585771D01*
X183577200Y-196514342D01*
X183505771Y-196442914D01*
X183434342Y-196300057D01*
X183434342Y-195871485D01*
X183505771Y-195728628D01*
X183577200Y-195657200D01*
X183720057Y-195585771D01*
X184005771Y-195585771D01*
X184148628Y-195657200D01*
X186005771Y-195800057D02*
X186505771Y-195800057D01*
X186720057Y-196585771D02*
X186005771Y-196585771D01*
X186005771Y-195085771D01*
X186720057Y-195085771D01*
X187362914Y-196442914D02*
X187434342Y-196514342D01*
X187362914Y-196585771D01*
X187291485Y-196514342D01*
X187362914Y-196442914D01*
X187362914Y-196585771D01*
X188077200Y-196585771D02*
X188077200Y-195085771D01*
X188434342Y-195085771D01*
X188648628Y-195157200D01*
X188791485Y-195300057D01*
X188862914Y-195442914D01*
X188934342Y-195728628D01*
X188934342Y-195942914D01*
X188862914Y-196228628D01*
X188791485Y-196371485D01*
X188648628Y-196514342D01*
X188434342Y-196585771D01*
X188077200Y-196585771D01*
X189577200Y-196442914D02*
X189648628Y-196514342D01*
X189577200Y-196585771D01*
X189505771Y-196514342D01*
X189577200Y-196442914D01*
X189577200Y-196585771D01*
X190220057Y-196157200D02*
X190934342Y-196157200D01*
X190077200Y-196585771D02*
X190577200Y-195085771D01*
X191077200Y-196585771D01*
X191577200Y-196442914D02*
X191648628Y-196514342D01*
X191577200Y-196585771D01*
X191505771Y-196514342D01*
X191577200Y-196442914D01*
X191577200Y-196585771D01*
X194577200Y-196585771D02*
X194577200Y-195085771D01*
X194720057Y-196014342D02*
X195148628Y-196585771D01*
X195148628Y-195585771D02*
X194577200Y-196157200D01*
X195791485Y-196585771D02*
X195791485Y-195585771D01*
X195791485Y-195085771D02*
X195720057Y-195157200D01*
X195791485Y-195228628D01*
X195862914Y-195157200D01*
X195791485Y-195085771D01*
X195791485Y-195228628D01*
X197148628Y-196514342D02*
X197005771Y-196585771D01*
X196720057Y-196585771D01*
X196577200Y-196514342D01*
X196505771Y-196442914D01*
X196434342Y-196300057D01*
X196434342Y-195871485D01*
X196505771Y-195728628D01*
X196577200Y-195657200D01*
X196720057Y-195585771D01*
X197005771Y-195585771D01*
X197148628Y-195657200D01*
X198434342Y-196585771D02*
X198434342Y-195800057D01*
X198362914Y-195657200D01*
X198220057Y-195585771D01*
X197934342Y-195585771D01*
X197791485Y-195657200D01*
X198434342Y-196514342D02*
X198291485Y-196585771D01*
X197934342Y-196585771D01*
X197791485Y-196514342D01*
X197720057Y-196371485D01*
X197720057Y-196228628D01*
X197791485Y-196085771D01*
X197934342Y-196014342D01*
X198291485Y-196014342D01*
X198434342Y-195942914D01*
X199791485Y-196585771D02*
X199791485Y-195085771D01*
X199791485Y-196514342D02*
X199648628Y-196585771D01*
X199362914Y-196585771D01*
X199220057Y-196514342D01*
X199148628Y-196442914D01*
X199077200Y-196300057D01*
X199077200Y-195871485D01*
X199148628Y-195728628D01*
X199220057Y-195657200D01*
X199362914Y-195585771D01*
X199648628Y-195585771D01*
X199791485Y-195657200D01*
X202362914Y-195085771D02*
X201648628Y-195085771D01*
X201577200Y-195800057D01*
X201648628Y-195728628D01*
X201791485Y-195657200D01*
X202148628Y-195657200D01*
X202291485Y-195728628D01*
X202362914Y-195800057D01*
X202434342Y-195942914D01*
X202434342Y-196300057D01*
X202362914Y-196442914D01*
X202291485Y-196514342D01*
X202148628Y-196585771D01*
X201791485Y-196585771D01*
X201648628Y-196514342D01*
X201577200Y-196442914D01*
X203077200Y-196442914D02*
X203148628Y-196514342D01*
X203077200Y-196585771D01*
X203005771Y-196514342D01*
X203077200Y-196442914D01*
X203077200Y-196585771D01*
X204077200Y-195085771D02*
X204220057Y-195085771D01*
X204362914Y-195157200D01*
X204434342Y-195228628D01*
X204505771Y-195371485D01*
X204577200Y-195657200D01*
X204577200Y-196014342D01*
X204505771Y-196300057D01*
X204434342Y-196442914D01*
X204362914Y-196514342D01*
X204220057Y-196585771D01*
X204077200Y-196585771D01*
X203934342Y-196514342D01*
X203862914Y-196442914D01*
X203791485Y-196300057D01*
X203720057Y-196014342D01*
X203720057Y-195657200D01*
X203791485Y-195371485D01*
X203862914Y-195228628D01*
X203934342Y-195157200D01*
X204077200Y-195085771D01*
X205220057Y-196442914D02*
X205291485Y-196514342D01*
X205220057Y-196585771D01*
X205148628Y-196514342D01*
X205220057Y-196442914D01*
X205220057Y-196585771D01*
X206720057Y-196585771D02*
X205862914Y-196585771D01*
X206291485Y-196585771D02*
X206291485Y-195085771D01*
X206148628Y-195300057D01*
X206005771Y-195442914D01*
X205862914Y-195514342D01*
X207362914Y-196014342D02*
X208505771Y-196014342D01*
X209077200Y-195085771D02*
X210005771Y-195085771D01*
X209505771Y-195657200D01*
X209720057Y-195657200D01*
X209862914Y-195728628D01*
X209934342Y-195800057D01*
X210005771Y-195942914D01*
X210005771Y-196300057D01*
X209934342Y-196442914D01*
X209862914Y-196514342D01*
X209720057Y-196585771D01*
X209291485Y-196585771D01*
X209148628Y-196514342D01*
X209077200Y-196442914D01*
X210505771Y-195085771D02*
X211434342Y-195085771D01*
X210934342Y-195657200D01*
X211148628Y-195657200D01*
X211291485Y-195728628D01*
X211362914Y-195800057D01*
X211434342Y-195942914D01*
X211434342Y-196300057D01*
X211362914Y-196442914D01*
X211291485Y-196514342D01*
X211148628Y-196585771D01*
X210720057Y-196585771D01*
X210577200Y-196514342D01*
X210505771Y-196442914D01*
X212720057Y-196514342D02*
X212577200Y-196585771D01*
X212291485Y-196585771D01*
X212148628Y-196514342D01*
X212077200Y-196442914D01*
X212005771Y-196300057D01*
X212005771Y-195871485D01*
X212077200Y-195728628D01*
X212148628Y-195657200D01*
X212291485Y-195585771D01*
X212577200Y-195585771D01*
X212720057Y-195657200D01*
X213934342Y-196514342D02*
X213791485Y-196585771D01*
X213505771Y-196585771D01*
X213362914Y-196514342D01*
X213291485Y-196371485D01*
X213291485Y-195800057D01*
X213362914Y-195657200D01*
X213505771Y-195585771D01*
X213791485Y-195585771D01*
X213934342Y-195657200D01*
X214005771Y-195800057D01*
X214005771Y-195942914D01*
X213291485Y-196085771D01*
X215291485Y-196585771D02*
X215291485Y-195800057D01*
X215220057Y-195657200D01*
X215077200Y-195585771D01*
X214791485Y-195585771D01*
X214648628Y-195657200D01*
X215291485Y-196514342D02*
X215148628Y-196585771D01*
X214791485Y-196585771D01*
X214648628Y-196514342D01*
X214577200Y-196371485D01*
X214577200Y-196228628D01*
X214648628Y-196085771D01*
X214791485Y-196014342D01*
X215148628Y-196014342D01*
X215291485Y-195942914D01*
X216220057Y-195728628D02*
X216077200Y-195657200D01*
X216005771Y-195585771D01*
X215934342Y-195442914D01*
X215934342Y-195371485D01*
X216005771Y-195228628D01*
X216077200Y-195157200D01*
X216220057Y-195085771D01*
X216505771Y-195085771D01*
X216648628Y-195157200D01*
X216720057Y-195228628D01*
X216791485Y-195371485D01*
X216791485Y-195442914D01*
X216720057Y-195585771D01*
X216648628Y-195657200D01*
X216505771Y-195728628D01*
X216220057Y-195728628D01*
X216077200Y-195800057D01*
X216005771Y-195871485D01*
X215934342Y-196014342D01*
X215934342Y-196300057D01*
X216005771Y-196442914D01*
X216077200Y-196514342D01*
X216220057Y-196585771D01*
X216505771Y-196585771D01*
X216648628Y-196514342D01*
X216720057Y-196442914D01*
X216791485Y-196300057D01*
X216791485Y-196014342D01*
X216720057Y-195871485D01*
X216648628Y-195800057D01*
X216505771Y-195728628D01*
X218005771Y-196514342D02*
X217862914Y-196585771D01*
X217577200Y-196585771D01*
X217434342Y-196514342D01*
X217362914Y-196371485D01*
X217362914Y-195800057D01*
X217434342Y-195657200D01*
X217577200Y-195585771D01*
X217862914Y-195585771D01*
X218005771Y-195657200D01*
X218077200Y-195800057D01*
X218077200Y-195942914D01*
X217362914Y-196085771D01*
X218362914Y-194677200D02*
X219791485Y-194677200D01*
X219362914Y-195085771D02*
X219077200Y-195085771D01*
X218934342Y-195157200D01*
X218862914Y-195228628D01*
X218720057Y-195442914D01*
X218648628Y-195728628D01*
X218648628Y-196300057D01*
X218720057Y-196442914D01*
X218791485Y-196514342D01*
X218934342Y-196585771D01*
X219220057Y-196585771D01*
X219362914Y-196514342D01*
X219434342Y-196442914D01*
X219505771Y-196300057D01*
X219505771Y-195942914D01*
X219434342Y-195800057D01*
X219362914Y-195728628D01*
X219220057Y-195657200D01*
X218934342Y-195657200D01*
X218791485Y-195728628D01*
X218720057Y-195800057D01*
X218648628Y-195942914D01*
X219791485Y-194677200D02*
X221220057Y-194677200D01*
X220362914Y-195728628D02*
X220220057Y-195657200D01*
X220148628Y-195585771D01*
X220077200Y-195442914D01*
X220077200Y-195371485D01*
X220148628Y-195228628D01*
X220220057Y-195157200D01*
X220362914Y-195085771D01*
X220648628Y-195085771D01*
X220791485Y-195157200D01*
X220862914Y-195228628D01*
X220934342Y-195371485D01*
X220934342Y-195442914D01*
X220862914Y-195585771D01*
X220791485Y-195657200D01*
X220648628Y-195728628D01*
X220362914Y-195728628D01*
X220220057Y-195800057D01*
X220148628Y-195871485D01*
X220077200Y-196014342D01*
X220077200Y-196300057D01*
X220148628Y-196442914D01*
X220220057Y-196514342D01*
X220362914Y-196585771D01*
X220648628Y-196585771D01*
X220791485Y-196514342D01*
X220862914Y-196442914D01*
X220934342Y-196300057D01*
X220934342Y-196014342D01*
X220862914Y-195871485D01*
X220791485Y-195800057D01*
X220648628Y-195728628D01*
X222220057Y-195585771D02*
X222220057Y-196585771D01*
X221577200Y-195585771D02*
X221577200Y-196371485D01*
X221648628Y-196514342D01*
X221791485Y-196585771D01*
X222005771Y-196585771D01*
X222148628Y-196514342D01*
X222220057Y-196442914D01*
X222934342Y-196585771D02*
X222934342Y-195085771D01*
X222934342Y-195657200D02*
X223077200Y-195585771D01*
X223362914Y-195585771D01*
X223505771Y-195657200D01*
X223577200Y-195728628D01*
X223648628Y-195871485D01*
X223648628Y-196300057D01*
X223577200Y-196442914D01*
X223505771Y-196514342D01*
X223362914Y-196585771D01*
X223077200Y-196585771D01*
X222934342Y-196514342D01*
X224934342Y-195585771D02*
X224934342Y-196585771D01*
X224291485Y-195585771D02*
X224291485Y-196371485D01*
X224362914Y-196514342D01*
X224505771Y-196585771D01*
X224720057Y-196585771D01*
X224862914Y-196514342D01*
X224934342Y-196442914D01*
X225648628Y-195585771D02*
X225648628Y-196585771D01*
X225648628Y-195728628D02*
X225720057Y-195657200D01*
X225862914Y-195585771D01*
X226077200Y-195585771D01*
X226220057Y-195657200D01*
X226291485Y-195800057D01*
X226291485Y-196585771D01*
X226791485Y-195585771D02*
X227362914Y-195585771D01*
X227005771Y-195085771D02*
X227005771Y-196371485D01*
X227077200Y-196514342D01*
X227220057Y-196585771D01*
X227362914Y-196585771D01*
X228505771Y-195585771D02*
X228505771Y-196585771D01*
X227862914Y-195585771D02*
X227862914Y-196371485D01*
X227934342Y-196514342D01*
X228077200Y-196585771D01*
X228291485Y-196585771D01*
X228434342Y-196514342D01*
X228505771Y-196442914D01*
X230005771Y-196585771D02*
X229148628Y-196585771D01*
X229577200Y-196585771D02*
X229577200Y-195085771D01*
X229434342Y-195300057D01*
X229291485Y-195442914D01*
X229148628Y-195514342D01*
X231291485Y-195085771D02*
X231005771Y-195085771D01*
X230862914Y-195157200D01*
X230791485Y-195228628D01*
X230648628Y-195442914D01*
X230577200Y-195728628D01*
X230577200Y-196300057D01*
X230648628Y-196442914D01*
X230720057Y-196514342D01*
X230862914Y-196585771D01*
X231148628Y-196585771D01*
X231291485Y-196514342D01*
X231362914Y-196442914D01*
X231434342Y-196300057D01*
X231434342Y-195942914D01*
X231362914Y-195800057D01*
X231291485Y-195728628D01*
X231148628Y-195657200D01*
X230862914Y-195657200D01*
X230720057Y-195728628D01*
X230648628Y-195800057D01*
X230577200Y-195942914D01*
X232077200Y-196442914D02*
X232148628Y-196514342D01*
X232077200Y-196585771D01*
X232005771Y-196514342D01*
X232077200Y-196442914D01*
X232077200Y-196585771D01*
X233077200Y-195085771D02*
X233220057Y-195085771D01*
X233362914Y-195157200D01*
X233434342Y-195228628D01*
X233505771Y-195371485D01*
X233577200Y-195657200D01*
X233577200Y-196014342D01*
X233505771Y-196300057D01*
X233434342Y-196442914D01*
X233362914Y-196514342D01*
X233220057Y-196585771D01*
X233077200Y-196585771D01*
X232934342Y-196514342D01*
X232862914Y-196442914D01*
X232791485Y-196300057D01*
X232720057Y-196014342D01*
X232720057Y-195657200D01*
X232791485Y-195371485D01*
X232862914Y-195228628D01*
X232934342Y-195157200D01*
X233077200Y-195085771D01*
X234862914Y-195585771D02*
X234862914Y-196585771D01*
X234505771Y-195014342D02*
X234148628Y-196085771D01*
X235077200Y-196085771D01*
X235648628Y-196442914D02*
X235720057Y-196514342D01*
X235648628Y-196585771D01*
X235577199Y-196514342D01*
X235648628Y-196442914D01*
X235648628Y-196585771D01*
X237148628Y-196585771D02*
X236291485Y-196585771D01*
X236720057Y-196585771D02*
X236720057Y-195085771D01*
X236577200Y-195300057D01*
X236434342Y-195442914D01*
X236291485Y-195514342D01*
D10*
D11*
X177002200Y-191507200D02*
X285002200Y-191507200D01*
D10*
D12*
X264411485Y-193785771D02*
X263911485Y-193071485D01*
X263554342Y-193785771D02*
X263554342Y-192285771D01*
X264125771Y-192285771D01*
X264268628Y-192357200D01*
X264340057Y-192428628D01*
X264411485Y-192571485D01*
X264411485Y-192785771D01*
X264340057Y-192928628D01*
X264268628Y-193000057D01*
X264125771Y-193071485D01*
X263554342Y-193071485D01*
X265625771Y-193714342D02*
X265482914Y-193785771D01*
X265197200Y-193785771D01*
X265054342Y-193714342D01*
X264982914Y-193571485D01*
X264982914Y-193000057D01*
X265054342Y-192857200D01*
X265197200Y-192785771D01*
X265482914Y-192785771D01*
X265625771Y-192857200D01*
X265697200Y-193000057D01*
X265697200Y-193142914D01*
X264982914Y-193285771D01*
X266197200Y-192785771D02*
X266554342Y-193785771D01*
X266911485Y-192785771D01*
X267482914Y-193642914D02*
X267554342Y-193714342D01*
X267482914Y-193785771D01*
X267411485Y-193714342D01*
X267482914Y-193642914D01*
X267482914Y-193785771D01*
X267482914Y-192857200D02*
X267554342Y-192928628D01*
X267482914Y-193000057D01*
X267411485Y-192928628D01*
X267482914Y-192857200D01*
X267482914Y-193000057D01*
D10*
D11*
X178362914Y-193714342D02*
X178577200Y-193785771D01*
X178934342Y-193785771D01*
X179077200Y-193714342D01*
X179148628Y-193642914D01*
X179220057Y-193500057D01*
X179220057Y-193357200D01*
X179148628Y-193214342D01*
X179077200Y-193142914D01*
X178934342Y-193071485D01*
X178648628Y-193000057D01*
X178505771Y-192928628D01*
X178434342Y-192857200D01*
X178362914Y-192714342D01*
X178362914Y-192571485D01*
X178434342Y-192428628D01*
X178505771Y-192357200D01*
X178648628Y-192285771D01*
X179005771Y-192285771D01*
X179220057Y-192357200D01*
X179862914Y-193785771D02*
X179862914Y-192785771D01*
X179862914Y-192285771D02*
X179791485Y-192357200D01*
X179862914Y-192428628D01*
X179934342Y-192357200D01*
X179862914Y-192285771D01*
X179862914Y-192428628D01*
X180434342Y-192785771D02*
X181220057Y-192785771D01*
X180434342Y-193785771D01*
X181220057Y-193785771D01*
X182362914Y-193714342D02*
X182220057Y-193785771D01*
X181934342Y-193785771D01*
X181791485Y-193714342D01*
X181720057Y-193571485D01*
X181720057Y-193000057D01*
X181791485Y-192857200D01*
X181934342Y-192785771D01*
X182220057Y-192785771D01*
X182362914Y-192857200D01*
X182434342Y-193000057D01*
X182434342Y-193142914D01*
X181720057Y-193285771D01*
X183077200Y-193642914D02*
X183148628Y-193714342D01*
X183077200Y-193785771D01*
X183005771Y-193714342D01*
X183077200Y-193642914D01*
X183077200Y-193785771D01*
X183077200Y-192857200D02*
X183148628Y-192928628D01*
X183077200Y-193000057D01*
X183005771Y-192928628D01*
X183077200Y-192857200D01*
X183077200Y-193000057D01*
X184862914Y-193357200D02*
X185577200Y-193357200D01*
X184720057Y-193785771D02*
X185220057Y-192285771D01*
X185720057Y-193785771D01*
X186862914Y-192785771D02*
X186862914Y-193785771D01*
X186505771Y-192214342D02*
X186148628Y-193285771D01*
X187077200Y-193285771D01*
D10*
D11*
X263434342Y-196585771D02*
X263434342Y-195085771D01*
X264791485Y-196585771D02*
X264791485Y-195085771D01*
X264791485Y-196514342D02*
X264648628Y-196585771D01*
X264362914Y-196585771D01*
X264220057Y-196514342D01*
X264148628Y-196442914D01*
X264077200Y-196300057D01*
X264077200Y-195871485D01*
X264148628Y-195728628D01*
X264220057Y-195657200D01*
X264362914Y-195585771D01*
X264648628Y-195585771D01*
X264791485Y-195657200D01*
X265505771Y-196442914D02*
X265577200Y-196514342D01*
X265505771Y-196585771D01*
X265434342Y-196514342D01*
X265505771Y-196442914D01*
X265505771Y-196585771D01*
X265505771Y-195657200D02*
X265577200Y-195728628D01*
X265505771Y-195800057D01*
X265434342Y-195728628D01*
X265505771Y-195657200D01*
X265505771Y-195800057D01*
X268148628Y-196585771D02*
X267291485Y-196585771D01*
X267720057Y-196585771D02*
X267720057Y-195085771D01*
X267577200Y-195300057D01*
X267434342Y-195442914D01*
X267291485Y-195514342D01*
X269862914Y-195014342D02*
X268577200Y-196942914D01*
X271148628Y-196585771D02*
X270291485Y-196585771D01*
X270720057Y-196585771D02*
X270720057Y-195085771D01*
X270577200Y-195300057D01*
X270434342Y-195442914D01*
X270291485Y-195514342D01*
D10*
D11*
X177002200Y-187507200D02*
X285002200Y-187507200D01*
D10*
D13*
X178714580Y-188211961D02*
X179857438Y-188211961D01*
X179036009Y-190211961D02*
X179286009Y-188211961D01*
X180274104Y-190211961D02*
X180440771Y-188878628D01*
X180524104Y-188211961D02*
X180416961Y-188307200D01*
X180500295Y-188402438D01*
X180607438Y-188307200D01*
X180524104Y-188211961D01*
X180500295Y-188402438D01*
X181107438Y-188878628D02*
X181869342Y-188878628D01*
X181476485Y-188211961D02*
X181262200Y-189926247D01*
X181333628Y-190116723D01*
X181512200Y-190211961D01*
X181702676Y-190211961D01*
X182655057Y-190211961D02*
X182476485Y-190116723D01*
X182405057Y-189926247D01*
X182619342Y-188211961D01*
X184190771Y-190116723D02*
X183988390Y-190211961D01*
X183607438Y-190211961D01*
X183428866Y-190116723D01*
X183357438Y-189926247D01*
X183452676Y-189164342D01*
X183571723Y-188973866D01*
X183774104Y-188878628D01*
X184155057Y-188878628D01*
X184333628Y-188973866D01*
X184405057Y-189164342D01*
X184381247Y-189354819D01*
X183405057Y-189545295D01*
X185155057Y-190021485D02*
X185238390Y-190116723D01*
X185131247Y-190211961D01*
X185047914Y-190116723D01*
X185155057Y-190021485D01*
X185131247Y-190211961D01*
X185286009Y-188973866D02*
X185369342Y-189069104D01*
X185262200Y-189164342D01*
X185178866Y-189069104D01*
X185286009Y-188973866D01*
X185262200Y-189164342D01*
D10*
D11*
X178934342Y-185600057D02*
X178434342Y-185600057D01*
X178434342Y-186385771D02*
X178434342Y-184885771D01*
X179148628Y-184885771D01*
X179720057Y-186385771D02*
X179720057Y-185385771D01*
X179720057Y-184885771D02*
X179648628Y-184957200D01*
X179720057Y-185028628D01*
X179791485Y-184957200D01*
X179720057Y-184885771D01*
X179720057Y-185028628D01*
X180648628Y-186385771D02*
X180505771Y-186314342D01*
X180434342Y-186171485D01*
X180434342Y-184885771D01*
X181791485Y-186314342D02*
X181648628Y-186385771D01*
X181362914Y-186385771D01*
X181220057Y-186314342D01*
X181148628Y-186171485D01*
X181148628Y-185600057D01*
X181220057Y-185457200D01*
X181362914Y-185385771D01*
X181648628Y-185385771D01*
X181791485Y-185457200D01*
X181862914Y-185600057D01*
X181862914Y-185742914D01*
X181148628Y-185885771D01*
X182505771Y-186242914D02*
X182577200Y-186314342D01*
X182505771Y-186385771D01*
X182434342Y-186314342D01*
X182505771Y-186242914D01*
X182505771Y-186385771D01*
X182505771Y-185457200D02*
X182577200Y-185528628D01*
X182505771Y-185600057D01*
X182434342Y-185528628D01*
X182505771Y-185457200D01*
X182505771Y-185600057D01*
X184362914Y-186385771D02*
X184362914Y-184885771D01*
X184862914Y-185957200D01*
X185362914Y-184885771D01*
X185362914Y-186385771D01*
X186005771Y-185957200D02*
X186720057Y-185957200D01*
X185862914Y-186385771D02*
X186362914Y-184885771D01*
X186862914Y-186385771D01*
X187220057Y-184885771D02*
X188220057Y-186385771D01*
X188220057Y-184885771D02*
X187220057Y-186385771D01*
X188648628Y-184885771D02*
X189577200Y-184885771D01*
X189077200Y-185457200D01*
X189291485Y-185457200D01*
X189434342Y-185528628D01*
X189505771Y-185600057D01*
X189577200Y-185742914D01*
X189577200Y-186100057D01*
X189505771Y-186242914D01*
X189434342Y-186314342D01*
X189291485Y-186385771D01*
X188862914Y-186385771D01*
X188720057Y-186314342D01*
X188648628Y-186242914D01*
X191005771Y-186385771D02*
X190148628Y-186385771D01*
X190577200Y-186385771D02*
X190577200Y-184885771D01*
X190434342Y-185100057D01*
X190291485Y-185242914D01*
X190148628Y-185314342D01*
X191862914Y-185528628D02*
X191720057Y-185457200D01*
X191648628Y-185385771D01*
X191577200Y-185242914D01*
X191577200Y-185171485D01*
X191648628Y-185028628D01*
X191720057Y-184957200D01*
X191862914Y-184885771D01*
X192148628Y-184885771D01*
X192291485Y-184957200D01*
X192362914Y-185028628D01*
X192434342Y-185171485D01*
X192434342Y-185242914D01*
X192362914Y-185385771D01*
X192291485Y-185457200D01*
X192148628Y-185528628D01*
X191862914Y-185528628D01*
X191720057Y-185600057D01*
X191648628Y-185671485D01*
X191577200Y-185814342D01*
X191577200Y-186100057D01*
X191648628Y-186242914D01*
X191720057Y-186314342D01*
X191862914Y-186385771D01*
X192148628Y-186385771D01*
X192291485Y-186314342D01*
X192362914Y-186242914D01*
X192434342Y-186100057D01*
X192434342Y-185814342D01*
X192362914Y-185671485D01*
X192291485Y-185600057D01*
X192148628Y-185528628D01*
X193720057Y-184885771D02*
X193434342Y-184885771D01*
X193291485Y-184957200D01*
X193220057Y-185028628D01*
X193077200Y-185242914D01*
X193005771Y-185528628D01*
X193005771Y-186100057D01*
X193077200Y-186242914D01*
X193148628Y-186314342D01*
X193291485Y-186385771D01*
X193577200Y-186385771D01*
X193720057Y-186314342D01*
X193791485Y-186242914D01*
X193862914Y-186100057D01*
X193862914Y-185742914D01*
X193791485Y-185600057D01*
X193720057Y-185528628D01*
X193577200Y-185457200D01*
X193291485Y-185457200D01*
X193148628Y-185528628D01*
X193077200Y-185600057D01*
X193005771Y-185742914D01*
X195220057Y-184885771D02*
X194505771Y-184885771D01*
X194434342Y-185600057D01*
X194505771Y-185528628D01*
X194648628Y-185457200D01*
X195005771Y-185457200D01*
X195148628Y-185528628D01*
X195220057Y-185600057D01*
X195291485Y-185742914D01*
X195291485Y-186100057D01*
X195220057Y-186242914D01*
X195148628Y-186314342D01*
X195005771Y-186385771D01*
X194648628Y-186385771D01*
X194505771Y-186314342D01*
X194434342Y-186242914D01*
X195577200Y-186528628D02*
X196720057Y-186528628D01*
X196934342Y-186385771D02*
X197720057Y-185385771D01*
X196934342Y-185385771D02*
X197720057Y-186385771D01*
X199077200Y-186385771D02*
X198220057Y-186385771D01*
X198648628Y-186385771D02*
X198648628Y-184885771D01*
X198505771Y-185100057D01*
X198362914Y-185242914D01*
X198220057Y-185314342D01*
X200005771Y-184885771D02*
X200148628Y-184885771D01*
X200291485Y-184957200D01*
X200362914Y-185028628D01*
X200434342Y-185171485D01*
X200505771Y-185457200D01*
X200505771Y-185814342D01*
X200434342Y-186100057D01*
X200362914Y-186242914D01*
X200291485Y-186314342D01*
X200148628Y-186385771D01*
X200005771Y-186385771D01*
X199862914Y-186314342D01*
X199791485Y-186242914D01*
X199720057Y-186100057D01*
X199648628Y-185814342D01*
X199648628Y-185457200D01*
X199720057Y-185171485D01*
X199791485Y-185028628D01*
X199862914Y-184957200D01*
X200005771Y-184885771D01*
X200791485Y-186528628D02*
X201934342Y-186528628D01*
X202291485Y-186385771D02*
X202291485Y-184885771D01*
X202862914Y-184885771D01*
X203005771Y-184957200D01*
X203077200Y-185028628D01*
X203148628Y-185171485D01*
X203148628Y-185385771D01*
X203077200Y-185528628D01*
X203005771Y-185600057D01*
X202862914Y-185671485D01*
X202291485Y-185671485D01*
X204648628Y-186242914D02*
X204577200Y-186314342D01*
X204362914Y-186385771D01*
X204220057Y-186385771D01*
X204005771Y-186314342D01*
X203862914Y-186171485D01*
X203791485Y-186028628D01*
X203720057Y-185742914D01*
X203720057Y-185528628D01*
X203791485Y-185242914D01*
X203862914Y-185100057D01*
X204005771Y-184957200D01*
X204220057Y-184885771D01*
X204362914Y-184885771D01*
X204577200Y-184957200D01*
X204648628Y-185028628D01*
X205791485Y-185600057D02*
X206005771Y-185671485D01*
X206077200Y-185742914D01*
X206148628Y-185885771D01*
X206148628Y-186100057D01*
X206077200Y-186242914D01*
X206005771Y-186314342D01*
X205862914Y-186385771D01*
X205291485Y-186385771D01*
X205291485Y-184885771D01*
X205791485Y-184885771D01*
X205934342Y-184957200D01*
X206005771Y-185028628D01*
X206077200Y-185171485D01*
X206077200Y-185314342D01*
X206005771Y-185457200D01*
X205934342Y-185528628D01*
X205791485Y-185600057D01*
X205291485Y-185600057D01*
X206791485Y-186242914D02*
X206862914Y-186314342D01*
X206791485Y-186385771D01*
X206720057Y-186314342D01*
X206791485Y-186242914D01*
X206791485Y-186385771D01*
X207505771Y-186385771D02*
X207505771Y-184885771D01*
X207648628Y-185814342D02*
X208077200Y-186385771D01*
X208077200Y-185385771D02*
X207505771Y-185957200D01*
X208720057Y-186385771D02*
X208720057Y-185385771D01*
X208720057Y-184885771D02*
X208648628Y-184957200D01*
X208720057Y-185028628D01*
X208791485Y-184957200D01*
X208720057Y-184885771D01*
X208720057Y-185028628D01*
X210077200Y-186314342D02*
X209934342Y-186385771D01*
X209648628Y-186385771D01*
X209505771Y-186314342D01*
X209434342Y-186242914D01*
X209362914Y-186100057D01*
X209362914Y-185671485D01*
X209434342Y-185528628D01*
X209505771Y-185457200D01*
X209648628Y-185385771D01*
X209934342Y-185385771D01*
X210077200Y-185457200D01*
X211362914Y-186385771D02*
X211362914Y-185600057D01*
X211291485Y-185457200D01*
X211148628Y-185385771D01*
X210862914Y-185385771D01*
X210720057Y-185457200D01*
X211362914Y-186314342D02*
X211220057Y-186385771D01*
X210862914Y-186385771D01*
X210720057Y-186314342D01*
X210648628Y-186171485D01*
X210648628Y-186028628D01*
X210720057Y-185885771D01*
X210862914Y-185814342D01*
X211220057Y-185814342D01*
X211362914Y-185742914D01*
X212720057Y-186385771D02*
X212720057Y-184885771D01*
X212720057Y-186314342D02*
X212577200Y-186385771D01*
X212291485Y-186385771D01*
X212148628Y-186314342D01*
X212077200Y-186242914D01*
X212005771Y-186100057D01*
X212005771Y-185671485D01*
X212077200Y-185528628D01*
X212148628Y-185457200D01*
X212291485Y-185385771D01*
X212577200Y-185385771D01*
X212720057Y-185457200D01*
X213077200Y-186528628D02*
X214220057Y-186528628D01*
X214577200Y-185385771D02*
X214577200Y-186885771D01*
X214577200Y-185457200D02*
X214720057Y-185385771D01*
X215005771Y-185385771D01*
X215148628Y-185457200D01*
X215220057Y-185528628D01*
X215291485Y-185671485D01*
X215291485Y-186100057D01*
X215220057Y-186242914D01*
X215148628Y-186314342D01*
X215005771Y-186385771D01*
X214720057Y-186385771D01*
X214577200Y-186314342D01*
X216577200Y-186314342D02*
X216434342Y-186385771D01*
X216148628Y-186385771D01*
X216005771Y-186314342D01*
X215934342Y-186242914D01*
X215862914Y-186100057D01*
X215862914Y-185671485D01*
X215934342Y-185528628D01*
X216005771Y-185457200D01*
X216148628Y-185385771D01*
X216434342Y-185385771D01*
X216577200Y-185457200D01*
X217220057Y-186385771D02*
X217220057Y-184885771D01*
X217220057Y-185457200D02*
X217362914Y-185385771D01*
X217648628Y-185385771D01*
X217791485Y-185457200D01*
X217862914Y-185528628D01*
X217934342Y-185671485D01*
X217934342Y-186100057D01*
X217862914Y-186242914D01*
X217791485Y-186314342D01*
X217648628Y-186385771D01*
X217362914Y-186385771D01*
X217220057Y-186314342D01*
D10*
D11*
X177002200Y-181507200D02*
X285002200Y-181507200D01*
D10*
D11*
X178362914Y-183614342D02*
X178577200Y-183685771D01*
X178934342Y-183685771D01*
X179077200Y-183614342D01*
X179148628Y-183542914D01*
X179220057Y-183400057D01*
X179220057Y-183257200D01*
X179148628Y-183114342D01*
X179077200Y-183042914D01*
X178934342Y-182971485D01*
X178648628Y-182900057D01*
X178505771Y-182828628D01*
X178434342Y-182757200D01*
X178362914Y-182614342D01*
X178362914Y-182471485D01*
X178434342Y-182328628D01*
X178505771Y-182257200D01*
X178648628Y-182185771D01*
X179005771Y-182185771D01*
X179220057Y-182257200D01*
X179862914Y-183685771D02*
X179862914Y-182185771D01*
X180505771Y-183685771D02*
X180505771Y-182900057D01*
X180434342Y-182757200D01*
X180291485Y-182685771D01*
X180077200Y-182685771D01*
X179934342Y-182757200D01*
X179862914Y-182828628D01*
X181791485Y-183614342D02*
X181648628Y-183685771D01*
X181362914Y-183685771D01*
X181220057Y-183614342D01*
X181148628Y-183471485D01*
X181148628Y-182900057D01*
X181220057Y-182757200D01*
X181362914Y-182685771D01*
X181648628Y-182685771D01*
X181791485Y-182757200D01*
X181862914Y-182900057D01*
X181862914Y-183042914D01*
X181148628Y-183185771D01*
X183077200Y-183614342D02*
X182934342Y-183685771D01*
X182648628Y-183685771D01*
X182505771Y-183614342D01*
X182434342Y-183471485D01*
X182434342Y-182900057D01*
X182505771Y-182757200D01*
X182648628Y-182685771D01*
X182934342Y-182685771D01*
X183077200Y-182757200D01*
X183148628Y-182900057D01*
X183148628Y-183042914D01*
X182434342Y-183185771D01*
X183577200Y-182685771D02*
X184148628Y-182685771D01*
X183791485Y-182185771D02*
X183791485Y-183471485D01*
X183862914Y-183614342D01*
X184005771Y-183685771D01*
X184148628Y-183685771D01*
X184648628Y-183542914D02*
X184720057Y-183614342D01*
X184648628Y-183685771D01*
X184577200Y-183614342D01*
X184648628Y-183542914D01*
X184648628Y-183685771D01*
X184648628Y-182757200D02*
X184720057Y-182828628D01*
X184648628Y-182900057D01*
X184577200Y-182828628D01*
X184648628Y-182757200D01*
X184648628Y-182900057D01*
D10*
D11*
X197002200Y-191507200D02*
X197002200Y-194507200D01*
D10*
D11*
X261002200Y-191507200D02*
X261002200Y-198007200D01*
D10*
G04 #@! TO.C,U6*
G36*
X55880000Y-73660000D02*
X57150000Y-73660000D01*
X57150000Y-72390000D01*
X55880000Y-72390000D01*
X55880000Y-73660000D01*
G37*
G36*
X57658000Y-73660000D02*
X58928000Y-73660000D01*
X58928000Y-72390000D01*
X57658000Y-72390000D01*
X57658000Y-73660000D01*
G37*
G36*
X57658000Y-71882000D02*
X58928000Y-71882000D01*
X58928000Y-70612000D01*
X57658000Y-70612000D01*
X57658000Y-71882000D01*
G37*
G36*
X55880000Y-71882000D02*
X57150000Y-71882000D01*
X57150000Y-70612000D01*
X55880000Y-70612000D01*
X55880000Y-71882000D01*
G37*
G04 #@! TO.C,U7*
G36*
X73660000Y-71882000D02*
X74930000Y-71882000D01*
X74930000Y-70612000D01*
X73660000Y-70612000D01*
X73660000Y-71882000D01*
G37*
G36*
X75438000Y-71882000D02*
X76708000Y-71882000D01*
X76708000Y-70612000D01*
X75438000Y-70612000D01*
X75438000Y-71882000D01*
G37*
G36*
X75438000Y-73660000D02*
X76708000Y-73660000D01*
X76708000Y-72390000D01*
X75438000Y-72390000D01*
X75438000Y-73660000D01*
G37*
G36*
X73660000Y-73660000D02*
X74930000Y-73660000D01*
X74930000Y-72390000D01*
X73660000Y-72390000D01*
X73660000Y-73660000D01*
G37*
G04 #@! TO.C,U8*
G36*
X91440000Y-73660000D02*
X92710000Y-73660000D01*
X92710000Y-72390000D01*
X91440000Y-72390000D01*
X91440000Y-73660000D01*
G37*
G36*
X93218000Y-73660000D02*
X94488000Y-73660000D01*
X94488000Y-72390000D01*
X93218000Y-72390000D01*
X93218000Y-73660000D01*
G37*
G36*
X93218000Y-71882000D02*
X94488000Y-71882000D01*
X94488000Y-70612000D01*
X93218000Y-70612000D01*
X93218000Y-71882000D01*
G37*
G36*
X91440000Y-71882000D02*
X92710000Y-71882000D01*
X92710000Y-70612000D01*
X91440000Y-70612000D01*
X91440000Y-71882000D01*
G37*
G04 #@! TO.C,U9*
G36*
X109220000Y-73660000D02*
X110490000Y-73660000D01*
X110490000Y-72390000D01*
X109220000Y-72390000D01*
X109220000Y-73660000D01*
G37*
G36*
X110998000Y-73660000D02*
X112268000Y-73660000D01*
X112268000Y-72390000D01*
X110998000Y-72390000D01*
X110998000Y-73660000D01*
G37*
G36*
X110998000Y-71882000D02*
X112268000Y-71882000D01*
X112268000Y-70612000D01*
X110998000Y-70612000D01*
X110998000Y-71882000D01*
G37*
G36*
X109220000Y-71882000D02*
X110490000Y-71882000D01*
X110490000Y-70612000D01*
X109220000Y-70612000D01*
X109220000Y-71882000D01*
G37*
G04 #@! TO.C,U10*
G36*
X127000000Y-73660000D02*
X128270000Y-73660000D01*
X128270000Y-72390000D01*
X127000000Y-72390000D01*
X127000000Y-73660000D01*
G37*
G36*
X128778000Y-73660000D02*
X130048000Y-73660000D01*
X130048000Y-72390000D01*
X128778000Y-72390000D01*
X128778000Y-73660000D01*
G37*
G36*
X128778000Y-71882000D02*
X130048000Y-71882000D01*
X130048000Y-70612000D01*
X128778000Y-70612000D01*
X128778000Y-71882000D01*
G37*
G36*
X127000000Y-71882000D02*
X128270000Y-71882000D01*
X128270000Y-70612000D01*
X127000000Y-70612000D01*
X127000000Y-71882000D01*
G37*
G04 #@! TO.C,U11*
G36*
X144780000Y-71882000D02*
X146050000Y-71882000D01*
X146050000Y-70612000D01*
X144780000Y-70612000D01*
X144780000Y-71882000D01*
G37*
G36*
X146558000Y-71882000D02*
X147828000Y-71882000D01*
X147828000Y-70612000D01*
X146558000Y-70612000D01*
X146558000Y-71882000D01*
G37*
G36*
X146558000Y-73660000D02*
X147828000Y-73660000D01*
X147828000Y-72390000D01*
X146558000Y-72390000D01*
X146558000Y-73660000D01*
G37*
G36*
X144780000Y-73660000D02*
X146050000Y-73660000D01*
X146050000Y-72390000D01*
X144780000Y-72390000D01*
X144780000Y-73660000D01*
G37*
G04 #@! TO.C,U12*
G36*
X162560000Y-71882000D02*
X163830000Y-71882000D01*
X163830000Y-70612000D01*
X162560000Y-70612000D01*
X162560000Y-71882000D01*
G37*
G36*
X164338000Y-71882000D02*
X165608000Y-71882000D01*
X165608000Y-70612000D01*
X164338000Y-70612000D01*
X164338000Y-71882000D01*
G37*
G36*
X164338000Y-73660000D02*
X165608000Y-73660000D01*
X165608000Y-72390000D01*
X164338000Y-72390000D01*
X164338000Y-73660000D01*
G37*
G36*
X162560000Y-73660000D02*
X163830000Y-73660000D01*
X163830000Y-72390000D01*
X162560000Y-72390000D01*
X162560000Y-73660000D01*
G37*
G04 #@! TO.C,U13*
G36*
X180340000Y-71882000D02*
X181610000Y-71882000D01*
X181610000Y-70612000D01*
X180340000Y-70612000D01*
X180340000Y-71882000D01*
G37*
G36*
X182118000Y-71882000D02*
X183388000Y-71882000D01*
X183388000Y-70612000D01*
X182118000Y-70612000D01*
X182118000Y-71882000D01*
G37*
G36*
X182118000Y-73660000D02*
X183388000Y-73660000D01*
X183388000Y-72390000D01*
X182118000Y-72390000D01*
X182118000Y-73660000D01*
G37*
G36*
X180340000Y-73660000D02*
X181610000Y-73660000D01*
X181610000Y-72390000D01*
X180340000Y-72390000D01*
X180340000Y-73660000D01*
G37*
G04 #@! TO.C,U14*
G36*
X198120000Y-73660000D02*
X199390000Y-73660000D01*
X199390000Y-72390000D01*
X198120000Y-72390000D01*
X198120000Y-73660000D01*
G37*
G36*
X199898000Y-73660000D02*
X201168000Y-73660000D01*
X201168000Y-72390000D01*
X199898000Y-72390000D01*
X199898000Y-73660000D01*
G37*
G36*
X199898000Y-71882000D02*
X201168000Y-71882000D01*
X201168000Y-70612000D01*
X199898000Y-70612000D01*
X199898000Y-71882000D01*
G37*
G36*
X198120000Y-71882000D02*
X199390000Y-71882000D01*
X199390000Y-70612000D01*
X198120000Y-70612000D01*
X198120000Y-71882000D01*
G37*
G04 #@! TO.C,U15*
G36*
X215900000Y-71882000D02*
X217170000Y-71882000D01*
X217170000Y-70612000D01*
X215900000Y-70612000D01*
X215900000Y-71882000D01*
G37*
G36*
X217678000Y-71882000D02*
X218948000Y-71882000D01*
X218948000Y-70612000D01*
X217678000Y-70612000D01*
X217678000Y-71882000D01*
G37*
G36*
X217678000Y-73660000D02*
X218948000Y-73660000D01*
X218948000Y-72390000D01*
X217678000Y-72390000D01*
X217678000Y-73660000D01*
G37*
G36*
X215900000Y-73660000D02*
X217170000Y-73660000D01*
X217170000Y-72390000D01*
X215900000Y-72390000D01*
X215900000Y-73660000D01*
G37*
G04 #@! TD*
D14*
G04 #@! TO.C,C1*
X41402000Y-47625000D03*
X41402000Y-49525000D03*
G04 #@! TD*
G04 #@! TO.C,C2*
X49276000Y-47691000D03*
X49276000Y-49591000D03*
G04 #@! TD*
G04 #@! TO.C,C3*
X46609000Y-71207861D03*
X46609000Y-73107861D03*
G04 #@! TD*
G04 #@! TO.C,C4*
X48768000Y-74991000D03*
X48768000Y-73091000D03*
G04 #@! TD*
D15*
G04 #@! TO.C,C5*
X54036000Y-84074000D03*
X52136000Y-84074000D03*
G04 #@! TD*
D14*
G04 #@! TO.C,C6*
X64389000Y-71207861D03*
X64389000Y-73107861D03*
G04 #@! TD*
G04 #@! TO.C,C7*
X66548000Y-75052000D03*
X66548000Y-73152000D03*
G04 #@! TD*
D15*
G04 #@! TO.C,C8*
X71816000Y-84074000D03*
X69916000Y-84074000D03*
G04 #@! TD*
D14*
G04 #@! TO.C,C9*
X82169000Y-71207861D03*
X82169000Y-73107861D03*
G04 #@! TD*
G04 #@! TO.C,C10*
X84364137Y-75012861D03*
X84364137Y-73112861D03*
G04 #@! TD*
D15*
G04 #@! TO.C,C11*
X89596000Y-84074000D03*
X87696000Y-84074000D03*
G04 #@! TD*
D14*
G04 #@! TO.C,C12*
X99949000Y-71207861D03*
X99949000Y-73107861D03*
G04 #@! TD*
G04 #@! TO.C,C13*
X102144137Y-75012861D03*
X102144137Y-73112861D03*
G04 #@! TD*
D15*
G04 #@! TO.C,C14*
X107376000Y-84074000D03*
X105476000Y-84074000D03*
G04 #@! TD*
D14*
G04 #@! TO.C,C15*
X117729000Y-71207861D03*
X117729000Y-73107861D03*
G04 #@! TD*
G04 #@! TO.C,C16*
X119924137Y-75012861D03*
X119924137Y-73112861D03*
G04 #@! TD*
D15*
G04 #@! TO.C,C17*
X125156000Y-84074000D03*
X123256000Y-84074000D03*
G04 #@! TD*
D14*
G04 #@! TO.C,C18*
X135509000Y-73107861D03*
X135509000Y-71207861D03*
G04 #@! TD*
G04 #@! TO.C,C19*
X137699137Y-73107861D03*
X137699137Y-75007861D03*
G04 #@! TD*
D15*
G04 #@! TO.C,C20*
X141036000Y-84074000D03*
X142936000Y-84074000D03*
G04 #@! TD*
D14*
G04 #@! TO.C,C21*
X153289000Y-71247000D03*
X153289000Y-73147000D03*
G04 #@! TD*
G04 #@! TO.C,C22*
X155448000Y-74991000D03*
X155448000Y-73091000D03*
G04 #@! TD*
D15*
G04 #@! TO.C,C23*
X160716000Y-84074000D03*
X158816000Y-84074000D03*
G04 #@! TD*
D14*
G04 #@! TO.C,C24*
X171069000Y-71207861D03*
X171069000Y-73107861D03*
G04 #@! TD*
G04 #@! TO.C,C25*
X173228000Y-73091000D03*
X173228000Y-74991000D03*
G04 #@! TD*
D15*
G04 #@! TO.C,C26*
X178496000Y-84074000D03*
X176596000Y-84074000D03*
G04 #@! TD*
D14*
G04 #@! TO.C,C27*
X188849000Y-73091000D03*
X188849000Y-71191000D03*
G04 #@! TD*
G04 #@! TO.C,C28*
X191008000Y-73091000D03*
X191008000Y-74991000D03*
G04 #@! TD*
D15*
G04 #@! TO.C,C29*
X194376000Y-84074000D03*
X196276000Y-84074000D03*
G04 #@! TD*
D14*
G04 #@! TO.C,C30*
X206629000Y-73107861D03*
X206629000Y-71207861D03*
G04 #@! TD*
G04 #@! TO.C,C31*
X208824137Y-73112861D03*
X208824137Y-75012861D03*
G04 #@! TD*
D15*
G04 #@! TO.C,C32*
X214056000Y-84074000D03*
X212156000Y-84074000D03*
G04 #@! TD*
D16*
G04 #@! TO.C,D1*
X61595000Y-66675000D03*
X61595000Y-64135000D03*
G04 #@! TD*
G04 #@! TO.C,D2*
X58039000Y-64135000D03*
X58039000Y-66675000D03*
G04 #@! TD*
G04 #@! TO.C,D3*
X54450863Y-64147339D03*
X54450863Y-66687339D03*
G04 #@! TD*
G04 #@! TO.C,D4*
X79375000Y-66675000D03*
X79375000Y-64135000D03*
G04 #@! TD*
G04 #@! TO.C,D5*
X75819000Y-66675000D03*
X75819000Y-64135000D03*
G04 #@! TD*
G04 #@! TO.C,D6*
X72230863Y-64147339D03*
X72230863Y-66687339D03*
G04 #@! TD*
G04 #@! TO.C,D7*
X97155000Y-64135000D03*
X97155000Y-66675000D03*
G04 #@! TD*
G04 #@! TO.C,D8*
X93599000Y-66675000D03*
X93599000Y-64135000D03*
G04 #@! TD*
G04 #@! TO.C,D9*
X90010863Y-64147339D03*
X90010863Y-66687339D03*
G04 #@! TD*
G04 #@! TO.C,D10*
X114935000Y-64135000D03*
X114935000Y-66675000D03*
G04 #@! TD*
G04 #@! TO.C,D11*
X111379000Y-64135000D03*
X111379000Y-66675000D03*
G04 #@! TD*
G04 #@! TO.C,D12*
X107790863Y-66687339D03*
X107790863Y-64147339D03*
G04 #@! TD*
G04 #@! TO.C,D13*
X132710000Y-66670000D03*
X132710000Y-64130000D03*
G04 #@! TD*
G04 #@! TO.C,D14*
X129174000Y-66690000D03*
X129174000Y-64150000D03*
G04 #@! TD*
G04 #@! TO.C,D15*
X125570863Y-64147339D03*
X125570863Y-66687339D03*
G04 #@! TD*
G04 #@! TO.C,D16*
X150495000Y-66675000D03*
X150495000Y-64135000D03*
G04 #@! TD*
G04 #@! TO.C,D17*
X146939000Y-64135000D03*
X146939000Y-66675000D03*
G04 #@! TD*
G04 #@! TO.C,D18*
X143350863Y-66687339D03*
X143350863Y-64147339D03*
G04 #@! TD*
G04 #@! TO.C,D19*
X168270000Y-66670000D03*
X168270000Y-64130000D03*
G04 #@! TD*
G04 #@! TO.C,D20*
X164719000Y-64135000D03*
X164719000Y-66675000D03*
G04 #@! TD*
G04 #@! TO.C,D21*
X161130863Y-64147339D03*
X161130863Y-66687339D03*
G04 #@! TD*
G04 #@! TO.C,D22*
X186050000Y-64130000D03*
X186050000Y-66670000D03*
G04 #@! TD*
G04 #@! TO.C,D23*
X182514000Y-64150000D03*
X182514000Y-66690000D03*
G04 #@! TD*
G04 #@! TO.C,D24*
X178910863Y-66687339D03*
X178910863Y-64147339D03*
G04 #@! TD*
G04 #@! TO.C,D25*
X203830000Y-66670000D03*
X203830000Y-64130000D03*
G04 #@! TD*
G04 #@! TO.C,D26*
X200274000Y-64130000D03*
X200274000Y-66670000D03*
G04 #@! TD*
G04 #@! TO.C,D27*
X196690863Y-66687339D03*
X196690863Y-64147339D03*
G04 #@! TD*
G04 #@! TO.C,D28*
X221615000Y-66675000D03*
X221615000Y-64135000D03*
G04 #@! TD*
G04 #@! TO.C,D29*
X218054000Y-66670000D03*
X218054000Y-64130000D03*
G04 #@! TD*
G04 #@! TO.C,D30*
X214470863Y-64147339D03*
X214470863Y-66687339D03*
G04 #@! TD*
D14*
G04 #@! TO.C,FB1*
X50963137Y-73107861D03*
X50963137Y-71207861D03*
G04 #@! TD*
G04 #@! TO.C,FB2*
X68726276Y-71191000D03*
X68726276Y-73091000D03*
G04 #@! TD*
G04 #@! TO.C,FB3*
X86523137Y-71207861D03*
X86523137Y-73107861D03*
G04 #@! TD*
G04 #@! TO.C,FB4*
X104308137Y-71212861D03*
X104308137Y-73112861D03*
G04 #@! TD*
G04 #@! TO.C,FB5*
X122066276Y-71191000D03*
X122066276Y-73091000D03*
G04 #@! TD*
G04 #@! TO.C,FB6*
X139846276Y-73091000D03*
X139846276Y-71191000D03*
G04 #@! TD*
G04 #@! TO.C,FB7*
X157626276Y-71191000D03*
X157626276Y-73091000D03*
G04 #@! TD*
G04 #@! TO.C,FB8*
X175406276Y-71191000D03*
X175406276Y-73091000D03*
G04 #@! TD*
G04 #@! TO.C,FB9*
X193203137Y-71207861D03*
X193203137Y-73107861D03*
G04 #@! TD*
G04 #@! TO.C,FB10*
X210966276Y-71191000D03*
X210966276Y-73091000D03*
G04 #@! TD*
G04 #@! TO.C,R1*
X56261000Y-64770000D03*
X56261000Y-66670000D03*
G04 #@! TD*
G04 #@! TO.C,R2*
X52672863Y-66687339D03*
X52672863Y-64787339D03*
G04 #@! TD*
G04 #@! TO.C,R3*
X59817000Y-64770000D03*
X59817000Y-66670000D03*
G04 #@! TD*
D15*
G04 #@! TO.C,R4*
X57404000Y-76200000D03*
X55504000Y-76200000D03*
G04 #@! TD*
D14*
G04 #@! TO.C,R5*
X74041000Y-66670000D03*
X74041000Y-64770000D03*
G04 #@! TD*
G04 #@! TO.C,R6*
X70485000Y-64755202D03*
X70485000Y-66655202D03*
G04 #@! TD*
G04 #@! TO.C,R7*
X77597000Y-66670000D03*
X77597000Y-64770000D03*
G04 #@! TD*
D15*
G04 #@! TO.C,R8*
X75184000Y-76200000D03*
X73284000Y-76200000D03*
G04 #@! TD*
D14*
G04 #@! TO.C,R9*
X91821000Y-66670000D03*
X91821000Y-64770000D03*
G04 #@! TD*
G04 #@! TO.C,R10*
X88232863Y-64787339D03*
X88232863Y-66687339D03*
G04 #@! TD*
G04 #@! TO.C,R11*
X95377000Y-66670000D03*
X95377000Y-64770000D03*
G04 #@! TD*
D15*
G04 #@! TO.C,R12*
X92964000Y-76200000D03*
X91064000Y-76200000D03*
G04 #@! TD*
D14*
G04 #@! TO.C,R13*
X109601000Y-66670000D03*
X109601000Y-64770000D03*
G04 #@! TD*
G04 #@! TO.C,R14*
X106045000Y-64775000D03*
X106045000Y-66675000D03*
G04 #@! TD*
G04 #@! TO.C,R15*
X113157000Y-66675000D03*
X113157000Y-64775000D03*
G04 #@! TD*
D15*
G04 #@! TO.C,R16*
X110744000Y-76200000D03*
X108844000Y-76200000D03*
G04 #@! TD*
D14*
G04 #@! TO.C,R17*
X127381000Y-66670000D03*
X127381000Y-64770000D03*
G04 #@! TD*
G04 #@! TO.C,R18*
X123792863Y-64787339D03*
X123792863Y-66687339D03*
G04 #@! TD*
G04 #@! TO.C,R19*
X130937000Y-66670000D03*
X130937000Y-64770000D03*
G04 #@! TD*
D15*
G04 #@! TO.C,R20*
X128524000Y-76200000D03*
X126624000Y-76200000D03*
G04 #@! TD*
D14*
G04 #@! TO.C,R21*
X145161000Y-64770000D03*
X145161000Y-66670000D03*
G04 #@! TD*
G04 #@! TO.C,R22*
X141572863Y-66687339D03*
X141572863Y-64787339D03*
G04 #@! TD*
G04 #@! TO.C,R23*
X148717000Y-64770000D03*
X148717000Y-66670000D03*
G04 #@! TD*
D15*
G04 #@! TO.C,R24*
X146304000Y-76200000D03*
X144404000Y-76200000D03*
G04 #@! TD*
D14*
G04 #@! TO.C,R25*
X162941000Y-64770000D03*
X162941000Y-66670000D03*
G04 #@! TD*
G04 #@! TO.C,R26*
X159352863Y-64787339D03*
X159352863Y-66687339D03*
G04 #@! TD*
G04 #@! TO.C,R27*
X166497000Y-66670000D03*
X166497000Y-64770000D03*
G04 #@! TD*
D15*
G04 #@! TO.C,R28*
X164084000Y-76200000D03*
X162184000Y-76200000D03*
G04 #@! TD*
D14*
G04 #@! TO.C,R29*
X180721000Y-66670000D03*
X180721000Y-64770000D03*
G04 #@! TD*
G04 #@! TO.C,R30*
X177132863Y-64787339D03*
X177132863Y-66687339D03*
G04 #@! TD*
G04 #@! TO.C,R31*
X184277000Y-66670000D03*
X184277000Y-64770000D03*
G04 #@! TD*
D15*
G04 #@! TO.C,R32*
X179964000Y-76200000D03*
X181864000Y-76200000D03*
G04 #@! TD*
D14*
G04 #@! TO.C,R33*
X198501000Y-64770000D03*
X198501000Y-66670000D03*
G04 #@! TD*
G04 #@! TO.C,R34*
X194945000Y-66670000D03*
X194945000Y-64770000D03*
G04 #@! TD*
G04 #@! TO.C,R35*
X202057000Y-64770000D03*
X202057000Y-66670000D03*
G04 #@! TD*
D15*
G04 #@! TO.C,R36*
X197744000Y-76200000D03*
X199644000Y-76200000D03*
G04 #@! TD*
D14*
G04 #@! TO.C,R37*
X216281000Y-66670000D03*
X216281000Y-64770000D03*
G04 #@! TD*
G04 #@! TO.C,R38*
X212692863Y-66687339D03*
X212692863Y-64787339D03*
G04 #@! TD*
G04 #@! TO.C,R39*
X219837000Y-66670000D03*
X219837000Y-64770000D03*
G04 #@! TD*
D15*
G04 #@! TO.C,R40*
X217424000Y-76200000D03*
X215524000Y-76200000D03*
G04 #@! TD*
D17*
G04 #@! TO.C,U5*
X44389800Y-47691000D03*
X44389800Y-48641000D03*
X44389800Y-49591000D03*
X46990000Y-49591000D03*
X46990000Y-47691000D03*
G04 #@! TD*
D18*
G04 #@! TO.C,U6*
X56104000Y-69796000D03*
X56754000Y-69796000D03*
X57404000Y-69796000D03*
X58054000Y-69796000D03*
X58704000Y-69796000D03*
D19*
X59744000Y-70836000D03*
X59744000Y-71486000D03*
X59744000Y-72136000D03*
X59744000Y-72786000D03*
X59744000Y-73436000D03*
D18*
X58704000Y-74476000D03*
X58054000Y-74476000D03*
X57404000Y-74476000D03*
X56754000Y-74476000D03*
X56104000Y-74476000D03*
D19*
X55064000Y-73436000D03*
X55064000Y-72786000D03*
X55064000Y-72136000D03*
X55064000Y-71486000D03*
X55064000Y-70836000D03*
G04 #@! TD*
G04 #@! TO.C,U7*
X72844000Y-70836000D03*
X72844000Y-71486000D03*
X72844000Y-72136000D03*
X72844000Y-72786000D03*
X72844000Y-73436000D03*
D18*
X73884000Y-74476000D03*
X74534000Y-74476000D03*
X75184000Y-74476000D03*
X75834000Y-74476000D03*
X76484000Y-74476000D03*
D19*
X77524000Y-73436000D03*
X77524000Y-72786000D03*
X77524000Y-72136000D03*
X77524000Y-71486000D03*
X77524000Y-70836000D03*
D18*
X76484000Y-69796000D03*
X75834000Y-69796000D03*
X75184000Y-69796000D03*
X74534000Y-69796000D03*
X73884000Y-69796000D03*
G04 #@! TD*
G04 #@! TO.C,U8*
X91664000Y-69796000D03*
X92314000Y-69796000D03*
X92964000Y-69796000D03*
X93614000Y-69796000D03*
X94264000Y-69796000D03*
D19*
X95304000Y-70836000D03*
X95304000Y-71486000D03*
X95304000Y-72136000D03*
X95304000Y-72786000D03*
X95304000Y-73436000D03*
D18*
X94264000Y-74476000D03*
X93614000Y-74476000D03*
X92964000Y-74476000D03*
X92314000Y-74476000D03*
X91664000Y-74476000D03*
D19*
X90624000Y-73436000D03*
X90624000Y-72786000D03*
X90624000Y-72136000D03*
X90624000Y-71486000D03*
X90624000Y-70836000D03*
G04 #@! TD*
D18*
G04 #@! TO.C,U9*
X109444000Y-69796000D03*
X110094000Y-69796000D03*
X110744000Y-69796000D03*
X111394000Y-69796000D03*
X112044000Y-69796000D03*
D19*
X113084000Y-70836000D03*
X113084000Y-71486000D03*
X113084000Y-72136000D03*
X113084000Y-72786000D03*
X113084000Y-73436000D03*
D18*
X112044000Y-74476000D03*
X111394000Y-74476000D03*
X110744000Y-74476000D03*
X110094000Y-74476000D03*
X109444000Y-74476000D03*
D19*
X108404000Y-73436000D03*
X108404000Y-72786000D03*
X108404000Y-72136000D03*
X108404000Y-71486000D03*
X108404000Y-70836000D03*
G04 #@! TD*
D18*
G04 #@! TO.C,U10*
X127224000Y-69796000D03*
X127874000Y-69796000D03*
X128524000Y-69796000D03*
X129174000Y-69796000D03*
X129824000Y-69796000D03*
D19*
X130864000Y-70836000D03*
X130864000Y-71486000D03*
X130864000Y-72136000D03*
X130864000Y-72786000D03*
X130864000Y-73436000D03*
D18*
X129824000Y-74476000D03*
X129174000Y-74476000D03*
X128524000Y-74476000D03*
X127874000Y-74476000D03*
X127224000Y-74476000D03*
D19*
X126184000Y-73436000D03*
X126184000Y-72786000D03*
X126184000Y-72136000D03*
X126184000Y-71486000D03*
X126184000Y-70836000D03*
G04 #@! TD*
G04 #@! TO.C,U11*
X143964000Y-70836000D03*
X143964000Y-71486000D03*
X143964000Y-72136000D03*
X143964000Y-72786000D03*
X143964000Y-73436000D03*
D18*
X145004000Y-74476000D03*
X145654000Y-74476000D03*
X146304000Y-74476000D03*
X146954000Y-74476000D03*
X147604000Y-74476000D03*
D19*
X148644000Y-73436000D03*
X148644000Y-72786000D03*
X148644000Y-72136000D03*
X148644000Y-71486000D03*
X148644000Y-70836000D03*
D18*
X147604000Y-69796000D03*
X146954000Y-69796000D03*
X146304000Y-69796000D03*
X145654000Y-69796000D03*
X145004000Y-69796000D03*
G04 #@! TD*
D19*
G04 #@! TO.C,U12*
X161744000Y-70836000D03*
X161744000Y-71486000D03*
X161744000Y-72136000D03*
X161744000Y-72786000D03*
X161744000Y-73436000D03*
D18*
X162784000Y-74476000D03*
X163434000Y-74476000D03*
X164084000Y-74476000D03*
X164734000Y-74476000D03*
X165384000Y-74476000D03*
D19*
X166424000Y-73436000D03*
X166424000Y-72786000D03*
X166424000Y-72136000D03*
X166424000Y-71486000D03*
X166424000Y-70836000D03*
D18*
X165384000Y-69796000D03*
X164734000Y-69796000D03*
X164084000Y-69796000D03*
X163434000Y-69796000D03*
X162784000Y-69796000D03*
G04 #@! TD*
D19*
G04 #@! TO.C,U13*
X179524000Y-70836000D03*
X179524000Y-71486000D03*
X179524000Y-72136000D03*
X179524000Y-72786000D03*
X179524000Y-73436000D03*
D18*
X180564000Y-74476000D03*
X181214000Y-74476000D03*
X181864000Y-74476000D03*
X182514000Y-74476000D03*
X183164000Y-74476000D03*
D19*
X184204000Y-73436000D03*
X184204000Y-72786000D03*
X184204000Y-72136000D03*
X184204000Y-71486000D03*
X184204000Y-70836000D03*
D18*
X183164000Y-69796000D03*
X182514000Y-69796000D03*
X181864000Y-69796000D03*
X181214000Y-69796000D03*
X180564000Y-69796000D03*
G04 #@! TD*
G04 #@! TO.C,U14*
X198344000Y-69796000D03*
X198994000Y-69796000D03*
X199644000Y-69796000D03*
X200294000Y-69796000D03*
X200944000Y-69796000D03*
D19*
X201984000Y-70836000D03*
X201984000Y-71486000D03*
X201984000Y-72136000D03*
X201984000Y-72786000D03*
X201984000Y-73436000D03*
D18*
X200944000Y-74476000D03*
X200294000Y-74476000D03*
X199644000Y-74476000D03*
X198994000Y-74476000D03*
X198344000Y-74476000D03*
D19*
X197304000Y-73436000D03*
X197304000Y-72786000D03*
X197304000Y-72136000D03*
X197304000Y-71486000D03*
X197304000Y-70836000D03*
G04 #@! TD*
G04 #@! TO.C,U15*
X215084000Y-70836000D03*
X215084000Y-71486000D03*
X215084000Y-72136000D03*
X215084000Y-72786000D03*
X215084000Y-73436000D03*
D18*
X216124000Y-74476000D03*
X216774000Y-74476000D03*
X217424000Y-74476000D03*
X218074000Y-74476000D03*
X218724000Y-74476000D03*
D19*
X219764000Y-73436000D03*
X219764000Y-72786000D03*
X219764000Y-72136000D03*
X219764000Y-71486000D03*
X219764000Y-70836000D03*
D18*
X218724000Y-69796000D03*
X218074000Y-69796000D03*
X217424000Y-69796000D03*
X216774000Y-69796000D03*
X216124000Y-69796000D03*
G04 #@! TD*
M02*
